<svg width="65" height="32" viewBox="0 0 65 32" fill="none" xmlns="http://www.w3.org/2000/svg">
<path d="M11.1613 20.2492C11.1613 20.2492 11.2698 19.595 13.2862 19.7587C13.831 19.9767 14.8719 20.2438 15.5501 20.0288C15.1935 20.5216 14.5943 21.1754 13.1231 20.7397C11.6515 20.3032 11.7607 20.1947 11.1613 20.2492Z" fill="#DC8F1F"/>
<path d="M8.50403 11.1833C8.50403 11.1833 9.47022 12.5651 11.4324 11.2027C11.9773 10.9301 12.4676 10.6578 12.9579 10.6578C13.4482 10.6578 11.923 10.004 10.833 10.5489C9.74335 11.0937 8.88581 11.4632 8.50403 11.1833Z" fill="#CF5E43"/>
<path d="M33.7741 14.7993C33.7741 14.7993 32.0843 16.2165 30.0136 13.0559C29.0875 11.5846 26.8528 7.93332 23.4742 9.13227C24.0738 9.4043 25.9266 10.2765 23.9643 10.5491C23.0928 10.4399 21.0764 9.18647 18.8965 9.94932C17.9696 10.3854 17.0981 10.8208 16.2264 10.331C16.6618 10.8208 16.8802 11.094 18.8965 11.5299C19.5504 11.8024 20.2042 13.3285 17.8611 12.8378C16.8219 12.1948 13.5555 10.7668 12.1935 12.4566C13.1742 12.4566 16.3352 12.8378 13.937 13.982C12.8478 13.7642 11.5394 13.3285 11.5394 13.3285C11.5394 13.3285 8.86919 12.5109 7.72511 14.2C6.68939 14.5272 5.65411 15.3443 4.89111 15.1266C5.27275 15.5083 6.52601 16.2165 8.43351 15.236C9.95922 14.7993 11.3217 14.5272 11.2668 16.2165C10.9403 16.6528 9.79613 17.3606 8.97839 17.1974C9.30529 17.4702 10.2317 17.9605 12.3569 17.4155C13.5012 17.1429 15.4087 16.4891 15.2457 17.7969C15.0817 18.1781 14.4819 18.5052 14.4819 18.5052C14.4819 18.5052 15.4634 18.9955 17.2616 18.2874C18.6788 18.0147 19.9318 17.5243 20.041 18.8867C19.7141 19.2688 18.025 19.7041 18.025 19.7041L20.6403 20.3033L24.0191 19.3232C24.0191 19.3232 25.8176 18.8867 24.8914 20.4672C24.2369 21.0668 22.9289 21.5572 22.9289 21.5572C22.9289 21.5572 24.8364 22.3744 26.4715 21.1215C28.1065 19.8679 29.3602 19.4865 30.5586 19.1593C31.7029 18.7236 33.883 17.4155 33.7741 14.7993Z" fill="#CF5E43"/>
<path d="M0.806396 16.2167C0.806396 16.2167 1.40587 14.9633 3.53107 15.7806C4.02162 16.0535 4.78434 16.653 5.11166 16.5435C5.43856 16.4348 3.96674 17.3608 2.33266 16.4893C1.73277 16.2167 1.02451 16.162 0.806396 16.2167Z" fill="#CF5E43"/>
<path d="M5.50189 16.296C3.88661 18.1179 1.80094 15.5074 0.404053 16.8938C0.43045 15.7294 1.44694 15.2047 2.45612 15.3076C3.46515 15.4108 4.52947 16.465 5.50189 16.296ZM1.0602 16.1601C2.31347 15.751 3.40351 17.1329 4.84933 16.5131C3.79482 16.6193 2.61909 14.8802 1.0602 16.1601Z" fill="#080702"/>
<path d="M13.6317 10.8576C12.4596 10.6359 11.5713 11.5175 10.8013 11.8187C10.0312 12.1193 8.79096 12.1272 8.12183 10.9035C9.79156 11.7096 11.2547 8.82058 13.6317 10.8576ZM8.50373 11.1835C10.1074 12.5026 11.6796 10.4095 12.7384 10.6102C11.1339 9.91836 9.9808 11.6594 8.50373 11.1835Z" fill="#080702"/>
<path d="M15.8818 19.6849C15.4417 21.0088 14.2202 21.2224 13.4087 21.0633C12.5976 20.9047 11.5661 20.1956 10.4524 20.6232C12.4269 18.1947 14.3837 20.7758 15.8818 19.6849ZM11.2868 20.2201C12.2937 19.8341 14.2135 21.6123 15.5559 20.0288C14.1878 20.7604 12.7429 19.253 11.2868 20.2201Z" fill="#080702"/>
<path d="M23.6508 22.4134C23.4986 22.7419 22.9592 23.2936 21.951 23.3809C20.5663 23.5009 19.2005 22.1195 18.0009 22.9696C19.3951 20.0166 21.6805 23.4666 23.6508 22.4134ZM18.5326 22.5412C19.7585 22.0682 21.5272 23.6101 22.969 22.8252C21.4913 23.1606 19.764 21.2936 18.5326 22.5412Z" fill="#080702"/>
<path d="M22.7642 8.04906C22.4568 8.68019 22.0116 9.12776 21.2309 9.15346C20.2785 9.18525 19.1151 8.13766 18.2589 8.97876C18.3634 8.11693 19.254 7.80937 19.8651 7.77801C20.8903 7.7252 21.8292 8.49497 22.7642 8.04906ZM18.9861 8.36407C19.6761 8.19668 21.1033 9.20793 22.0236 8.56698C21.2221 8.72497 20.0301 7.633 18.9861 8.36407Z" fill="#080702"/>
<path d="M5.12977 15.1672C5.88046 15.6737 6.92433 15.625 8.26082 15.1489C9.59647 14.6732 11.2462 14.4682 11.4904 15.5963C11.7356 16.7235 10.2667 17.3101 9.11021 17.2084C9.69392 17.5718 10.7205 17.8012 12.5124 17.153C14.3042 16.505 15.2269 16.7856 15.4009 17.3888C15.5745 17.9918 15.0606 18.4119 14.6439 18.468C15.3552 18.6848 16.3095 18.5189 17.281 18.074C18.2526 17.6291 20.126 17.3961 20.2038 18.563C20.27 19.5528 18.7429 19.4793 18.2447 19.7498C19.2247 19.6355 20.4189 20.5607 22.2726 19.6836C23.1755 19.2562 24.5808 18.6338 25.072 19.2677C25.7829 20.1852 24.5775 21.2391 23.4728 21.5175C24.0391 21.711 25.5933 21.5745 26.7051 20.7115C28.7269 19.1417 29.722 19.2213 31.1526 18.5362C32.5838 17.8517 33.226 17.1501 33.8607 15.1227C33.8267 15.9629 33.814 17.3159 32.2309 18.5132C30.6484 19.7102 28.9499 19.3263 27.1524 20.7489C25.3548 22.1715 23.5082 22.3238 22.0954 21.5077C23.7846 21.4629 25.3131 20.2232 24.9945 19.6467C24.5306 18.8063 22.7544 20.2554 21.2641 20.4098C19.52 20.5909 18.4483 19.4826 16.8756 20.2488C17.8547 19.047 20.0199 19.5167 19.8863 18.5323C19.8495 18.2606 19.2846 17.7428 17.0613 18.4908C15.6868 18.9532 14.3851 18.8715 13.6818 18.3031C14.192 18.3999 15.2216 18.242 15.1332 17.5907C15.0448 16.9394 13.7338 17.1904 12.851 17.4763C10.7486 18.1556 9.129 17.888 8.4253 16.9142C9.78488 17.1536 11.2333 16.5522 11.0684 15.7453C10.9041 14.9383 9.56108 14.9544 8.18894 15.4353C5.74791 16.2902 4.73901 15.681 4.15405 14.7647C6.84085 15.5562 7.39416 13.0895 9.69862 12.8901C11.2054 12.7598 12.653 13.6881 13.405 13.7643C14.0278 13.8273 14.562 13.7797 14.6302 13.3772C14.6986 12.9749 13.5195 12.2502 11.763 12.7088C12.7238 11.2765 14.5413 11.1669 16.8292 12.1949C18.216 12.818 19.0327 12.9107 19.2485 12.4572C19.7827 11.3282 16.3389 11.8435 15.7639 9.95578C17.8901 10.7736 18.3514 9.64189 20.3231 9.5107C21.395 9.43869 22.2829 9.97251 22.9736 10.208C23.9523 10.5425 24.5621 10.5091 24.6676 10.1999C24.7732 9.89069 24.0756 9.27255 22.666 9.38976C23.7145 8.24029 26.2742 8.30719 28.0462 10.1113C29.5297 11.6207 31.0392 14.8149 32.7291 14.9324C33.4485 14.9822 33.6264 14.6633 33.843 14.2652C34.0042 15.2756 33.0485 15.48 32.7006 15.452C31.9058 15.3872 31.2327 15.0954 28.9236 11.6879C27.1824 9.11856 25.0496 8.84613 23.787 9.13999C24.6094 9.22513 25.2893 9.78038 24.9077 10.3394C24.1697 11.4221 21.8502 9.69634 20.3207 9.85461C18.7703 10.0156 17.7645 10.9381 16.3665 10.4148C17.0382 11.3802 20.3098 11.0541 19.7775 12.5578C19.5344 13.2454 18.6221 13.1729 17.8667 12.9634C16.7948 12.6662 13.8455 11.0266 12.3337 12.3862C13.7479 12.1211 14.8847 12.532 14.9094 13.2661C14.9358 13.9994 14.0802 14.2138 13.0113 13.9406C11.942 13.6675 10.118 12.5775 8.3562 13.8585C7.48332 14.4923 6.44483 15.2596 5.12977 15.1672Z" fill="#080702"/>
<path d="M27.0249 12.7191C27.2344 13.0412 27.3073 13.5837 27.0863 13.8531C26.5688 14.4826 25.5008 14.1235 25.0814 13.8853C24.663 13.6469 23.1001 12.587 21.8028 13.3522C23.0177 13.2061 23.4946 14.1372 23.2293 14.6335C22.3575 16.2703 19.8005 14.4898 19.3069 14.5198C19.4305 14.6134 19.681 14.9667 19.4727 15.1976C18.8314 15.9089 17.3348 14.3816 16.039 15.0177C18.5296 14.9018 19.923 17.1636 21.9719 16.3703C23.0177 15.9657 24.3368 15.4601 24.8232 16.3344C25.3104 17.2085 24.3574 17.9269 23.572 17.9787C23.9727 18.2191 24.9592 18.2883 25.7719 17.7542C27.6977 16.4879 28.1963 17.8312 30.1131 16.7424C28.6991 18.2792 27.6781 16.9983 25.7151 18.0193C24.5926 18.604 23.3323 18.6558 22.479 17.6651C23.5175 17.9853 24.9104 17.441 24.6887 16.7032C24.4876 16.0299 23.2932 16.2978 22.834 16.4745C21.8002 16.8728 20.9092 17.3054 19.0753 16.2098C17.6947 15.3853 15.8277 14.6449 14.8234 16.0713C15.5589 14.0182 17.2586 14.6313 17.8951 14.8398C18.531 15.0483 19.106 15.2105 19.2192 14.9555C19.332 14.7007 18.6241 14.3726 18.024 14.4353C18.8088 13.8316 20.0871 14.5151 20.5939 14.7689C21.4048 15.1757 22.6755 15.1693 22.8354 14.4476C22.9963 13.7254 21.7668 13.3569 21.1219 13.6292C22.1087 12.4817 23.4998 12.6804 24.5033 13.1526C25.5075 13.6251 26.3743 14.0419 26.7864 13.5441C27.1979 13.0462 26.4324 12.1546 25.4641 12.0828C27.5734 11.871 28.2305 13.4589 28.6154 14.1257C29.001 14.7924 30.0028 16.204 31.2332 15.3559C30.9697 16.1287 29.6238 16.5549 28.5877 14.7375C28.0321 13.7625 27.6627 13.0752 27.0249 12.7191Z" fill="#080702"/>
<path d="M30.8852 15.6719C30.8852 15.6719 29.414 16.4349 28.27 14.037C27.8883 13.2196 27.4526 12.7836 26.4713 12.3477C27.0708 13.3288 27.6158 13.6553 26.1989 13.9823C25.4906 13.8736 24.1827 13.2196 24.1827 13.2196C24.1827 13.2196 22.4932 12.2932 21.5666 13.3831C22.4932 13.5469 23.6925 13.7645 22.7658 15.0177C22.3293 15.181 21.2941 15.3446 19.9317 14.6361C19.2779 14.3635 18.8964 14.3635 18.8964 14.3635C18.8964 14.3635 20.0953 15.3995 18.5152 15.181C17.4793 14.7996 16.444 14.3095 15.5725 15.2902C16.444 15.181 17.4793 15.0722 19.2237 16.1621C19.9317 16.5436 21.5125 17.1977 22.6572 16.326C23.4741 16.108 24.7824 15.5627 24.7824 17.1432C24.5637 17.5246 23.6925 17.9608 23.2564 17.9608C23.8561 18.2877 24.6187 18.5601 26.0354 17.7971C27.0165 17.3609 27.2342 17.3609 28.27 17.4158C29.414 17.1977 30.286 17.1432 30.8852 15.6719Z" fill="#F4D410"/>
<path d="M27.016 12.7191C27.2254 13.0412 27.2984 13.5837 27.0774 13.8531C26.5599 14.4826 25.4918 14.1235 25.0725 13.8853C24.6541 13.6469 23.0912 12.587 21.7939 13.3522C23.0088 13.2061 23.4857 14.1372 23.2204 14.6335C22.3486 16.2703 19.7916 14.4898 19.298 14.5198C19.4216 14.6134 19.6721 14.9667 19.4638 15.1976C18.8225 15.9089 17.3258 14.3816 16.0301 15.0177C18.5207 14.9018 19.9141 17.1636 21.963 16.3703C23.0088 15.9657 24.3279 15.4601 24.8143 16.3344C25.3015 17.2085 24.3484 17.9269 23.5631 17.9787C23.9638 18.2191 24.9503 18.2883 25.763 17.7542C27.6888 16.4879 28.1873 17.8312 30.1042 16.7424C28.6902 18.2792 27.6691 16.9983 25.7062 18.0193C24.5837 18.604 23.3234 18.6558 22.4701 17.6651C23.5086 17.9853 24.9015 17.441 24.6798 16.7032C24.4787 16.0299 23.2843 16.2978 22.8251 16.4745C21.7913 16.8728 20.9003 17.3054 19.0664 16.2098C17.6858 15.3853 15.8188 14.6449 14.8145 16.0713C15.5499 14.0182 17.2497 14.6313 17.8862 14.8398C18.522 15.0483 19.0971 15.2105 19.2103 14.9555C19.3231 14.7007 18.6152 14.3726 18.015 14.4353C18.7999 13.8316 20.0782 14.5151 20.585 14.7689C21.3959 15.1757 22.6665 15.1693 22.8265 14.4476C22.9874 13.7254 21.7579 13.3569 21.113 13.6292C22.0998 12.4817 23.4909 12.6804 24.4944 13.1526C25.4986 13.6251 26.3654 14.0419 26.7775 13.5441C27.189 13.0462 26.4235 12.1546 25.4552 12.0828C27.5645 11.871 28.2216 13.4589 28.6064 14.1257C28.9921 14.7924 29.9939 16.204 31.2243 15.3559C30.9608 16.1287 29.6149 16.5549 28.5788 14.7375C28.0231 13.7625 27.6538 13.0752 27.016 12.7191Z" fill="#080702"/>
<path d="M18.5282 22.5414C18.5282 22.5414 19.0579 21.557 20.7475 22.1565C21.4016 22.4829 22.7096 22.9739 23.1452 22.7555C22.4916 23.1374 21.3473 23.3553 20.3662 22.9193C19.3857 22.4829 18.9791 22.4368 18.5282 22.5414Z" fill="#DC8F1F"/>
<path d="M18.8428 8.36904C18.8428 8.36904 19.3711 7.73515 20.6955 8.15135C21.2946 8.31431 21.6826 8.79781 22.2213 8.42392C22.1119 8.69623 21.6218 9.18637 20.423 8.80486C19.2241 8.42392 19.4967 8.0966 18.8428 8.36904Z" fill="#DC8F1F"/>
<path d="M12.6943 0.0136719L9.12796 8.96071C9.00826 9.25802 8.94751 9.54843 8.94751 9.82377C8.94751 10.9506 9.81942 11.8004 10.9757 11.8004H16.5941L19.6641 4.10995H19.7073L21.2809 0.0136719H12.6943Z" fill="black"/>
<path d="M25.4684 0H19.463L15.8238 8.97598C15.7069 9.26798 15.6451 9.5747 15.6451 9.86291C15.6451 10.9675 16.5227 11.8003 17.6864 11.8003H20.814L20.9099 11.555C21.2159 11.7154 21.5616 11.8003 21.924 11.8003H24.1539L26.7832 5.2259L26.0907 5.21907C26.1963 5.04593 26.2923 4.85402 26.3769 4.64046L27.2009 2.57414L27.2112 2.5476C27.3065 2.29376 27.3529 2.03846 27.3529 1.76713C27.3529 0.888992 26.7055 0 25.4684 0V0Z" fill="black"/>
<path d="M32.8562 0.0136719H27.0049L23.42 8.93914C23.3019 9.23562 23.2419 9.52873 23.2419 9.81051C23.2419 10.9522 24.1197 11.8132 25.2836 11.8132H30.887L34.5884 2.5903L34.6025 2.55396C34.673 2.36307 34.754 2.10411 34.754 1.79351C34.754 0.909019 34.1021 0.0136719 32.8562 0.0136719Z" fill="black"/>
<path d="M39.3584 0.0136719H33.7401L29.0403 11.8132H37.6409L41.2002 2.86973C41.3157 2.60025 41.3743 2.30446 41.3743 1.9898C41.3743 0.863203 40.5077 0.0136719 39.3584 0.0136719Z" fill="black"/>
<path d="M45.4327 0.0263672H40.4975L35.7621 11.8129H41.9283C43.1386 11.8129 44.6041 11.2056 45.1494 9.85049L47.7678 3.36358C47.9185 3.02335 47.9981 2.65317 47.9981 2.29028C47.9981 0.734838 46.6682 0.0263672 45.4327 0.0263672Z" fill="black"/>
<path d="M36.5968 14.2824L38.2526 10.1855H29.6464L27.991 14.2824H29.7463L27.7351 19.3099C27.5984 19.6158 27.5685 19.9055 27.5685 20.1004C27.5685 21.1501 28.4078 21.9724 29.4794 21.9724H33.5588L35.2162 17.7708C35.3535 17.4561 35.3535 17.1862 35.3535 17.0793C35.3535 16.4179 34.9805 15.8552 34.4203 15.5683L34.9348 14.2824H36.5968Z" fill="black"/>
<path d="M36.4115 10.1602L32.8366 19.0771C32.7122 19.3665 32.6492 19.6668 32.6492 19.9705C32.6492 21.1048 33.5269 21.9601 34.691 21.9601H40.3075L45.0415 10.1602H36.4115Z" fill="black"/>
<path d="M51.7666 10.1729H43.1937L39.5517 19.1391C39.4328 19.4385 39.375 19.7274 39.375 20.0223C39.375 21.1267 40.2527 21.9595 41.4164 21.9595H46.9989L48.9346 17.0679H48.9668L50.8455 12.5788H50.7848L51.7666 10.1729Z" fill="black"/>
<path d="M55.4783 10.1729H49.8744L45.1572 21.9724H51.245L52.5002 18.742H53.6708L54.8527 15.9696H56.1553L57.3211 13.0278C57.4426 12.745 57.5067 12.442 57.5067 12.1491C57.5067 11.0224 56.6347 10.1729 55.4783 10.1729Z" fill="black"/>
<path d="M62.952 14.2824L64.6074 10.1855H56.0015L54.3462 14.2824H56.1012L54.0895 19.311C53.9532 19.6169 53.9233 19.9062 53.9233 20.1004C53.9233 21.1501 54.7628 21.9724 55.8343 21.9724H59.9137L61.5717 17.7693C61.7081 17.4551 61.7081 17.1857 61.7081 17.0793C61.7081 16.4179 61.3352 15.8552 60.7751 15.5683L61.2897 14.2824H62.952Z" fill="black"/>
<path d="M24.7466 20.2002H18.8954L15.3119 29.1235C15.1932 29.4199 15.1331 29.7139 15.1331 29.9971C15.1331 31.139 16.0106 32.0001 17.1744 32.0001H22.778L26.4785 22.7765L26.4904 22.746C26.5564 22.5693 26.6443 22.2979 26.6443 21.9801C26.6443 21.0956 25.9925 20.2002 24.7466 20.2002Z" fill="black"/>
<path d="M25.6172 20.2002L22.0562 29.1455C21.9349 29.4295 21.871 29.7324 21.871 30.0235C21.871 31.1244 22.7619 31.9868 23.8992 31.9868H29.5174L34.2193 20.2002H25.6172Z" fill="black"/>
<path d="M38.7132 24.3094L40.3697 20.2129H31.7628L30.1075 24.3094H31.863L29.8523 29.3368C29.7154 29.6421 29.6854 29.9322 29.6854 30.1277C29.6854 31.1775 30.5247 31.9999 31.5962 31.9999H35.6745L37.3337 27.7954C37.4696 27.4818 37.4696 27.2128 37.4696 27.1067C37.4696 26.4453 37.0967 25.8824 36.5366 25.5956L37.0514 24.3094H38.7132Z" fill="black"/>
<path d="M44.3803 20.2002H38.5283L34.9458 29.1212C34.8267 29.4174 34.7661 29.7121 34.7661 29.9971C34.7661 31.1313 35.6438 31.9868 36.8078 31.9868H42.4115L46.0991 22.7754L46.1077 22.7536C46.1748 22.5771 46.2643 22.3035 46.2643 21.967C46.2643 21.089 45.6171 20.2002 44.3803 20.2002Z" fill="black"/>
<path d="M18.1827 1.70434H16.1555C15.7373 1.70434 15.4754 1.92715 15.371 2.18868L14.272 4.94818C14.2325 5.03969 14.2196 5.11847 14.2196 5.19671C14.2196 5.4715 14.4289 5.62851 14.6774 5.62851C14.9786 5.62851 15.3178 5.43183 15.5017 4.96173L16.3256 2.77697H17.7249L15.0831 9.39498H10.4143C10.0478 9.39498 9.78625 9.17258 9.78625 8.81928C9.78625 8.72777 9.81237 8.60987 9.86475 8.47925L13.0822 0.410156H18.6796L18.1827 1.70434Z" fill="url(#paint0_linear_2640_83642)"/>
<path d="M25.3381 1.05056L24.515 3.11674C24.1877 3.94083 23.6247 4.21575 22.8928 4.46414C22.5261 4.59491 22.2908 4.92194 22.2908 5.18347C22.2908 5.40545 22.448 5.58846 22.8403 5.58846L24.1614 5.60186L22.644 9.39473H21.3626C20.9572 9.39473 20.6044 9.10681 20.6169 8.60961V8.59703L20.4473 6.45209L19.2962 9.39473H17.1257C16.7457 9.39473 16.4839 9.19858 16.4839 8.85841C16.4839 8.75379 16.5099 8.62302 16.5625 8.4924L19.8452 0.396484H24.9063C25.2596 0.396484 25.3906 0.55351 25.3906 0.763062C25.3906 0.854568 25.3778 0.945792 25.3381 1.05056ZM22.9454 1.69137C22.657 1.69137 22.3435 1.87439 22.1601 2.30592L21.9509 2.81625C21.9119 2.90774 21.8989 2.99924 21.8989 3.06462C21.8989 3.32629 22.095 3.47004 22.3435 3.47004C22.644 3.47004 22.9969 3.27362 23.1806 2.82922L23.3766 2.35844C23.4027 2.26694 23.4287 2.18842 23.4287 2.12291C23.4287 1.86111 23.2065 1.69137 22.9454 1.69137Z" fill="url(#paint1_linear_2640_83642)"/>
<path d="M32.7291 1.06395L29.3808 9.40825H28.0341L29.4597 5.8378C29.486 5.75914 29.499 5.68049 29.499 5.61525C29.499 5.34073 29.2764 5.17073 29.0145 5.17073C28.74 5.17073 28.4131 5.35373 28.2426 5.7854L26.8047 9.40825H24.7251C24.3327 9.40825 24.0846 9.15959 24.0846 8.80657C24.0846 8.70179 24.11 8.58388 24.1624 8.45298L27.3924 0.410156H32.297C32.6507 0.410156 32.7942 0.567041 32.7942 0.78902C32.7942 0.867533 32.7685 0.959039 32.7291 1.06395ZM30.3883 1.69163C30.1135 1.69163 29.7996 1.87464 29.6292 2.30617L29.4202 2.82948C29.394 2.92127 29.3808 2.9995 29.3808 3.07829C29.3808 3.3394 29.5772 3.49628 29.8383 3.49628C30.1262 3.49628 30.4795 3.28728 30.6497 2.84247L30.8328 2.37169C30.8714 2.28019 30.8848 2.21467 30.8848 2.13588C30.8848 1.86136 30.6628 1.69163 30.3883 1.69163Z" fill="url(#paint2_linear_2640_83642)"/>
<path d="M39.3461 1.32533L36.129 9.40825H34.7686L37.5675 2.41094C37.6065 2.31944 37.6197 2.22807 37.6197 2.14915C37.6197 1.87464 37.424 1.71776 37.1622 1.71776C36.8741 1.71776 36.5213 1.92715 36.3385 2.38469L33.5916 9.40825H30.5443L34.1282 0.410156H38.7964C39.163 0.410156 39.4115 0.632008 39.4115 0.985861C39.4115 1.09035 39.3987 1.20784 39.3461 1.32533Z" fill="url(#paint3_linear_2640_83642)"/>
<path d="M45.9231 1.80952L43.2943 8.32276C42.9934 9.06806 42.0649 9.40837 41.3716 9.40837H37.2782L40.8874 0.422852H44.8766C45.7397 0.422852 46.0408 0.828962 46.0408 1.28648C46.0408 1.45622 46.0012 1.6395 45.9231 1.80952ZM43.8702 1.71788H43.3595L41.8164 5.60224H42.4576C42.7448 5.60224 43.1248 5.41923 43.3075 4.96185L44.3273 2.39781C44.3536 2.3063 44.3665 2.2282 44.3665 2.16268C44.3665 1.88831 44.1312 1.71788 43.8702 1.71788Z" fill="url(#paint4_linear_2640_83642)"/>
<path d="M35.0947 11.8779H33.8911C33.5641 11.8779 33.3554 12.0609 33.277 12.2569L32.1519 15.0689C32.1128 15.1479 32.0996 15.226 32.0996 15.3045C32.0996 15.5793 32.3089 15.762 32.6095 15.762H33.0022C33.2373 15.762 33.3941 15.8927 33.3941 16.0762C33.3941 16.1283 33.3941 16.1678 33.3682 16.2201L32.0479 19.5679H28.9216C28.6203 19.5679 28.4113 19.3721 28.4113 19.0971C28.4113 19.0318 28.4242 18.9399 28.4641 18.8618L31.0273 12.4537C31.0534 12.3879 31.0667 12.3221 31.0667 12.2569C31.0667 12.0089 30.8314 11.8779 30.5699 11.8779H29.51L30.0336 10.583H35.618L35.0947 11.8779Z" fill="url(#paint5_linear_2640_83642)"/>
<path d="M38.8018 19.5547H37.455L39.1418 15.2912C39.1811 15.1993 39.1946 15.1209 39.1946 15.0554C39.1946 14.7809 38.9718 14.6239 38.7104 14.6239C38.4358 14.6239 38.1086 14.7943 37.9387 15.2257L36.2259 19.5547H34.1329C33.754 19.5547 33.4919 19.3196 33.4919 18.9663C33.4919 18.849 33.5183 18.7311 33.5705 18.6129L36.8009 10.5566H39.7961L39.0895 12.3486C39.0503 12.4399 39.0376 12.5184 39.0376 12.597C39.0376 12.8585 39.2334 13.0024 39.4824 13.0024C39.7829 13.0024 40.1359 12.8064 40.3192 12.3486L41.0251 10.5566H42.4117L38.8018 19.5547Z" fill="url(#paint6_linear_2640_83642)"/>
<path d="M48.6008 11.851H45.802C45.2661 11.851 44.9777 12.2302 44.9777 12.5439C44.9777 12.7793 45.122 12.9753 45.4492 12.9753H48.1821L47.4766 14.6627H44.6773C44.1416 14.6627 43.8402 15.042 43.8402 15.3556C43.8402 15.591 43.9972 15.7873 44.3244 15.7873H46.9793L45.488 19.554H40.8586C40.479 19.554 40.2177 19.3579 40.2177 19.018C40.2177 18.8997 40.2439 18.7823 40.2959 18.6517L43.5788 10.5693H49.1238L48.6008 11.851Z" fill="url(#paint7_linear_2640_83642)"/>
<path d="M55.4631 11.4847L54.6391 13.5641H53.2921L53.6971 12.5703C53.7368 12.4781 53.7497 12.387 53.7497 12.3085C53.7497 12.034 53.5409 11.8769 53.2782 11.8769C52.9912 11.8769 52.6513 12.0859 52.4678 12.5439L51.644 14.6494H52.8997L52.1807 16.3367H50.977L49.7215 19.5669H46.6613L50.2576 10.5693H54.9134C55.2801 10.5693 55.5412 10.791 55.5412 11.1443C55.5412 11.2491 55.5152 11.3672 55.4631 11.4847Z" fill="url(#paint8_linear_2640_83642)"/>
<path d="M61.4413 11.8779H60.2386C59.9113 11.8779 59.7022 12.0609 59.6237 12.2569L58.4988 15.0689C58.46 15.1479 58.4466 15.226 58.4466 15.3045C58.4466 15.5793 58.6556 15.762 58.9565 15.762H59.3489C59.5846 15.762 59.7413 15.8927 59.7413 16.0762C59.7413 16.1283 59.7413 16.1678 59.7149 16.2201L58.3946 19.5679H55.2682C54.9673 19.5679 54.7579 19.3721 54.7579 19.0971C54.7579 19.0318 54.7713 18.9399 54.8107 18.8618L57.3741 12.4537C57.3999 12.3879 57.4128 12.3221 57.4128 12.2569C57.4128 12.0089 57.1773 11.8779 56.9166 11.8779H55.8568L56.3801 10.583H61.9647L61.4413 11.8779Z" fill="url(#paint9_linear_2640_83642)"/>
<path d="M24.6213 21.2513L21.273 29.5949H19.9256L21.3515 26.0246C21.3775 25.9461 21.3906 25.8674 21.3906 25.8023C21.3906 25.5281 21.1678 25.3577 20.9074 25.3577C20.6316 25.3577 20.305 25.5405 20.1353 25.9723L18.6964 29.5949H16.6171C16.2249 29.5949 15.9758 29.3468 15.9758 28.9929C15.9758 28.889 16.0018 28.7711 16.055 28.6401L19.2851 20.5967H24.1892C24.5425 20.5967 24.6868 20.7542 24.6868 20.9766C24.6868 21.0546 24.6604 21.1464 24.6213 21.2513ZM22.2798 21.879C22.0056 21.879 21.6915 22.062 21.5215 22.4927L21.3121 23.0164C21.286 23.1078 21.273 23.1867 21.273 23.2649C21.273 23.5267 21.469 23.6835 21.7308 23.6835C22.0187 23.6835 22.3713 23.4739 22.5412 23.0293L22.7246 22.5589C22.764 22.4674 22.7767 22.4016 22.7767 22.3239C22.7767 22.0487 22.5543 21.879 22.2798 21.879Z" fill="url(#paint10_linear_2640_83642)"/>
<path d="M28.0063 29.5823H23.3367C22.971 29.5823 22.7096 29.3595 22.7096 29.02C22.7096 28.9148 22.7356 28.7968 22.7877 28.68L26.0056 20.5967H29.0262L27.195 25.1355C27.1563 25.2266 27.1301 25.3185 27.1301 25.3966C27.1301 25.6586 27.3393 25.815 27.6005 25.815C27.8883 25.815 28.2415 25.619 28.4245 25.1481L30.19 20.5967H31.5888L28.0063 29.5823Z" fill="url(#paint11_linear_2640_83642)"/>
<path d="M37.2119 21.904H36.0082C35.6815 21.904 35.4719 22.0874 35.3938 22.284L34.2691 25.0952C34.2301 25.1737 34.217 25.2527 34.217 25.3308C34.217 25.6052 34.4261 25.7888 34.7268 25.7888H35.119C35.3544 25.7888 35.5115 25.9188 35.5115 26.1027C35.5115 26.1548 35.5115 26.1942 35.4853 26.2464L34.164 29.5943H31.0387C30.7376 29.5943 30.5282 29.3983 30.5282 29.1241C30.5282 29.058 30.5419 28.9667 30.5806 28.8884L33.1442 22.4795C33.1702 22.4144 33.1835 22.3492 33.1835 22.284C33.1835 22.0349 32.9475 21.904 32.6864 21.904H31.6265L32.15 20.6094H37.7346L37.2119 21.904Z" fill="url(#paint12_linear_2640_83642)"/>
<path d="M44.2367 21.2513L40.9022 29.5823H36.2457C35.8528 29.5823 35.6047 29.3468 35.6047 28.993C35.6047 28.889 35.6313 28.7711 35.6832 28.6401L38.913 20.5967H43.818C44.1582 20.5967 44.3018 20.7542 44.3018 20.9634C44.3018 21.0546 44.2761 21.1464 44.2367 21.2513ZM41.9084 21.8918C41.6341 21.8918 41.3069 22.0746 41.137 22.5069L40.0905 25.1091C40.0514 25.2136 40.038 25.2924 40.038 25.3705C40.038 25.6325 40.2475 25.7761 40.4962 25.7761C40.7838 25.7761 41.1499 25.5799 41.3202 25.1355L42.3532 22.5589C42.3789 22.4674 42.393 22.4016 42.393 22.3239C42.393 22.062 42.1702 21.8918 41.9084 21.8918Z" fill="url(#paint13_linear_2640_83642)"/>
<path d="M53.2796 6.07557C53.2359 5.90708 53.0837 5.78937 52.9097 5.78937H51.4567L51.3532 4.67107C51.3383 4.50866 51.2217 4.37369 51.0633 4.33505C50.9048 4.29656 50.7393 4.36276 50.6513 4.49989L49.8237 5.78937H48.2368C48.074 5.78937 47.929 5.89263 47.8757 6.04654C47.8225 6.20052 47.8727 6.37123 48.0007 6.47186L48.9336 7.20466L48.1473 8.41529C48.052 8.56201 48.0686 8.75476 48.1876 8.8831C48.2618 8.96321 48.3641 9.00543 48.4679 9.00543C48.5304 9.00543 48.5933 8.99016 48.6509 8.95871L50.1269 8.15252L51.1233 8.92526C51.2441 9.01912 51.4089 9.03163 51.543 8.9574C51.6766 8.88317 51.7532 8.73637 51.7376 8.58426L51.6085 7.33146L53.0952 6.50537C53.2474 6.42086 53.3233 6.24413 53.2796 6.07557Z" fill="black"/>
<path d="M50.9594 5.87658H52.7606L51.0534 6.82438L51.2093 8.3284L50.0152 7.40215L48.3193 8.3284L49.2953 6.82438L48.0886 5.87658H49.8835L50.8246 4.41113L50.9594 5.87658Z" fill="white"/>
<path d="M58.8397 6.07557C58.796 5.90708 58.644 5.78937 58.4698 5.78937H57.017L56.9136 4.67114C56.8987 4.50873 56.7821 4.37376 56.6237 4.33505C56.4652 4.29656 56.2997 4.36276 56.2117 4.49989L55.384 5.78937H53.7973C53.6345 5.78937 53.4895 5.89263 53.4363 6.04654C53.3831 6.20052 53.4332 6.37123 53.5612 6.47186L54.4941 7.20471L53.7082 8.41536C53.6128 8.56208 53.6294 8.75476 53.7484 8.8831C53.8226 8.96321 53.9249 9.00543 54.0287 9.00543C54.091 9.00543 54.1541 8.99016 54.2117 8.95871L55.6877 8.15252L56.6843 8.92533C56.8051 9.01912 56.9702 9.03156 57.104 8.95733C57.2377 8.88304 57.3141 8.7361 57.2984 8.58399L57.1686 7.33141L58.6553 6.50544C58.8075 6.42086 58.8834 6.24413 58.8397 6.07557Z" fill="black"/>
<path d="M56.5198 5.87658H58.3215L56.6137 6.82438L56.77 8.3284L55.576 7.40215L53.8801 8.3284L54.8559 6.82438L53.6492 5.87658H55.4437L56.3848 4.41113L56.5198 5.87658Z" fill="white"/>
<path d="M64.4002 6.07565C64.3565 5.90709 64.2044 5.78938 64.0303 5.78938H62.5774L62.4741 4.67115C62.4592 4.50875 62.3428 4.37377 62.1843 4.33506C62.0258 4.29658 61.8603 4.36263 61.7722 4.49983L60.9444 5.78938H59.3578C59.1949 5.78938 59.0499 5.89264 58.9967 6.04655C58.9435 6.20053 58.9937 6.37125 59.1217 6.47187L60.0545 7.20473L59.2686 8.41537C59.1732 8.56209 59.1898 8.75477 59.3088 8.88311C59.383 8.96322 59.4853 9.00544 59.5891 9.00544C59.6515 9.00544 59.7145 8.99017 59.7721 8.95872L61.2482 8.15253L62.2443 8.92527C62.3652 9.01913 62.5305 9.03157 62.6639 8.95735C62.7977 8.88305 62.8742 8.73619 62.8584 8.584L62.7286 7.33148L64.2158 6.50546C64.3679 6.42087 64.4438 6.24414 64.4002 6.07565Z" fill="black"/>
<path d="M62.0811 5.87658H63.8823L62.1749 6.82438L62.3306 8.3284L61.1367 7.40215L59.4407 8.3284L60.417 6.82438L59.2096 5.87658H61.005L61.9455 4.41113L62.0811 5.87658Z" fill="white"/>
<path d="M10.7267 23.9279C10.6831 23.7593 10.5309 23.6416 10.3568 23.6416H8.90404L8.80079 22.5229C8.7858 22.3605 8.66934 22.2255 8.51087 22.1869C8.35233 22.1477 8.18694 22.2144 8.09883 22.3517L7.27092 23.6416H5.68446C5.52157 23.6416 5.37663 23.7448 5.32336 23.8988C5.27014 24.0527 5.32038 24.2235 5.44845 24.3241L6.38077 25.0566L5.5951 26.2671C5.49986 26.4139 5.51645 26.6066 5.6354 26.7349C5.70969 26.8151 5.81197 26.8572 5.91571 26.8572C5.97811 26.8572 6.04108 26.842 6.09879 26.8105L7.57474 26.004L8.57106 26.7771C8.69187 26.8706 8.85705 26.8833 8.99085 26.8091C9.12458 26.7349 9.20109 26.588 9.18533 26.4358L9.0554 25.1832L10.5423 24.3577C10.6945 24.2731 10.7703 24.0963 10.7267 23.9279Z" fill="black"/>
<path d="M8.40729 23.7292H10.2086L8.50115 24.6776L8.65707 26.1813L7.46296 25.2547L5.76694 26.1813L6.74336 24.6776L5.53625 23.7292H7.33178L8.27212 22.2637L8.40729 23.7292Z" fill="white"/>
<path d="M5.42451 23.9279C5.38083 23.7593 5.22872 23.6416 5.05462 23.6416H3.60133L3.49815 22.5229C3.48315 22.3605 3.3667 22.2255 3.20823 22.1869C3.04975 22.1477 2.8843 22.2144 2.79618 22.3517L1.96829 23.6416H0.382104C0.219204 23.6416 0.0742795 23.7448 0.0209892 23.8988C-0.0322303 24.0527 0.0180169 24.2235 0.146083 24.3241L1.0784 25.0566L0.292734 26.2671C0.197505 26.4139 0.21408 26.6066 0.333031 26.7349C0.407326 26.8151 0.509604 26.8572 0.613354 26.8572C0.67583 26.8572 0.738788 26.842 0.796423 26.8104L2.27182 26.004L3.26848 26.7771C3.38909 26.8706 3.55441 26.8833 3.68821 26.8091C3.82194 26.7349 3.89844 26.588 3.88269 26.4358L3.75275 25.1833L5.24004 24.3577C5.3923 24.2731 5.46812 24.0965 5.42451 23.9279Z" fill="black"/>
<path d="M3.10104 23.7292H4.90252L3.19489 24.6776L3.35082 26.1813L2.15642 25.2547L0.460967 26.1813L1.43696 24.6776L0.229858 23.7292H2.0251L2.96613 22.2637L3.10104 23.7292Z" fill="white"/>
<path d="M16.2916 23.9279C16.2479 23.7594 16.0958 23.6416 15.9217 23.6416H14.4688L14.3654 22.5228C14.3503 22.3606 14.2339 22.2255 14.0754 22.187C13.9167 22.1476 13.7514 22.2146 13.6634 22.3517L12.8352 23.6416H11.249C11.0861 23.6416 10.9411 23.7449 10.8879 23.8989C10.8347 24.0527 10.885 24.2235 11.013 24.3242L11.9456 25.0565L11.1595 26.2672C11.0643 26.414 11.0809 26.6067 11.1998 26.7349C11.2741 26.8151 11.3764 26.8573 11.4801 26.8573C11.5426 26.8573 11.6056 26.8421 11.6632 26.8104L13.1389 26.004L14.1354 26.7771C14.2562 26.8707 14.4211 26.8834 14.5551 26.8092C14.6888 26.7349 14.7653 26.5881 14.7496 26.436L14.6203 25.1834L16.1072 24.3578C16.2594 24.2732 16.3352 24.0964 16.2916 23.9279Z" fill="black"/>
<path d="M13.968 23.7292H15.7692L14.0614 24.6776L14.2178 26.1813L13.0236 25.2547L11.3279 26.1813L12.3043 24.6776L11.0968 23.7292H12.8921L13.8325 22.2637L13.968 23.7292Z" fill="white"/>
<path d="M41.232 31.1975L41.6073 30.2129H41.9705V31.5509H41.7339V30.4628H41.7275L41.3097 31.5509H41.1473L40.7297 30.4628H40.7231V31.5509H40.486V30.2129H40.8492L41.232 31.1975ZM40.2517 30.4079H39.8388V31.5509H39.6022V30.4079H39.1895V30.2129H40.2517V30.4079Z" fill="white"/>
<defs>
<linearGradient id="paint0_linear_2640_83642" x1="9.66619" y1="4.90257" x2="18.5595" y2="4.90257" gradientUnits="userSpaceOnUse">
<stop stop-color="#FFEC00"/>
<stop offset="1" stop-color="#D4743B"/>
</linearGradient>
<linearGradient id="paint1_linear_2640_83642" x1="16.3628" y1="4.89561" x2="25.2695" y2="4.89561" gradientUnits="userSpaceOnUse">
<stop stop-color="#FFEC00"/>
<stop offset="1" stop-color="#D4743B"/>
</linearGradient>
<linearGradient id="paint2_linear_2640_83642" x1="23.9627" y1="4.9092" x2="32.6723" y2="4.9092" gradientUnits="userSpaceOnUse">
<stop stop-color="#FFEC00"/>
<stop offset="1" stop-color="#D4743B"/>
</linearGradient>
<linearGradient id="paint3_linear_2640_83642" x1="30.4219" y1="4.90921" x2="39.2891" y2="4.90921" gradientUnits="userSpaceOnUse">
<stop stop-color="#FFEC00"/>
<stop offset="1" stop-color="#D4743B"/>
</linearGradient>
<linearGradient id="paint4_linear_2640_83642" x1="37.1555" y1="4.91561" x2="45.9181" y2="4.91561" gradientUnits="userSpaceOnUse">
<stop stop-color="#FFEC00"/>
<stop offset="1" stop-color="#D4743B"/>
</linearGradient>
<linearGradient id="paint5_linear_2640_83642" x1="28.2895" y1="15.0754" x2="35.4962" y2="15.0754" gradientUnits="userSpaceOnUse">
<stop stop-color="#FFEC00"/>
<stop offset="1" stop-color="#D4743B"/>
</linearGradient>
<linearGradient id="paint6_linear_2640_83642" x1="33.3697" y1="15.0557" x2="42.2895" y2="15.0557" gradientUnits="userSpaceOnUse">
<stop stop-color="#FFEC00"/>
<stop offset="1" stop-color="#D4743B"/>
</linearGradient>
<linearGradient id="paint7_linear_2640_83642" x1="40.0947" y1="15.0617" x2="49.0009" y2="15.0617" gradientUnits="userSpaceOnUse">
<stop stop-color="#FFEC00"/>
<stop offset="1" stop-color="#D4743B"/>
</linearGradient>
<linearGradient id="paint8_linear_2640_83642" x1="46.5378" y1="15.0681" x2="55.4177" y2="15.0681" gradientUnits="userSpaceOnUse">
<stop stop-color="#FFEC00"/>
<stop offset="1" stop-color="#D4743B"/>
</linearGradient>
<linearGradient id="paint9_linear_2640_83642" x1="54.6347" y1="15.0754" x2="61.8414" y2="15.0754" gradientUnits="userSpaceOnUse">
<stop stop-color="#FFEC00"/>
<stop offset="1" stop-color="#D4743B"/>
</linearGradient>
<linearGradient id="paint10_linear_2640_83642" x1="15.8547" y1="25.0958" x2="24.5658" y2="25.0958" gradientUnits="userSpaceOnUse">
<stop stop-color="#FFEC00"/>
<stop offset="1" stop-color="#D4743B"/>
</linearGradient>
<linearGradient id="paint11_linear_2640_83642" x1="22.5879" y1="25.0895" x2="31.4672" y2="25.0895" gradientUnits="userSpaceOnUse">
<stop stop-color="#FFEC00"/>
<stop offset="1" stop-color="#D4743B"/>
</linearGradient>
<linearGradient id="paint12_linear_2640_83642" x1="30.4064" y1="25.1019" x2="37.6129" y2="25.1019" gradientUnits="userSpaceOnUse">
<stop stop-color="#FFEC00"/>
<stop offset="1" stop-color="#D4743B"/>
</linearGradient>
<linearGradient id="paint13_linear_2640_83642" x1="35.4821" y1="25.0895" x2="44.1791" y2="25.0895" gradientUnits="userSpaceOnUse">
<stop stop-color="#FFEC00"/>
<stop offset="1" stop-color="#D4743B"/>
</linearGradient>
</defs>
</svg>
