<svg width="123" height="32" viewBox="0 0 123 32" fill="none" xmlns="http://www.w3.org/2000/svg">
<path d="M108.973 0.0077828L108.924 0H108.874L14.1545 0.000758324C14.0155 0.00818192 0.209495 0.916733 0.0046681 15.7238C-0.00195726 15.8435 -0.604106 30.1416 14.5331 31.9953L108.694 32C108.863 31.9906 121.907 31.0186 122.397 16.1093C122.408 16.0177 123.714 2.45589 108.973 0.0077828Z" fill="white"/>
<path d="M30.6693 25.3174C29.3911 26.1188 26.8062 26.2934 24.3235 26.2934H15.4453C12.8628 26.2934 11.1572 25.9932 9.0996 24.4919C7.24394 23.1152 7.27004 19.2862 7.27004 17.4103V14.0564C7.27004 10.1276 8.14722 8.27501 9.42623 7.32359C11.1318 6.04789 14.6438 5.97266 15.8219 5.97266H25.554C26.0046 5.97266 29.4156 6.17301 30.4692 6.87378C32.4003 8.17483 32.8023 9.47587 32.8023 11.5034V12.8048H26.857C26.9586 12.1036 26.9071 11.7287 26.331 11.3031C25.7789 10.9024 24.7008 10.7527 23.6222 10.7527H17.1763C16.6489 10.7527 15.3452 10.6526 14.5937 11.153C13.8153 11.678 13.4887 12.3285 13.4887 13.2554V18.0608C13.4887 19.0617 13.5897 19.812 14.2418 20.588C14.6678 21.0877 15.9982 21.4638 16.6242 21.4638H24.4245C25.3531 21.4638 26.08 21.2888 26.5805 20.6629C27.0326 20.1125 27.2096 19.612 27.108 18.686H19.3085V14.4816H32.9262V20.8632C32.9262 22.8151 32.5758 24.1419 30.6693 25.3174Z" fill="black"/>
<path d="M49.1807 10.7527V26.2185H42.9104V10.7527H34.1323V5.97266H58.0843V10.7527H49.1807Z" fill="black"/>
<path d="M79.1488 19.8193C79.1488 20.3548 79.0397 20.7134 78.5392 21.1418C78.0372 21.5346 77.1057 21.5346 76.6395 21.5346H69.259C68.9004 21.5346 68.0764 21.5346 67.6469 21.1418C67.2875 20.8202 67.1449 20.4266 67.1449 19.9261V19.3539C67.1815 18.7108 67.4669 18.1745 67.933 17.9243C68.3984 17.6382 69.4375 17.5664 69.9036 17.5664H76.5327C77.2842 17.5664 78.0372 17.6741 78.5026 17.996C78.8612 18.2454 79.1488 18.6391 79.1488 19.0686V19.8193ZM86.6713 26.2184V12.1686C86.6713 10.8812 86.135 8.34232 84.5225 7.05532C82.3352 5.33959 78.1448 5.30371 75.2422 5.30371H72.1966C69.975 5.30371 63.706 5.44675 61.8063 7.69962C60.9818 8.59332 60.5881 9.98752 60.5522 11.7032V12.0969H68.1131C68.1131 12.0969 67.933 10.8454 68.686 10.5948C69.0446 10.4521 70.1184 10.4163 70.6204 10.4163H75.9232C76.9623 10.4163 77.8572 10.4163 78.5392 11.2024C78.8253 11.5961 79.1122 11.9188 79.1122 12.4539V14.9207C78.5743 14.5275 78.2516 14.2059 77.6428 13.9557C76.21 13.3118 75.0637 13.1692 72.7345 13.1692H71.3009C68.9004 13.1692 64.53 13.3477 62.7012 14.2776C60.6232 15.3495 59.8717 17.209 59.8351 19.4615V20.319C59.8717 22.0714 60.1227 23.6803 61.9139 25.2171C63.3474 26.4332 66.6078 26.2184 69.6526 26.2184H72.3767C73.4501 26.2184 75.6008 26.4332 77.3918 25.4319C78.3592 24.8597 79.2907 23.8947 79.3632 23.8588V26.2184H86.6713Z" fill="black"/>
<path d="M96.3239 21.6452C95.9489 21.6475 95.9041 21.6432 95.7868 21.5099C95.7868 21.5002 95.6913 21.1136 95.6913 21.1136V20.8883C95.7143 20.3586 96.0191 19.9598 96.5055 19.8273C96.509 19.8258 96.7515 19.7388 96.7515 19.7388C96.9397 19.6644 97.075 19.6106 97.8136 19.5553L107.293 18.9044L107.569 18.8907C108.593 18.8459 111.315 18.7258 112.615 17.2892C113.789 15.9176 113.925 14.3017 113.925 13.2052V12.1295C113.925 10.4453 113.714 8.34099 112.075 7.00682C110.714 5.87807 108.052 5.76739 106.587 5.80208L97.4027 5.80363C95.9513 5.79545 92.5436 5.90888 91.2012 7.13545C89.8402 8.36593 89.7341 10.0817 89.7341 10.5778V13.65H95.7665V12.1295C95.7665 11.6142 95.9271 11.2439 96.3044 10.89C96.808 10.4796 97.4156 10.3958 98.2306 10.3958H105.754C106.464 10.3958 107.052 10.5167 107.369 10.7271C107.829 11.0717 107.868 11.5098 107.868 11.9284V12.4542C107.868 12.9655 107.745 13.4348 107.54 13.7096C107.351 14.0019 106.784 14.2112 106.126 14.2373C106.121 14.2373 96.6653 15.0134 96.6653 15.0134C94.1857 15.2039 91.8782 15.4694 90.8925 16.6055C90.1083 17.5262 89.6593 18.7126 89.6593 19.8624V26.3379H114.302V21.6448L96.3239 21.6452Z" fill="#B12A30"/>
</svg>
