<svg width="259" height="32" viewBox="0 0 259 32" fill="none" xmlns="http://www.w3.org/2000/svg">
<path d="M74.4189 0H66.4239V4.39823H64.4392C63.2724 4.39823 62.2 4.73741 61.2545 5.40608C61.0097 5.57316 60.7927 5.76019 60.5913 5.95601C60.3846 5.7532 60.1598 5.55971 59.905 5.3866C58.9874 4.73741 57.915 4.39823 56.7479 4.39823C56.0082 4.39823 55.4075 4.54297 54.7634 4.64556V4.39823H44.4902V5.03673C43.7115 4.62327 42.847 4.39823 41.9173 4.39823H34.7799C33.6119 4.39823 32.5406 4.73741 31.594 5.40608C31.3492 5.57316 31.1322 5.76019 30.9318 5.95601C30.7239 5.7532 30.5002 5.56061 30.2457 5.3866C29.3266 4.73741 28.2554 4.39823 27.0874 4.39823H5.11931C3.95227 4.39823 2.88102 4.73741 1.93437 5.40518C0.696282 6.25252 0 7.49892 0 8.89477V22.0639C0 22.4263 0.171018 22.7377 0.263345 23.0755H0V32H12.2577C13.3345 32 14.3401 31.6863 15.3325 31.0431L15.3814 31.0116C17.0311 29.8816 17.3773 28.4978 17.3773 27.5368V26.5243H32.2067V25.8616C33.0313 26.2932 33.8933 26.5243 34.7799 26.5243H61.8675V25.8616C62.6916 26.2932 63.5526 26.5243 64.4392 26.5243H76.6972V0H74.4189Z" fill="black"/>
<path d="M152.304 5.50868V4.39823H131.383C130.218 4.39823 129.145 4.73651 128.198 5.40423C127.954 5.57316 127.737 5.76019 127.534 5.95739C127.327 5.7532 127.104 5.56247 126.85 5.38755C125.929 4.73741 124.858 4.39823 123.691 4.39823H116.552C115.384 4.39823 114.312 4.73879 113.366 5.40608C113.122 5.57316 112.906 5.76019 112.705 5.95739C112.497 5.7532 112.272 5.55971 112.018 5.3866C111.1 4.73879 110.029 4.39823 108.86 4.39823H106.876V0H96.6032V5.50868H92.0468V4.39823H81.7724V5.50868H80.3519V14.4304H81.7724V22.0639C81.7724 23.0268 82.1195 24.411 83.7715 25.5386C84.8093 26.211 85.8161 26.5243 86.8917 26.5243H94.0301C94.9157 26.5243 95.7779 26.2955 96.6032 25.8616V26.5243H113.979V25.8616C114.803 26.2932 115.665 26.5243 116.552 26.5243H123.691C124.576 26.5243 125.437 26.2955 126.263 25.8616V26.5243H136.538V18.8314H142.029V22.0639C142.029 23.0249 142.377 24.411 144.029 25.5386C145.067 26.211 146.072 26.5243 147.15 26.5243H154.287C155.389 26.5243 156.455 26.1841 157.455 25.5164C158.715 24.6802 159.408 23.4542 159.408 22.0639V5.50868H152.304Z" fill="black"/>
<path d="M224.392 5.38776C223.471 4.73762 222.4 4.39844 221.232 4.39844H214.094C212.925 4.39844 211.854 4.739 210.908 5.4063C210.861 5.4388 210.822 5.47548 210.776 5.50889H204.418V4.39844H178.379V5.03694C177.601 4.62348 176.737 4.39844 175.806 4.39844H168.668C167.499 4.39844 166.428 4.739 165.482 5.4063C164.246 6.25178 163.548 7.49913 163.548 8.89498V14.4306H163.716C163.608 14.8199 163.548 15.18 163.548 15.445V22.0641C163.548 23.452 164.241 24.6804 165.499 25.5194C166.5 26.1867 167.567 26.5245 168.668 26.5245H180.925V25.8618C181.75 26.2934 182.61 26.5245 183.498 26.5245H190.637C191.738 26.5245 192.804 26.1867 193.806 25.5166C194.273 25.2057 194.661 24.8405 194.965 24.4353C195.255 24.8135 195.629 25.188 196.141 25.537C197.182 26.2112 198.188 26.5245 199.263 26.5245H206.402C207.502 26.5245 208.568 26.1867 209.57 25.5194C209.822 25.3523 210.042 25.1653 210.248 24.9695C210.453 25.1653 210.676 25.3523 210.927 25.5194C211.925 26.1843 212.992 26.5245 214.094 26.5245H221.232C222.334 26.5245 223.4 26.1867 224.402 25.5166C225.659 24.6804 226.352 23.452 226.352 22.0641V8.89498C226.352 7.50008 225.656 6.25459 224.392 5.38776Z" fill="black"/>
<path d="M256.626 3.77783H228.718V13.99H231.373V16.3659H228.718V26.5758H258.905V16.3659H256.322V13.99H258.905V3.77783H256.626Z" fill="black"/>
<path d="M14.0938 29.1313C13.504 29.5118 12.9156 29.7211 12.2571 29.7211H2.27759V25.3535H9.3805V24.2459H5.11869C4.46 24.2459 3.83727 24.037 3.21312 23.6208C2.58897 23.2069 2.27759 22.6862 2.27759 22.0635V8.89437C2.27759 8.27164 2.58897 7.71758 3.24748 7.26559C3.83727 6.85028 4.46 6.67627 5.11869 6.67627H15.0982V27.5364C15.0982 28.1619 14.7511 28.6798 14.0938 29.1313ZM9.3805 11.0768H7.99439V19.8788H9.3805V11.0768Z" fill="white" stroke="white" stroke-width="0.2879"/>
<path d="M24.2105 24.2459V17.6625H22.8244V24.2459H17.1067V6.67627H27.0862C27.7449 6.67627 28.369 6.85028 28.9575 7.26559C29.6159 7.71758 29.9273 8.27164 29.9273 8.89437V14.3701C29.9273 14.6815 29.7895 14.9594 29.477 15.133C29.1654 15.34 28.854 15.4444 28.5068 15.4444C28.854 15.4778 29.1654 15.5822 29.477 15.7557C29.7895 15.9632 29.9273 16.2407 29.9273 16.5525V24.2459H24.2105ZM24.2105 11.0768H22.8244V13.2615H24.2105V11.0768Z" fill="white" stroke="white" stroke-width="0.2879"/>
<path d="M34.7788 24.2459C34.1201 24.2459 33.4962 24.037 32.8732 23.6208C32.2493 23.2069 31.9375 22.6862 31.9375 22.0635V15.4444C31.9375 14.855 32.2837 14.3339 32.9424 13.8852C33.5308 13.4689 34.1201 13.2615 34.7788 13.2615H39.0406V11.0768H37.6545V12.152H31.9375V8.89437C31.9375 8.27164 32.2493 7.71758 32.9076 7.26559C33.4962 6.85028 34.1201 6.67627 34.7788 6.67627H41.9163C42.5748 6.67627 43.1989 6.85028 43.7873 7.26559C44.4458 7.71758 44.7583 8.27164 44.7583 8.89437V24.2459H34.7788ZM39.0406 17.6625H37.6545V19.8788H39.0406V17.6625Z" fill="white" stroke="white" stroke-width="0.2879"/>
<path d="M53.8712 24.2459V11.0768H52.4851V24.2459H46.7683V6.67627H52.4851V7.78672C53.4206 7.05865 54.8422 6.67627 56.7478 6.67627C57.4065 6.67627 58.0292 6.85028 58.619 7.26559C59.2775 7.71758 59.5889 8.27164 59.5889 8.89437V24.2459H53.8712Z" fill="white" stroke="white" stroke-width="0.2879"/>
<path d="M64.4384 24.2461C63.7811 24.2461 63.1569 24.0373 62.5328 23.6211C61.91 23.2072 61.5973 22.6865 61.5973 22.0637V8.89463C61.5973 8.2719 61.91 7.71784 62.5674 7.26585C63.1569 6.85054 63.7811 6.67653 64.4384 6.67653H68.7011V2.27783H74.4181V24.2461H64.4384ZM68.7011 11.077H67.315V19.879H68.7011V11.077Z" fill="white" stroke="white" stroke-width="0.2879"/>
<path d="M95.9354 23.6208C95.3115 24.037 94.6885 24.2459 94.0298 24.2459H86.8914C86.2329 24.2459 85.6443 24.037 85.0547 23.6565C84.3965 23.2069 84.0503 22.6862 84.0503 22.0635V12.152H82.6296V7.78672H84.0503V6.67627H89.7682V7.78672H96.8709V12.152H89.7682V19.8788H91.1889V13.2615H96.8709V22.0635C96.8709 22.6862 96.5595 23.2069 95.9354 23.6208Z" fill="white" stroke="white" stroke-width="0.2879"/>
<path d="M105.985 24.2461V11.077H104.599V24.2461H98.8823V2.27783H104.599V6.67653H108.861C109.519 6.67653 110.143 6.85054 110.732 7.26585C111.39 7.71784 111.702 8.2719 111.702 8.89463V24.2461H105.985Z" fill="white" stroke="white" stroke-width="0.2879"/>
<path d="M125.596 23.6208C124.972 24.037 124.348 24.2459 123.691 24.2459H116.552C115.894 24.2459 115.27 24.037 114.647 23.6208C114.023 23.2069 113.711 22.6862 113.711 22.0635V8.89437C113.711 8.27164 114.023 7.71758 114.681 7.26559C115.27 6.85028 115.894 6.67627 116.552 6.67627H123.691C124.348 6.67627 124.972 6.85028 125.562 7.26559C126.219 7.71758 126.532 8.27164 126.532 8.89437V17.6625H119.428V19.8788H120.814V18.7706H126.532V22.0635C126.532 22.6862 126.219 23.2069 125.596 23.6208ZM120.814 11.0768H119.428V13.2615H120.814V11.0768Z" fill="white" stroke="white" stroke-width="0.2879"/>
<path d="M134.044 16.6658V24.3592H128.325V9.00765C128.325 8.38492 128.636 7.83086 129.295 7.37887C129.886 6.96356 130.508 6.78955 131.167 6.78955H141.147V11.1901H134.044V12.2652H141.147V16.6658H134.044Z" fill="white" stroke="white" stroke-width="0.2879"/>
<path d="M156.193 23.6208C155.569 24.037 154.946 24.2459 154.287 24.2459H147.149C146.491 24.2459 145.901 24.037 145.313 23.6565C144.655 23.2069 144.307 22.6862 144.307 22.0635V12.152H142.887V7.78672H144.307V6.67627H150.025V7.78672H157.129V12.152H150.025V19.8788H151.445V13.2615H157.129V22.0635C157.129 22.6862 156.816 23.2069 156.193 23.6208Z" fill="white" stroke="white" stroke-width="0.2879"/>
<path d="M168.667 24.2459C168.009 24.2459 167.385 24.037 166.761 23.6208C166.138 23.2069 165.825 22.6862 165.825 22.0635V15.4444C165.825 14.855 166.172 14.3339 166.831 13.8852C167.42 13.4689 168.009 13.2615 168.667 13.2615H172.929V11.0768H171.543V12.152H165.825V8.89437C165.825 8.27164 166.138 7.71758 166.796 7.26559C167.385 6.85028 168.009 6.67627 168.667 6.67627H175.805C176.464 6.67627 177.088 6.85028 177.676 7.26559C178.335 7.71758 178.646 8.27164 178.646 8.89437V24.2459H168.667ZM172.929 17.6625H171.543V19.8788H172.929V17.6625Z" fill="white" stroke="white" stroke-width="0.2879"/>
<path d="M192.541 23.6208C191.917 24.037 191.293 24.2459 190.636 24.2459H183.497C182.839 24.2459 182.214 24.037 181.592 23.6208C180.968 23.2069 180.656 22.6862 180.656 22.0635V6.67627H186.373V19.8788H187.759V6.67627H193.477V22.0635C193.477 22.6862 193.164 23.2069 192.541 23.6208Z" fill="white" stroke="white" stroke-width="0.2879"/>
<path d="M208.307 23.6208C207.682 24.037 207.06 24.2459 206.401 24.2459H199.262C198.604 24.2459 198.016 24.037 197.426 23.6565C196.769 23.2069 196.421 22.6862 196.421 22.0635V12.152H195.001V7.78672H196.421V6.67627H202.139V7.78672H209.242V12.152H202.139V19.8788H203.56V13.2615H209.242V22.0635C209.242 22.6862 208.931 23.2069 208.307 23.6208Z" fill="white" stroke="white" stroke-width="0.2879"/>
<path d="M223.138 23.6208C222.514 24.037 221.89 24.2459 221.232 24.2459H214.094C213.435 24.2459 212.811 24.037 212.189 23.6208C211.564 23.2069 211.253 22.6862 211.253 22.0635V8.89437C211.253 8.27164 211.564 7.71758 212.223 7.26559C212.811 6.85028 213.435 6.67627 214.094 6.67627H221.232C221.89 6.67627 222.514 6.85028 223.103 7.26559C223.761 7.71758 224.074 8.27164 224.074 8.89437V22.0635C224.074 22.6862 223.761 23.2069 223.138 23.6208ZM218.355 11.0768H216.969V19.8788H218.355V11.0768Z" fill="white" stroke="white" stroke-width="0.2879"/>
<path d="M230.995 18.6438V24.2972H256.626V18.6438H254.043V11.7115H256.626V6.05615H230.995V11.7115H233.65V18.6438H230.995ZM248.211 18.6438H246.761V11.7115H248.211V18.6438ZM239.48 11.7115H240.931V18.6438H239.48V11.7115Z" fill="white"/>
</svg>
