<svg width="245" height="34" viewBox="0 0 245 34" fill="none" xmlns="http://www.w3.org/2000/svg">
<path d="M31.2669 6.33826C31.3106 6.31075 31.3614 6.30158 31.406 6.27578C31.4813 6.23078 31.5813 6.17124 31.5813 6.17124L31.2669 6.33826ZM133.276 23.9961C133.276 23.9961 133.265 23.9062 133.264 23.9053L133.276 23.9961ZM57.8224 6.53274C57.8274 6.53649 57.8307 6.54148 57.8361 6.54485C57.8432 6.54984 57.8507 6.55317 57.8578 6.55859L57.8224 6.53274ZM26.9003 5.59855C26.9003 5.59855 26.9769 5.60563 27.0373 5.61104C27.0715 5.61271 27.1219 5.61603 27.1219 5.61603L26.9003 5.59855ZM208.798 5.50109V8.22831C208.568 7.64188 208.14 6.998 207.355 6.43571C206.528 5.82514 205.554 5.50357 204.486 5.50067H197.336L197.276 5.50357C196.311 5.51692 195.426 5.80804 194.632 6.34781C194.575 6.38905 194.365 6.54234 194.221 6.64563H187.828V4.75307H178.637V5.46109L163.528 5.48361V6.1808C162.765 5.72389 161.924 5.49111 161.029 5.49111H153.926C152.858 5.49111 151.882 5.81265 151.026 6.44778C149.646 7.43073 149.381 8.70646 149.36 9.44075V6.7964H142.341V4.97629H133.203V5.6223H122.769C121.705 5.6223 120.732 5.94132 119.875 6.57066C119.626 6.74974 119.415 6.93719 119.233 7.12919C119.05 6.93552 118.838 6.7456 118.587 6.564C117.747 5.94384 116.773 5.6223 115.712 5.6223H108.571L108.499 5.62687C107.239 5.70351 105.973 6.21082 105.122 7.09627C104.953 6.9255 104.762 6.7581 104.539 6.59731L104.284 6.42322L104.252 6.40198C103.488 5.91761 102.634 5.66854 101.714 5.66018C101.713 5.6606 100.445 5.66018 99.2044 5.66018V1L90.0598 1.00081L90.0615 6.7964H85.0093C85.0093 6.30866 85.0089 3.33489 85.0089 3.33489H75.8684V6.7964H73.6822V1.01041H64.5063V5.57441H62.0044C60.9578 5.57441 59.9973 5.88801 59.1477 6.50067C59.0831 6.54899 58.9519 6.64772 58.9519 6.64772L58.8057 6.76309L58.6158 6.93552L58.4892 7.06296C58.4892 7.06296 58.0798 6.72061 57.8361 6.54485C56.984 5.91799 56.0177 5.59855 54.9623 5.59855C54.0543 5.59855 53.2401 5.70018 52.4933 5.86387V5.59855H43.3578V6.26413C42.5211 5.77972 41.5461 5.53274 40.6135 5.6052L40.7951 5.59855H33.8437C32.9624 5.59855 32.1474 5.83845 31.406 6.27578C31.2411 6.37366 31.0236 6.50319 31.0236 6.50319C31.0057 6.51568 30.4326 7.00171 30.4326 7.00171L30.3322 7.0871C29.8266 6.5469 29.161 6.11499 28.3643 5.85009C28.3643 5.85009 28.331 5.83888 28.3035 5.82971C28.2985 5.82847 27.5987 5.65937 27.5987 5.65937C27.6013 5.66018 27.2231 5.62729 27.0373 5.61104C26.949 5.60605 26.8174 5.59855 26.8174 5.59855L5.33731 5.57189L5.21738 5.58439C2.02951 5.91386 0.94971 8.23582 1.00179 9.71691L1.00034 9.63442V23.2997C1.00034 23.8961 1.14799 24.4593 1.42244 24.9691H1.00034V33H12.6781C13.1933 33 13.7002 32.9159 14.1846 32.7493C14.6165 32.6002 15.0313 32.3902 15.457 32.107L15.4941 32.0829L15.5386 32.0504C16.0555 31.6772 16.4608 31.2532 16.7431 30.7892L16.7827 30.7234L16.8873 30.5227L17.0305 30.1953C17.0384 30.1728 17.1159 29.9687 17.1159 29.9687L17.18 29.6805L17.2159 29.4864L17.2446 29.2182L17.2505 29.0357V27.3106L31.4418 27.3056C31.4418 27.3056 31.4409 27.0474 31.4393 26.6184C32.2202 27.0624 33.0091 27.2806 33.8437 27.2806H59.5105V26.5543C59.8299 26.71 60.4871 27.0266 60.4871 27.0266C60.9799 27.1965 61.4797 27.2806 62.0049 27.2806H73.6822V14.814H75.9438V23.3489C75.9438 25.8804 78.195 27.2806 80.4187 27.3556L80.4578 27.3564H87.5566C88.4717 27.3423 89.2822 27.1015 90.0673 26.6309V27.3564H106.222V26.6867C106.92 27.0732 107.709 27.2939 108.47 27.3506L108.556 27.3564H115.71C116.581 27.3564 117.398 27.124 118.197 26.6509V27.3564H127.374V19.3646H133.203V23.3414L133.214 23.4922C133.214 23.4922 133.264 23.8995 133.266 23.9086C133.68 26.0095 135.567 27.1323 137.255 27.3131L137.356 27.324L138.269 27.3414H144.921L144.914 27.3389L145.33 27.2998C145.823 27.229 147.542 26.8874 148.602 25.5138L148.654 25.4456L149.029 24.8691C149.212 24.5117 149.33 24.1286 149.385 23.7246C149.51 24.7608 150.071 25.6521 151.028 26.321C151.968 26.9733 152.913 27.2873 153.925 27.2873H165.57V26.5759L165.674 26.6342C165.674 26.6342 165.664 26.6017 165.664 26.6009C165.724 26.6392 165.762 26.6842 165.828 26.72L165.888 26.7534L166.121 26.8658C166.124 26.8683 166.543 27.0407 166.543 27.0407L166.563 27.0449C167.067 27.219 167.567 27.3031 168.091 27.3031H175.185C175.697 27.3031 176.208 27.2181 176.701 27.0499C177.195 26.8749 177.651 26.635 178.085 26.3277C178.552 26.0003 178.918 25.6163 179.191 25.1898C179.854 26.3427 181.134 27.3256 183.201 27.3256C183.202 27.3256 190.427 27.3214 190.427 27.3214L190.487 27.3181C191.692 27.2556 192.982 26.7708 193.845 25.8454C194.69 26.695 195.925 27.1698 197.109 27.2706L197.189 27.2781L197.142 27.2731L197.646 27.2814H204.503L204.563 27.279C205.55 27.2631 206.469 26.9491 207.373 26.3194C208.055 25.8487 208.538 25.2614 208.806 24.5867V27.2706L221.188 27.259L221.184 18.2651H219.45V14.2634H220.762C221.506 16.8332 224.522 27.2498 224.522 27.2498H233.878C233.878 27.2498 236.894 16.8332 237.638 14.2634H239.766V5.50109H208.798ZM30.3443 7.09878C30.3405 7.09546 30.3368 7.09128 30.3331 7.08753L30.3926 7.03797L30.3443 7.09878ZM61.6892 10.524L61.727 10.4808C61.7158 10.4941 61.6892 10.524 61.6892 10.524ZM197.193 10.2767C197.192 10.2783 197.191 10.2792 197.191 10.2792C197.191 10.2792 197.201 10.2683 197.201 10.2679C197.199 10.27 197.193 10.2767 197.193 10.2767ZM210.545 18.2651H209.052V14.2642H210.547C210.546 15.8436 210.546 16.6866 210.545 18.2651ZM59.1177 6.51943C59.1273 6.51235 59.1381 6.50775 59.1477 6.50067C59.1647 6.48817 59.1993 6.46237 59.1993 6.46237C59.1993 6.46237 59.1385 6.50485 59.1177 6.51943ZM194.463 6.45405C194.518 6.41405 194.576 6.38573 194.632 6.34781C194.643 6.3395 194.688 6.30661 194.688 6.30661L194.463 6.45405Z" fill="black" stroke="black" stroke-width="0.75"/>
<path d="M229.786 12.6299H230.74C230.384 13.8536 229.481 16.9731 229.196 17.9553C228.912 16.9731 228.01 13.8536 227.655 12.6299H228.609V7.09961L220.265 7.10089V12.6299H221.988C222.267 13.5903 225.747 25.6171 225.747 25.6171H232.647C232.647 25.6171 236.129 13.5903 236.407 12.6299H238.129V7.10089L229.786 7.09961V12.6299Z" fill="black"/>
<path d="M229.198 17.9653L228.709 18.8733H229.745L229.198 17.9653Z" fill="white"/>
<path d="M229.198 17.9653L228.709 18.8733H229.688L229.198 17.9653Z" fill="#C4C3C2"/>
<path d="M226.69 11.9067L227.652 12.6298H228.606L227.882 11.9067H226.69Z" fill="#808082"/>
<path d="M227.883 11.9068L228.606 12.6299V7.09961L227.883 7.82265V11.9068Z" fill="#777677"/>
<path d="M228.726 18.8939L229.196 17.9651C228.914 16.9922 228.007 13.8576 227.652 12.6298L226.69 11.9067L228.726 18.8939Z" fill="#777677"/>
<path d="M222.532 11.9067L221.988 12.6298C222.266 13.5902 225.746 25.617 225.746 25.617L226.288 24.8932L222.532 11.9067Z" fill="white"/>
<path d="M220.988 11.9067L220.265 12.6298H221.988L222.532 11.9067H220.988Z" fill="#808082"/>
<path d="M220.988 7.81038L220.265 7.10107V12.6301L220.988 11.907V7.81038Z" fill="white"/>
<path d="M231.701 11.9067L230.739 12.6298H229.785L230.509 11.9067H231.701Z" fill="#828383"/>
<path d="M230.509 11.9068L229.785 12.6299V7.09961L230.509 7.82265V11.9068Z" fill="white"/>
<path d="M229.666 18.8839L229.195 17.9651C229.477 16.9922 230.385 13.8576 230.74 12.6298L231.703 11.9067L229.666 18.8839Z" fill="white"/>
<path d="M235.869 11.9067L236.413 12.6298C236.134 13.5902 232.654 25.617 232.654 25.617L232.11 24.8932L235.869 11.9067Z" fill="#777677"/>
<path d="M237.412 11.9067L238.135 12.6298H236.412L235.868 11.9067H237.412Z" fill="#808082"/>
<path d="M237.407 7.82411L238.131 7.10107V12.6301L237.407 11.907V7.82411Z" fill="#777677"/>
<path d="M225.745 25.617L226.287 24.8931H232.108L232.652 25.617H225.745Z" fill="#BABBBA"/>
<path d="M211.165 24.9116L210.433 25.6338H219.556L218.831 24.9116H211.165Z" fill="#BABBBA"/>
<path d="M218.828 24.9118L219.552 25.634L219.542 19.9038L218.821 20.6219L218.828 24.9118Z" fill="#777677"/>
<path d="M218.822 20.6219L219.543 19.9038H217.809L217.086 20.6219H218.822Z" fill="#BABCBD"/>
<path d="M212.901 20.6216L212.181 19.8994H210.433L211.21 20.6216H212.901Z" fill="#BABCBD"/>
<path d="M217.086 20.6216L217.809 19.9035V12.6123L217.086 11.8984V20.6216Z" fill="#777677"/>
<path d="M211.158 20.6216H211.21L210.433 19.8994V25.6338L211.165 24.9115L211.158 20.6216Z" fill="white"/>
<path d="M211.159 11.9043L210.437 12.6265H212.184L212.907 11.9043H211.159Z" fill="#808082"/>
<path d="M211.174 7.83766L210.437 7.09961V12.6286L211.154 11.9098L211.174 7.83766Z" fill="white"/>
<path d="M212.904 20.6219L212.92 11.8979L212.184 12.6289V19.8998L212.904 20.6219Z" fill="white"/>
<path d="M218.836 11.9186L218.833 7.82107L219.554 7.10303V12.6121L218.836 11.9186Z" fill="#777677"/>
<path d="M217.098 11.9076L217.812 12.6123H219.557L218.832 11.9067L217.098 11.9076Z" fill="#808082"/>
<path d="M227.881 7.82265L228.604 7.09961L220.26 7.10089L220.994 7.82392L227.881 7.82265Z" fill="#C4C3C2"/>
<path d="M230.513 7.82265L229.789 7.09961L238.133 7.10089L237.41 7.82392L230.513 7.82265Z" fill="#C4C3C2"/>
<path d="M218.83 7.82655L219.555 7.10352H210.436L211.168 7.83572L218.83 7.82655Z" fill="#C4C3C2"/>
<path d="M232.105 24.8934L235.866 11.9069H237.408V7.82403L230.511 7.82275V11.9069H231.703L229.685 18.8733H228.711L226.695 11.9069H227.887V7.82275L220.99 7.82403V11.9069H222.533L226.292 24.8934H232.105Z" fill="black"/>
<path d="M211.162 20.6215V24.9114L218.83 24.9048L218.828 20.6215H217.093V11.9046L218.829 11.9067L218.826 7.82666H211.138V11.9042H212.906V20.6215H211.162Z" fill="black"/>
<path d="M232.106 24.8934L235.866 11.9069H237.409V7.82403L230.511 7.82275V11.9069H231.703L229.685 18.8733H228.712L226.695 11.9069H227.887V7.82275L220.99 7.82403V11.9069H222.533L226.292 24.8934H232.106Z" stroke="white" stroke-width="0.5576"/>
<path d="M212.9 20.622H211.161V24.9119L218.829 24.9052L218.827 20.622H217.092V11.905H218.829V8.1449V7.82422H211.154V11.908H212.903L212.9 20.622Z" stroke="white" stroke-width="0.5576"/>
<path d="M201.612 11.8242L202.526 10.9116H199.318L200.23 11.8242H201.612Z" fill="#BBBDBF"/>
<path d="M181.292 12.0562H179.911L178.996 12.97H180.411L181.292 12.0895V12.0562Z" fill="#BBBDBF"/>
<path d="M185.187 12.0562L186.103 12.97H193.168L192.256 12.0562H185.187Z" fill="#BBBDBF"/>
<path d="M159.064 10.9048H155.875L156.79 11.8186H158.17L159.064 10.9248V10.9048Z" fill="#BBBDBF"/>
<path d="M152.01 12.0244L151.097 12.939H156.786L155.871 12.0244H152.01Z" fill="#BBBDBF"/>
<path d="M158.168 18.6835L159.061 17.7897V17.7705H155.875L156.787 18.6835H158.168Z" fill="#BBBDBF"/>
<path d="M66.184 11.8912L67.0915 10.9849H63.8958L64.8033 11.8912H66.184Z" fill="#9F9C9C"/>
<path d="M52.1229 10.9932H50.7505H49.8442L50.7505 11.9003H52.1229L53.0296 10.9932H52.1229Z" fill="#9F9C9C"/>
<path d="M38.9649 10.9932H35.7808L36.6875 11.9003H38.0599L38.9649 10.9932Z" fill="#BABBBA"/>
<path d="M31.942 12.1055L31.0344 13.013H36.6847L35.7779 12.1055H31.942Z" fill="#BBBDBF"/>
<path d="M38.9649 17.812H35.7808L36.6875 18.7183H38.0599L38.9649 17.812Z" fill="#BABBBA"/>
<path d="M21.6973 17.8223L22.6048 18.7294H23.9718L24.8793 17.8223H21.6973Z" fill="#BABBBA"/>
<path d="M22.604 11.9043H23.9726L24.8801 10.998H21.6973L22.604 11.9043Z" fill="#BABBBA"/>
<path d="M8.43718 11.8888H9.81621L10.7242 10.9858H7.53003L8.43718 11.8888Z" fill="#BABBBA"/>
<path d="M5.57892 24.6644C5.35318 24.6644 5.13494 24.6286 4.91462 24.552C4.73302 24.4887 4.54685 24.397 4.35651 24.2812L3.70508 24.9335C4.3165 25.3525 4.92959 25.5649 5.57598 25.5666H9.81888L10.7268 24.6653V24.6644H5.57892Z" fill="#BBBDBF"/>
<path d="M13.9734 29.9087C13.746 30.0595 13.5319 30.1686 13.3203 30.2419C13.1092 30.3144 12.898 30.3493 12.6768 30.3493H3.64342L2.75171 31.2507L12.6994 31.2531V31.2515C13.3445 31.2473 13.9255 31.0308 14.5053 30.6417C14.5448 30.6134 14.5807 30.5834 14.6194 30.5526L13.9734 29.9087Z" fill="#BBBDBF"/>
<path d="M162.947 24.6353H162.919V24.6445H153.916C153.508 24.6445 153.122 24.5237 152.713 24.2671L152.062 24.9193C152.673 25.3358 153.283 25.5482 153.928 25.5482H163.861L162.947 24.6353Z" fill="#BBBDBF"/>
<path d="M176.444 24.2329C176.243 24.3645 176.041 24.4695 175.846 24.5378C175.626 24.6128 175.412 24.6494 175.184 24.6494H168.09C167.864 24.6494 167.647 24.6128 167.43 24.5378C167.375 24.5186 167.321 24.4987 167.268 24.4762C167.242 24.4637 167.214 24.4487 167.187 24.437C167.166 24.427 167.146 24.417 167.123 24.4054H167.122C167.119 24.4028 167.115 24.4012 167.11 24.3987C167.059 24.3729 167.008 24.3437 166.956 24.3129C166.943 24.3046 166.929 24.2979 166.916 24.2896C166.884 24.2704 166.851 24.2471 166.819 24.2246L166.161 24.881C166.173 24.891 166.183 24.9002 166.193 24.9085C166.816 25.3466 167.435 25.5624 168.09 25.5624H175.184C175.839 25.5624 176.458 25.3466 177.077 24.9085C177.087 24.9026 177.094 24.896 177.102 24.8893L176.444 24.2329Z" fill="#BBBDBF"/>
<path d="M191.711 24.2236C191.508 24.3552 191.181 24.5019 190.985 24.5702C190.768 24.6451 190.551 24.6818 190.324 24.6818H183.23C183.004 24.6818 182.789 24.6451 182.57 24.5702C182.516 24.5519 182.462 24.531 182.409 24.5093C182.383 24.4977 182.355 24.4819 182.328 24.4694C182.307 24.4594 182.286 24.4494 182.262 24.4385C182.259 24.4369 182.255 24.4336 182.25 24.4319C182.199 24.4044 182.149 24.3761 182.095 24.3444C182.083 24.3378 182.069 24.3311 182.057 24.3228C182.024 24.3036 181.99 24.2811 181.959 24.2586L181.302 24.915C181.313 24.9242 181.323 24.9342 181.335 24.9409C181.956 25.3782 182.577 25.5956 183.23 25.5956H190.324C190.979 25.5956 191.6 25.3465 192.219 24.9084C192.228 24.9025 192.315 24.8251 192.323 24.8192L191.711 24.2236Z" fill="#BBBDBF"/>
<path d="M205.677 24.2543C205.283 24.495 204.91 24.62 204.519 24.6275C204.506 24.6283 204.493 24.6283 204.479 24.6283H197.36C197.348 24.6283 197.331 24.6275 197.316 24.6275C196.875 24.6175 196.456 24.465 196.003 24.1519L195.349 24.8049C195.386 24.8349 195.422 24.8624 195.463 24.8907C196.085 25.3264 196.704 25.5413 197.362 25.5413H204.479C205.122 25.5413 205.732 25.3338 206.34 24.919L205.677 24.2543Z" fill="#BBBDBF"/>
<path d="M161.03 7.23096H153.928C153.273 7.23096 152.653 7.41047 152.066 7.84404C152.055 7.8536 152.043 7.86191 152.03 7.87194L152.673 8.51667C153.05 8.2551 153.446 8.12847 153.916 8.12847H161.009C161.016 8.12847 161.024 8.13018 161.03 8.13018C161.433 8.13265 161.869 8.31677 162.197 8.51125L162.838 7.80361C162.271 7.3946 161.641 7.23096 161.03 7.23096Z" fill="#BBBDBF"/>
<path d="M201.612 20.9941H200.23L199.318 21.9088H202.526L201.612 20.9941Z" fill="#BBBDBF"/>
<path d="M185.199 9.29484H192.198V9.3032H192.255L193.167 8.39062H186.102L185.199 9.29484Z" fill="#BBBDBF"/>
<path d="M188.383 21.9006V21.8564L187.516 20.9868H186.103L185.187 21.9006H188.383Z" fill="#BBBDBF"/>
<path d="M192.256 15.0067L193.168 14.0938H187.516L188.428 15.0067H192.256Z" fill="#BBBDBF"/>
<path d="M181.292 9.29484V9.27151L180.411 8.39062H178.996L179.962 9.29484H181.292Z" fill="#BBBDBF"/>
<path d="M181.289 7.41265H185.141V7.471H185.184L186.1 6.55762H180.408L181.289 7.43892V7.41265Z" fill="#BBBDBF"/>
<path d="M173.242 21.9027L172.328 20.9897H170.952L170.038 21.9027H173.242Z" fill="#BBBDBF"/>
<path d="M173.238 8.16088H177.094L178.006 7.24707H172.324L173.238 8.16088Z" fill="#BBBDBF"/>
<path d="M170.038 8.13756H170.038L170.951 7.22461H165.268L166.182 8.13756H170.038Z" fill="#BBBDBF"/>
<path d="M158.17 20.9941H156.79L155.875 21.9088H159.064V21.8896L158.17 20.9941Z" fill="#C4C3C2"/>
<path d="M10.7242 27.6199L9.81622 26.7178H2.7478L3.65329 27.6199H10.7242Z" fill="#BBBDBF"/>
<path d="M158.167 14.0957H153.925C153.282 14.0957 152.706 14.3035 152.134 14.7205L152.782 15.3673C153.163 15.1161 153.519 15.0012 153.913 15.0012H159.061V14.9887L158.167 14.0957Z" fill="#BBBDBF"/>
<path d="M206.345 7.85344C205.759 7.41863 205.138 7.24121 204.479 7.24121H197.362C196.704 7.24121 196.085 7.41863 195.496 7.85344C195.464 7.87677 195.436 7.90177 195.405 7.9251L196.057 8.57814C196.441 8.29828 196.845 8.16291 197.321 8.15583C197.334 8.15583 197.349 8.15417 197.362 8.15417H204.187C204.971 8.15417 205.384 8.28826 205.774 8.56983L206.426 7.91716C206.4 7.8972 206.374 7.87511 206.345 7.85344Z" fill="#BBBDBF"/>
<path d="M64.8033 21.0757L63.8958 21.9811H67.0915L66.184 21.0757H64.8033Z" fill="#C4C3C2"/>
<path d="M49.842 8.24993L50.7483 7.34277H45.1018L46.0077 8.24993H49.842Z" fill="#BBBDBF"/>
<path d="M36.6875 21.0142L35.7808 21.9221H38.9649L38.0599 21.0142H36.6875Z" fill="#BBBDBF"/>
<path d="M9.81621 21.0308H8.43718L7.53003 21.9312H10.7242L9.81621 21.0308Z" fill="#BBBDBF"/>
<path d="M71.0347 3.66102L71.9431 2.75391H66.2529L67.1609 3.66102H71.0347Z" fill="#C4C3C2"/>
<path d="M5.56106 7.31641V7.31726C4.91172 7.31892 4.29283 7.50052 3.71096 7.92826C3.69139 7.94199 3.67514 7.95785 3.65723 7.97201L4.30405 8.62007C4.38235 8.56591 4.46108 8.51345 4.54148 8.47012C4.54647 8.46679 4.55188 8.46346 4.55645 8.46056C4.60729 8.43514 4.65765 8.411 4.71016 8.38768C4.71139 8.38768 4.71225 8.38682 4.71306 8.38682C4.76052 8.36725 4.80804 8.35019 4.85469 8.33351C4.86216 8.33061 4.86758 8.32767 4.87423 8.326C4.91799 8.31103 4.96256 8.29935 5.00712 8.28771C5.01919 8.28519 5.0296 8.28186 5.04043 8.27896C5.08001 8.26979 5.12125 8.26271 5.16373 8.25521C5.1787 8.25188 5.19453 8.24813 5.2112 8.24604C5.24784 8.24105 5.28575 8.23691 5.32158 8.23316C5.34324 8.23064 5.36653 8.22774 5.3882 8.22608C5.41861 8.22313 5.45068 8.22313 5.48399 8.22271C5.51273 8.22147 5.54063 8.21938 5.57103 8.21938H14.5983L15.5062 7.31641H5.56106Z" fill="#BBBDBF"/>
<path d="M66.2498 7.31885H62.0049C61.3535 7.31885 60.7358 7.49627 60.1506 7.92528L60.5646 8.82241C60.9312 8.5846 61.5567 8.226 62.0049 8.226H67.1561L66.2498 7.31885Z" fill="#BBBDBF"/>
<path d="M38.0613 14.1621H33.8471C33.1961 14.1621 32.6127 14.3758 32.0312 14.8073C32.0275 14.8106 32.0237 14.8131 32.0195 14.8164L32.6705 15.467C32.6876 15.4553 32.703 15.4437 32.7189 15.4333C32.7413 15.4183 32.763 15.4053 32.7842 15.392C32.8042 15.3791 32.8255 15.3666 32.8442 15.3545H32.8451C32.8488 15.3529 32.8517 15.3512 32.855 15.3496C32.9292 15.3046 33.0062 15.2663 33.0804 15.2329C33.0908 15.2288 33.0999 15.225 33.1116 15.2196C33.182 15.1904 33.252 15.1651 33.3215 15.1446C33.3299 15.1422 33.3365 15.1388 33.3436 15.1363C33.4181 15.1163 33.4923 15.1013 33.5669 15.0896C33.5831 15.088 33.5989 15.0855 33.6156 15.0838C33.6922 15.0747 33.7693 15.0688 33.8471 15.0688H38.9663L38.0613 14.1621Z" fill="#BBBDBF"/>
<path d="M28.6668 7.95253C28.0841 7.52271 27.4685 7.34277 26.8184 7.34277H16.9548L17.862 8.24993H26.8184C27.2982 8.24993 27.8533 8.4082 28.239 8.68393L28.7367 8.00917C28.7122 7.99087 28.6922 7.97087 28.6668 7.95253Z" fill="#BBBDBF"/>
<path d="M40.8986 7.34277H33.8435C33.1925 7.34277 32.5765 7.52271 31.9943 7.95253C31.9747 7.96669 31.958 7.98252 31.9397 7.99672L32.5878 8.6452C32.6207 8.62268 32.6511 8.59978 32.6844 8.57897C33.0384 8.35489 33.4108 8.24993 33.8435 8.24993H40.8986C41.2705 8.24993 41.5983 8.32738 41.9086 8.49026C41.9228 8.499 42.5629 8.87299 42.5787 8.8805L42.7799 7.97586C42.151 7.49525 41.4983 7.34277 40.8986 7.34277Z" fill="#BBBDBF"/>
<path d="M54.9638 8.24974C54.1125 8.24974 53.3628 8.33555 52.7377 8.50798C52.1637 8.6654 51.6877 8.89533 51.3232 9.19268L49.8442 10.3993L50.7505 8.48964C51.6735 7.73577 53.0809 7.34092 54.9638 7.34092C54.9638 7.34092 55.9189 7.25516 56.876 7.99568C56.3699 8.57004 56.3195 8.52713 56.3195 8.52713L56.0567 8.74955L54.9638 8.24974Z" fill="#BBBDBF"/>
<path d="M185.191 9.29482H185.204L186.107 8.3906V6.55762L185.181 7.37226L185.191 9.29482Z" fill="#9F9C9C"/>
<path d="M49.8462 10.3999L50.7525 8.48947V7.34326L49.8462 8.25042V10.3999Z" fill="#9F9C9C"/>
<path d="M7.53198 10.9858V21.9314L8.43914 21.0309V11.8888L7.53198 10.9858Z" fill="#9F9C9C"/>
<path d="M200.233 11.8242L199.32 10.9116V21.9089L200.233 20.9942V11.8242Z" fill="#9F9C9C"/>
<path d="M185.189 21.9005L186.105 20.9867V12.97L185.189 12.0562V21.9005Z" fill="#9F9C9C"/>
<path d="M170.04 21.9028L170.954 20.9899V7.22461L170.04 8.13756V21.9028Z" fill="#9F9C9C"/>
<path d="M155.877 12.0243L156.792 12.9389V11.8186L155.877 10.9048V12.0243Z" fill="#9F9C9C"/>
<path d="M156.792 20.9942V18.6835L155.88 17.7705H155.877V21.9088L156.792 20.9942Z" fill="#9F9C9C"/>
<path d="M192.26 12.0557L193.173 12.9695V8.39014L192.26 9.30271V12.0557Z" fill="#9F9C9C"/>
<path d="M178.013 23.2764V7.24707L177.101 8.16088V23.2764C177.101 23.5105 177.038 23.8246 176.56 24.1594L176.559 24.1611H176.557C176.521 24.1869 176.487 24.2086 176.45 24.2327L177.108 24.8891C177.71 24.4585 178.014 23.9195 178.014 23.2764H178.013Z" fill="#9F9C9C"/>
<path d="M163.863 9.5447C163.863 8.89247 163.553 8.3135 162.899 7.84414C162.857 7.8154 162.889 7.83037 162.847 7.80371L162.183 8.4951C162.203 8.50679 162.152 8.44345 162.172 8.45595C162.235 8.49344 162.295 8.53425 162.357 8.58006L162.362 8.58215L162.367 8.58675C162.888 8.9616 162.949 9.31145 162.949 9.5447V24.6353L163.863 25.5482V9.5447Z" fill="#9F9C9C"/>
<path d="M192.199 14.9925L192.197 23.3608V23.37C192.195 23.385 192.194 23.4 192.191 23.4158C192.191 23.4325 192.189 23.4475 192.185 23.4649C192.182 23.4808 192.179 23.4966 192.175 23.5108C192.172 23.5291 192.167 23.5482 192.161 23.5666C192.158 23.5807 192.152 23.5966 192.146 23.6132C192.139 23.6324 192.13 23.6524 192.121 23.6724C192.113 23.6882 192.106 23.7032 192.099 23.719C192.088 23.7407 192.074 23.7615 192.061 23.7815C192.052 23.7982 192.041 23.8156 192.03 23.8307C192.014 23.8531 191.994 23.8748 191.975 23.8989C191.962 23.9131 191.952 23.9298 191.937 23.9447C191.914 23.9706 191.884 23.9964 191.855 24.0222C191.841 24.0347 191.829 24.048 191.814 24.0614C191.77 24.1014 191.717 24.1405 191.662 24.1805V24.1822H191.66C191.655 24.1846 191.65 24.1872 191.646 24.1913L192.297 24.8427C192.84 24.4221 193.172 23.8914 193.172 23.2792L193.169 14.0938L192.199 14.9925Z" fill="#9F9C9C"/>
<path d="M207.314 9.4693H207.309C207.286 8.88287 207 8.35517 206.427 7.91699L205.774 8.56966C205.783 8.57465 205.794 8.58092 205.802 8.588L205.807 8.58881C205.807 8.58881 205.807 8.59047 205.809 8.59132C205.809 8.59132 205.811 8.59132 205.811 8.5938L205.816 8.59546C206.34 8.97282 206.401 9.31935 206.401 9.54927V23.2679C206.401 23.4995 206.34 23.8102 205.862 24.14L205.861 24.1409L205.859 24.1425C205.796 24.1842 205.737 24.2175 205.678 24.2542L206.34 24.9189C206.354 24.9081 206.369 24.8997 206.382 24.8906C207.006 24.4591 207.314 23.9159 207.314 23.2679V23.2662V9.4693Z" fill="#9F9C9C"/>
<path d="M71.0332 24.6292L71.9416 25.5372V2.75391L71.0332 3.66102V24.6292Z" fill="#9F9C9C"/>
<path d="M64.8013 21.0758V11.8912L63.8938 10.9849V21.9813L64.8013 21.0758Z" fill="#9F9C9C"/>
<path d="M49.8462 24.6293L50.7525 25.5373V11.9003L49.8462 10.9932V24.6293Z" fill="#9F9C9C"/>
<path d="M35.7827 12.1056L36.6894 13.0132V11.9003L35.7827 10.9932V12.1056Z" fill="#9F9C9C"/>
<path d="M36.6894 21.014V18.7183L35.7827 17.812V21.922L36.6894 21.014Z" fill="#9F9C9C"/>
<path d="M29.6269 17.5423C29.6181 17.2182 29.4265 16.885 29.1308 16.7376C28.9684 16.6555 28.7914 16.601 28.6177 16.5501C28.5894 16.5427 28.5627 16.5352 28.5356 16.5269C28.6589 16.6576 28.7451 16.8192 28.7485 17.0208C28.7489 17.07 28.7555 17.3415 28.761 17.5789C28.7651 17.7372 28.7676 17.8805 28.7676 17.9304C28.7676 18.4252 28.7218 25.5482 28.7218 25.5482L29.629 24.6419V17.5789C29.629 17.5656 29.629 17.5547 29.6269 17.5423Z" fill="#9F9C9C"/>
<path d="M21.6992 24.6603L22.6068 25.5691V18.7294L21.6992 17.8223V24.6603Z" fill="#9F9C9C"/>
<path d="M21.6992 10.998V15.0747L22.6059 14.1676V11.9043L21.6992 10.998Z" fill="#9F9C9C"/>
<path d="M14.6035 8.21889V28.9889C14.6035 28.998 14.6019 29.0088 14.601 29.0213C14.6002 29.0472 14.6002 29.0722 14.5952 29.0988C14.5935 29.1105 14.5902 29.123 14.5881 29.1329C14.5831 29.1579 14.5802 29.1821 14.5735 29.2046C14.5681 29.2221 14.5627 29.2379 14.5544 29.2537C14.5473 29.2721 14.5427 29.2895 14.5357 29.3079C14.5194 29.3421 14.5011 29.3754 14.4811 29.4103C14.3819 29.5736 14.217 29.7377 13.9908 29.8993C13.9871 29.9035 13.9821 29.906 13.9775 29.9085L14.6268 30.5541C15.1979 30.1117 15.5028 29.6053 15.5098 29.0055V7.31592L14.6035 8.21889Z" fill="#9F9C9C"/>
<path d="M29.6263 9.64198C29.6263 9.02096 29.3385 8.4658 28.7391 8.00928L28.2664 8.66655C28.2785 8.67567 28.1156 8.6732 28.1268 8.68194L28.1335 8.68651L28.139 8.68988C28.1997 8.73483 28.2514 8.77731 28.2997 8.81898C28.3076 8.82606 28.3139 8.83228 28.3222 8.83898C28.3643 8.87647 28.4018 8.91477 28.4346 8.95226C28.4396 8.95848 28.4463 8.96309 28.4505 8.96974C28.4929 9.01973 28.533 9.06805 28.5634 9.11386C28.5771 9.13633 28.585 9.15548 28.5971 9.17676C28.6079 9.19715 28.62 9.2163 28.6279 9.23587C28.64 9.26044 28.6504 9.28505 28.6591 9.30876C28.6667 9.32877 28.6725 9.34792 28.6792 9.36792C28.685 9.38958 28.6908 9.4104 28.6958 9.4304C28.7008 9.4533 28.7045 9.47369 28.7066 9.49535C28.7099 9.51118 28.7129 9.527 28.7137 9.54244C28.717 9.57699 28.7191 9.60991 28.7191 9.64032V9.64198L28.7437 15.0989C28.7437 15.0989 28.7479 15.4363 28.6425 15.4954C28.5342 15.5579 27.3472 16.0202 27.3472 16.0202C27.3472 16.0202 27.9727 16.0989 28.3876 16.4017C28.9569 16.2918 29.6263 15.9652 29.6263 15.3164V9.64198Z" fill="#9F9C9C"/>
<path d="M187.516 14.0938L188.428 15.0067L188.383 21.9006L187.516 20.9868V14.0938Z" fill="white"/>
<path d="M201.615 20.9942L202.529 21.9089V10.9116L201.615 11.8242V20.9942Z" fill="white"/>
<path d="M181.289 7.37226L180.408 6.55762V8.3906L181.289 9.27149V7.37226Z" fill="white"/>
<path d="M173.238 21.9028V8.16088L172.324 7.24707V20.9899L173.238 21.9028H173.238Z" fill="white"/>
<path d="M158.172 20.9941L159.066 21.8896V17.7896L158.172 18.6834V20.9941Z" fill="white"/>
<path d="M2.7478 31.2534L3.65244 30.348L3.65329 27.6199L2.7478 26.7178V31.2534Z" fill="white"/>
<path d="M152.026 7.87207C151.397 8.33686 151.097 8.90666 151.097 9.54474V12.9392L152.01 12.0245V12.0179H152V9.52887C152 9.2998 152.062 8.94748 152.585 8.57178L152.591 8.5676L152.598 8.56303C152.619 8.54431 152.646 8.53305 152.669 8.5168L152.026 7.87207Z" fill="white"/>
<path d="M181.904 24.2178C181.679 24.0553 181.515 23.8887 181.415 23.7246C181.332 23.5864 181.293 23.4506 181.293 23.2948V12.0894L180.412 12.9698L180.38 23.2931C180.38 23.9162 180.698 24.441 181.291 24.8983L181.944 24.2427C181.932 24.2353 181.918 24.2261 181.904 24.2178Z" fill="white"/>
<path d="M195.408 7.92529C194.814 8.3851 194.532 8.93489 194.532 9.54964V23.2683C194.532 23.8747 194.806 24.3903 195.352 24.8051L196.006 24.1521C195.999 24.1487 195.994 24.1462 195.989 24.1429L195.986 24.1413L195.984 24.1387C195.931 24.1012 195.883 24.0654 195.84 24.0296C195.827 24.0171 195.813 24.0055 195.799 23.9946C195.772 23.9696 195.747 23.943 195.72 23.9172C195.71 23.9055 195.698 23.8955 195.688 23.8847C195.658 23.8514 195.63 23.8172 195.606 23.7839V23.783C195.575 23.7381 195.55 23.6939 195.529 23.6514C195.523 23.6389 195.519 23.6281 195.515 23.6181C195.501 23.5865 195.489 23.5548 195.481 23.5248C195.477 23.5115 195.473 23.4998 195.471 23.4882C195.464 23.4582 195.458 23.4315 195.456 23.4041C195.453 23.3932 195.451 23.3824 195.45 23.3716C195.447 23.3357 195.446 23.3008 195.446 23.2683V9.54964C195.446 9.51838 195.447 9.48298 195.45 9.44592C195.45 9.43636 195.453 9.42719 195.455 9.41926C195.457 9.3897 195.464 9.35972 195.469 9.32803C195.473 9.31724 195.477 9.30641 195.481 9.29306C195.488 9.26141 195.5 9.22892 195.514 9.19475C195.518 9.18226 195.523 9.17228 195.527 9.15897C195.546 9.12063 195.568 9.08314 195.591 9.04151C195.595 9.03482 195.597 9.0294 195.6 9.02232H195.602C195.603 9.02151 195.603 9.01985 195.606 9.01776C195.616 9.00151 195.63 8.98321 195.643 8.96568C195.66 8.94406 195.678 8.92197 195.698 8.89574C195.712 8.88073 195.727 8.86367 195.743 8.84699C195.767 8.82076 195.795 8.79491 195.824 8.7666C195.84 8.75244 195.855 8.7387 195.87 8.72412C195.919 8.68206 195.97 8.64001 196.029 8.59583L196.037 8.59169L196.042 8.58836C196.047 8.58461 196.055 8.58209 196.06 8.57834L195.408 7.92529Z" fill="white"/>
<path d="M159.066 10.9048V15.0015L158.172 14.096V11.8186L159.066 10.9048Z" fill="white"/>
<path d="M165.268 23.2523V7.22461L166.182 8.13756V23.2523C166.182 23.4889 166.243 23.8021 166.722 24.1361L166.724 24.1386H166.727C166.76 24.1653 166.797 24.1861 166.833 24.2086L166.174 24.8666C165.572 24.4368 165.268 23.8962 165.268 23.2523Z" fill="white"/>
<path d="M135.857 12.1802H134.455L133.547 13.0865H134.952L135.857 12.1802Z" fill="#BBBDBF"/>
<path d="M139.69 12.1802L140.597 13.0865H147.615L146.709 12.1802H139.69Z" fill="#9F9C9C"/>
<path d="M139.69 12.1802L140.597 13.0865H147.615L146.709 12.1802H139.69Z" fill="#BBBDBF"/>
<path d="M124.721 11.0283L125.627 11.935H132.702L131.794 11.0283H124.721Z" fill="#BBBDBF"/>
<path d="M124.721 16.7134L125.627 17.6213H132.702L131.794 16.7134H124.721Z" fill="#BBBDBF"/>
<path d="M112.867 11.935L113.774 11.0283H110.585L111.493 11.935H112.867Z" fill="#BBBDBF"/>
<path d="M110.585 17.8682L111.493 18.7745H118.526L117.619 17.8682H110.585Z" fill="#BBBDBF"/>
<path d="M78.5975 12.1636H76.4242L75.5183 13.0694H77.6912L78.5975 12.1636Z" fill="#BBBDBF"/>
<path d="M82.4343 12.1636L83.3414 13.0694H90.3644L89.4586 12.1636H82.4343Z" fill="#BBBDBF"/>
<path d="M99.7382 11.0571H96.5579L97.4642 11.9634H98.8324L99.7382 11.0571Z" fill="#BBBDBF"/>
<path d="M124.723 24.7051H120.849L119.942 25.6122H125.63L124.723 24.7051Z" fill="#BBBDBF"/>
<path d="M96.5563 24.7051H92.7203H92.7191L91.8115 25.6122H97.4638L96.5575 24.7051H96.5563Z" fill="#BBBDBF"/>
<path d="M99.7372 24.7051L98.8313 25.6122H104.48L103.574 24.7051H99.7372Z" fill="#BBBDBF"/>
<path d="M116.922 24.3251C116.508 24.5825 116.12 24.705 115.712 24.705H108.643C108.419 24.705 108.202 24.6691 107.983 24.5925C107.929 24.5742 107.876 24.5542 107.822 24.5292C107.796 24.5192 107.77 24.5067 107.744 24.4934C107.722 24.4825 107.698 24.4726 107.676 24.4626L107.677 24.4617C107.612 24.4292 107.547 24.3918 107.48 24.3534C107.479 24.3534 107.477 24.351 107.477 24.3501C107.45 24.3343 107.424 24.3168 107.398 24.2993L106.744 24.9532C106.748 24.9574 106.754 24.9607 106.757 24.964C107.372 25.3972 107.99 25.6121 108.643 25.6096H108.647L108.643 25.6121H115.712C116.357 25.6121 116.967 25.3997 117.577 24.9774L116.922 24.3251Z" fill="#BBBDBF"/>
<path d="M88.811 24.2977C88.7902 24.3102 88.7685 24.3252 88.7486 24.3369C88.3529 24.5826 87.9776 24.6976 87.589 24.705H80.5011C80.0762 24.705 79.6831 24.5717 79.2378 24.2769L78.5894 24.9274C78.6218 24.9508 78.6501 24.9758 78.6822 25.0007C79.2662 25.3973 79.8493 25.6122 80.5011 25.6122H87.5603C88.2117 25.6122 88.8273 25.3973 89.4433 24.9658C89.4512 24.9607 89.457 24.9566 89.4641 24.9508L88.811 24.2977Z" fill="#BBBDBF"/>
<path d="M146.055 24.2827C146.031 24.2985 146.005 24.3169 145.98 24.3327C145.965 24.3419 145.954 24.3469 145.94 24.3552C145.89 24.3852 145.84 24.4135 145.79 24.4385C145.785 24.4401 145.781 24.4435 145.778 24.446C145.755 24.4568 145.733 24.4668 145.711 24.476C145.684 24.4893 145.656 24.5035 145.628 24.5151C145.574 24.5401 145.52 24.5601 145.467 24.5776C145.248 24.6542 145.032 24.6909 144.808 24.6909H137.752C137.678 24.6909 137.605 24.6859 137.532 24.6767C137.515 24.6742 137.499 24.6717 137.482 24.6709C137.408 24.6592 137.336 24.6484 137.264 24.6292C137.261 24.6284 137.259 24.6276 137.254 24.6259C137.184 24.6068 137.114 24.5834 137.044 24.5568C137.029 24.5501 137.014 24.5459 136.998 24.5393C136.925 24.5093 136.852 24.476 136.778 24.4368C136.776 24.4343 136.774 24.4335 136.772 24.4335C136.752 24.4235 136.733 24.411 136.714 24.4002C136.688 24.3868 136.663 24.3719 136.638 24.3577L135.98 25.0157C136.547 25.3914 137.116 25.598 137.752 25.598H144.808C145.459 25.598 146.074 25.3823 146.69 24.9524C146.697 24.9466 146.704 24.9416 146.711 24.9366L146.055 24.2827Z" fill="#BBBDBF"/>
<path d="M146.709 9.44715V9.448L147.615 8.54004H140.597L139.69 9.44715H146.709Z" fill="#BBBDBF"/>
<path d="M142.907 21.9579L142 21.0508H140.597L139.69 21.9579H142.907Z" fill="#BBBDBF"/>
<path d="M146.712 15.1096L147.618 14.2017H142.003L142.91 15.1096H146.712Z" fill="#BBBDBF"/>
<path d="M134.455 9.448V9.44715H135.857L134.952 8.54004H133.547L134.455 9.448Z" fill="#BBBDBF"/>
<path d="M135.853 7.62542H139.692L140.6 6.71826H134.947L135.853 7.62542Z" fill="#BBBDBF"/>
<path d="M131.794 13.9589L132.702 13.0518H125.627L124.721 13.9589H131.794Z" fill="#BBBDBF"/>
<path d="M113.774 20.8344H117.619L118.526 19.9272H112.867L113.774 20.8344Z" fill="#BBBDBF"/>
<path d="M110.585 21.9861H113.774L112.867 21.0781H111.493L110.585 21.9836V21.9861Z" fill="#BBBDBF"/>
<path d="M112.867 14.2017H111.493L110.585 15.1096H113.774L112.867 14.2017Z" fill="#BBBDBF"/>
<path d="M89.4618 9.44817L90.3676 8.54102H83.2688L82.3625 9.44817H89.4618Z" fill="#BBBDBF"/>
<path d="M85.6543 21.9905L84.7471 21.0825H83.3414L82.4343 21.9905H85.6543Z" fill="#BBBDBF"/>
<path d="M89.4592 15.1262L90.3651 14.2178H84.7478L85.655 15.1262H89.4592Z" fill="#BBBDBF"/>
<path d="M76.4242 9.44817H78.5975L77.6912 8.54102H75.5183L76.4242 9.44817Z" fill="#BBBDBF"/>
<path d="M82.4383 5.9854L83.275 5.0791H77.6123L78.5461 5.9854H82.4383Z" fill="#BBBDBF"/>
<path d="M132.705 7.36621H122.77C122.125 7.36621 121.511 7.54159 120.932 7.96015L121.59 8.61571C121.951 8.38788 122.329 8.2717 122.77 8.2717H131.797L132.705 7.36621Z" fill="#BBBDBF"/>
<path d="M117.562 7.97682C116.98 7.54572 116.363 7.36621 115.711 7.36621H108.642C108.021 7.36621 107.429 7.53199 106.872 7.91976L107.526 8.57575C107.533 8.57157 107.542 8.56739 107.55 8.5624C107.601 8.53161 107.654 8.50244 107.707 8.4783C107.716 8.47326 107.724 8.46994 107.733 8.46452C107.74 8.46243 107.745 8.45996 107.749 8.4591C107.878 8.39914 108.011 8.35542 108.15 8.32582C108.167 8.32169 108.185 8.31874 108.2 8.31461C108.255 8.30501 108.309 8.29669 108.364 8.29085C108.384 8.28833 108.403 8.28501 108.422 8.2842C108.495 8.27754 108.568 8.2717 108.642 8.2717H115.711C116.195 8.2717 116.616 8.4208 117.008 8.70152L117.657 8.05385C117.63 8.03261 117.591 7.99683 117.562 7.97682Z" fill="#BBBDBF"/>
<path d="M103.288 7.85449C103.203 7.80198 103.093 7.74368 103.007 7.70035C102.675 7.54169 102.325 7.45004 101.973 7.41716C101.874 7.4105 101.775 7.40381 101.673 7.40381H97.4642L96.5579 8.31177H101.695C102.12 8.31472 102.486 8.41925 102.834 8.64C102.843 8.6458 102.934 8.7108 102.945 8.71703L103.58 8.05524C103.506 8.00107 103.361 7.90029 103.288 7.85449Z" fill="#BBBDBF"/>
<path d="M110.585 21.984L111.493 21.0785V18.7745L110.585 17.8682V21.984Z" fill="#9F9C9C"/>
<path d="M111.493 11.935L110.585 11.0283V15.1096L111.493 14.2017V11.935Z" fill="#9F9C9C"/>
<path d="M82.4343 12.1636V21.9904L83.3414 21.0825V13.0694L82.4343 12.1636Z" fill="#9F9C9C"/>
<path d="M82.3625 9.44815L83.2688 8.541V5.0791L82.3625 5.9854V9.44815Z" fill="#9F9C9C"/>
<path d="M96.5579 24.705L97.4642 25.6121V11.9634L96.5579 11.0571V24.705Z" fill="#9F9C9C"/>
<path d="M96.5579 8.31173L97.4642 7.40377V2.74316L96.5579 3.65027V8.31173Z" fill="#9F9C9C"/>
<path d="M139.69 21.9579L140.597 21.0508V13.0865L139.69 12.1802V21.9579Z" fill="#9F9C9C"/>
<path d="M146.713 12.1802L147.619 13.0865V8.54004L146.713 9.448V12.1802Z" fill="#9F9C9C"/>
<path d="M139.69 9.44714L140.597 8.54003V6.71826L139.69 7.62542V9.44714Z" fill="#9F9C9C"/>
<path d="M124.721 24.7051L125.627 25.6123V17.6213L124.721 16.7134V24.7051Z" fill="#9F9C9C"/>
<path d="M131.8 16.7136L132.708 17.6216V13.0518L131.8 13.9589V16.7136Z" fill="#9F9C9C"/>
<path d="M124.721 13.9584L125.627 13.0513V11.935L124.721 11.0283V13.9584Z" fill="#9F9C9C"/>
<path d="M131.8 11.0285L132.708 11.9352V7.36621L131.8 8.2717V11.0285Z" fill="#9F9C9C"/>
<path d="M89.4622 9.44817V12.1637L90.368 13.0696V8.54102L89.4622 9.44817Z" fill="#9F9C9C"/>
<path d="M117.656 8.04834L116.995 8.68808C117.004 8.69516 117.016 8.6981 117.024 8.70561L117.029 8.70894L117.034 8.71226C117.558 9.08835 117.617 9.43948 117.617 9.66855V17.8677L118.524 18.774V9.66855C118.524 9.0471 118.252 8.50567 117.656 8.04834Z" fill="#9F9C9C"/>
<path d="M117.618 20.8344V23.3459C117.618 23.5774 117.559 23.8873 117.08 24.2214C117.028 24.258 116.975 24.293 116.923 24.3255L117.577 24.9777C117.586 24.9735 117.592 24.9702 117.598 24.9644C118.218 24.5329 118.525 23.9923 118.525 23.3459V19.9272L117.618 20.8344Z" fill="#9F9C9C"/>
<path d="M103.58 8.05504C103.577 8.05252 103.577 8.05086 103.573 8.04834L102.931 8.69725C102.972 8.7231 102.942 8.71226 102.981 8.74182L102.987 8.74557L102.993 8.7489C103.515 9.1246 103.574 9.47194 103.574 9.70186V24.705L104.48 25.6121V9.70186C104.48 9.05461 104.15 8.48068 103.58 8.05504Z" fill="#9F9C9C"/>
<path d="M90.3654 23.3491V14.2178L89.4595 15.1262V23.3491C89.4595 23.3549 89.4583 23.3616 89.4583 23.3674C89.4562 23.5965 89.3862 23.8963 88.9214 24.2212C88.8835 24.2487 88.8456 24.272 88.8081 24.2979L89.4612 24.9509C90.0622 24.5219 90.3671 23.988 90.3671 23.3491H90.3654Z" fill="#9F9C9C"/>
<path d="M146.712 15.1096V23.3396V23.3613C146.708 23.4721 146.692 23.5987 146.621 23.737C146.606 23.7686 146.585 23.8019 146.562 23.8369C146.558 23.8403 146.556 23.8436 146.552 23.8502C146.528 23.8844 146.497 23.9227 146.462 23.9619C146.462 23.9619 146.46 23.9636 146.458 23.9644C146.387 24.0443 146.294 24.1243 146.176 24.2076H146.175C146.136 24.2351 146.098 24.2593 146.059 24.2826L146.715 24.9365C147.317 24.5091 147.618 23.9769 147.618 23.3396V14.2017L146.712 15.1096Z" fill="#9F9C9C"/>
<path d="M134.455 9.448L133.547 8.54004V13.0865L134.455 12.1802V9.448Z" fill="white"/>
<path d="M135.853 9.44714V7.62542L134.947 6.71826V8.54003L135.853 9.44714Z" fill="white"/>
<path d="M112.867 14.2017L113.774 15.1096V11.0283L112.867 11.935V14.2017Z" fill="white"/>
<path d="M113.774 20.8344L112.867 19.9272V21.0784L113.774 21.9864V20.8344Z" fill="white"/>
<path d="M85.655 15.1262L84.7478 14.2178V21.0825L85.655 21.9905V15.1262Z" fill="white"/>
<path d="M76.4242 9.44817L75.5183 8.54102V13.0696L76.4242 12.1637V9.44817Z" fill="white"/>
<path d="M78.5194 5.9854L77.6123 5.0791V8.541L78.5194 9.44815V5.9854Z" fill="white"/>
<path d="M99.7372 24.705V11.0571L98.8313 11.9634V25.6121L99.7372 24.705Z" fill="white"/>
<path d="M92.7191 2.82976L91.8115 2.74023V25.6122L92.7191 24.7051V2.82976Z" fill="white"/>
<path d="M120.931 7.96045C120.924 7.96587 120.915 7.97047 120.907 7.97713C120.252 8.44776 119.942 9.02084 119.942 9.66894V25.6125L120.849 24.7053V9.66894C120.849 9.43987 120.91 9.09168 121.436 8.71513L121.44 8.71099L121.445 8.70767C121.491 8.67351 121.54 8.64766 121.589 8.61601L120.931 7.96045Z" fill="white"/>
<path d="M136.62 24.3461C136.566 24.3128 136.512 24.2803 136.457 24.2428C136.234 24.0812 136.073 23.9179 135.974 23.7589C135.896 23.6306 135.859 23.5056 135.854 23.3615C135.854 23.354 135.853 23.3482 135.853 23.3399V12.1802L134.947 13.0865V23.3399H134.948C134.948 23.9846 135.289 24.5236 135.939 24.9867C135.954 24.9967 135.969 25.0067 135.984 25.0158L136.642 24.3578C136.633 24.3553 136.626 24.3503 136.62 24.3461Z" fill="white"/>
<path d="M106.739 9.6688C106.739 9.43973 106.798 9.09027 107.323 8.71252L107.325 8.71167C107.325 8.71086 107.327 8.70919 107.328 8.70834C107.329 8.70834 107.33 8.70807 107.33 8.70753L107.333 8.70501C107.393 8.66087 107.454 8.62087 107.517 8.58257C107.521 8.5809 107.524 8.57839 107.528 8.57591L106.874 7.91992C106.846 7.93992 106.819 7.95698 106.792 7.97699C106.139 8.44762 105.831 9.0207 105.831 9.6688V23.3458C105.831 23.988 106.135 24.5261 106.745 24.9535L107.399 24.2996C107.358 24.2746 107.319 24.2496 107.279 24.2213H107.277C107.157 24.138 107.064 24.0563 106.991 23.9763C106.772 23.7373 106.739 23.5198 106.739 23.3458V9.6688Z" fill="white"/>
<path d="M79.2015 24.257C78.9779 24.0962 78.8146 23.9297 78.7163 23.7705C78.6576 23.6747 78.623 23.5773 78.6076 23.4773C78.6055 23.4707 78.6038 23.4648 78.6038 23.4607C78.6009 23.4482 78.6022 23.4357 78.6009 23.4207C78.5989 23.399 78.5964 23.374 78.5964 23.349V12.1636L77.6901 13.0694V23.349H77.688C77.688 23.9621 78.0012 24.4769 78.5876 24.9276L79.2361 24.277C79.2253 24.2695 79.214 24.2654 79.2015 24.257Z" fill="white"/>
<path d="M142.003 14.2017V21.0506L142.91 21.9577V15.1096L142.003 14.2017Z" fill="white"/>
<path d="M56.8605 24.6294H53.0283L52.1216 25.5374H57.7693L56.8609 24.6294H56.8605Z" fill="#BBBDBF"/>
<path d="M49.842 24.6294H46.0077L45.1018 25.5374H50.7483L49.842 24.6294Z" fill="#BBBDBF"/>
<path d="M21.6996 24.6602H17.862L16.9548 25.5689H22.6072L21.6996 24.6602Z" fill="#BBBDBF"/>
<path d="M71.0331 24.6291H62.0064C61.7806 24.6291 61.5641 24.5933 61.3433 24.5166C61.1563 24.4525 60.9706 24.3617 60.7781 24.2418C60.7569 24.2293 60.7323 24.2118 60.7094 24.1968L60.0588 24.849C60.0772 24.8632 60.093 24.8765 60.1113 24.889C60.7323 25.3197 61.3546 25.5371 62.0064 25.5371H71.9415L71.0331 24.6291Z" fill="#BBBDBF"/>
<path d="M42.8026 24.6292H33.8437C33.416 24.6292 33.0074 24.4934 32.568 24.2061L31.9158 24.8575C31.9316 24.8675 31.9445 24.8791 31.9587 24.8916C32.5768 25.3198 33.1927 25.5372 33.8437 25.5372H43.7093L42.8026 24.6292Z" fill="#BBBDBF"/>
<path d="M67.1592 3.66102H67.1609L66.2529 2.75391V7.31872L67.1592 8.22587V3.66102Z" fill="white"/>
<path d="M66.1851 21.0758L67.0926 21.9813V10.9849L66.1851 11.8912V21.0758Z" fill="white"/>
<path d="M53.0283 11.9003V10.9932L52.1216 11.9003V25.5373L53.0283 24.6293V11.9003Z" fill="white"/>
<path d="M46.0077 24.6291V8.24993L45.1018 7.34277V25.5371L46.0077 24.6291Z" fill="white"/>
<path d="M38.9673 10.9932L38.0623 11.9003V14.1623L38.9673 15.069V10.9932Z" fill="white"/>
<path d="M38.0623 18.7183V21.014L38.9673 21.922V17.812L38.0623 18.7183Z" fill="white"/>
<path d="M17.862 8.24993L16.9548 7.34277V25.5688L17.862 24.66V8.24993Z" fill="white"/>
<path d="M10.7234 24.665L9.81543 25.5663V26.7175L10.7234 27.6197V24.665Z" fill="white"/>
<path d="M9.81543 21.0309L10.7234 21.9314V10.9858L9.81543 11.8888V21.0309Z" fill="white"/>
<path d="M4.19724 24.1776C3.71616 23.8427 3.65329 23.5329 3.65329 23.2996V9.62017C3.65329 9.38943 3.71492 9.03706 4.24139 8.66222L4.24804 8.65765L4.25346 8.6539C4.27013 8.64055 4.28928 8.63138 4.30634 8.61974L3.65952 7.97168C3.04686 8.42773 2.75117 8.9846 2.74866 9.60601H2.7478V23.3071C2.74947 23.9502 3.06021 24.4883 3.67829 24.9181C3.68579 24.924 3.69453 24.9282 3.70243 24.9331L4.35385 24.2809C4.30259 24.2476 4.25013 24.2151 4.19724 24.1776Z" fill="white"/>
<path d="M31.9391 7.99707C31.3276 8.45521 31.0349 9.01332 31.0349 9.64057H31.0344V13.0134L31.942 12.1058V9.64057C31.942 9.58474 31.9453 9.52059 31.9578 9.45231C31.9599 9.45065 31.9599 9.4498 31.9599 9.44728C31.9653 9.41815 31.9741 9.38731 31.9845 9.35567C31.9857 9.3494 31.9866 9.34317 31.9886 9.33652C31.9974 9.314 32.0082 9.2882 32.0195 9.2632C32.0253 9.24904 32.0291 9.23446 32.0369 9.21821C32.0419 9.20989 32.0503 9.19991 32.0544 9.19074C32.0932 9.117 32.1423 9.04245 32.2136 8.96248C32.2136 8.96248 32.214 8.96248 32.214 8.96125C32.2927 8.87377 32.3922 8.7834 32.5214 8.69012L32.5276 8.68675L32.5326 8.68262C32.5509 8.66884 32.5692 8.65805 32.5872 8.64556L31.9391 7.99707Z" fill="white"/>
<path d="M60.1781 23.6731C60.1778 23.6725 60.1771 23.6714 60.176 23.6698C60.1681 23.6539 60.161 23.6373 60.154 23.6198C60.1469 23.6006 60.1369 23.5815 60.131 23.5631C60.131 23.5615 60.131 23.5581 60.129 23.5565C60.0952 23.4532 60.0861 23.3591 60.0861 23.2741V9.61792V9.61711C60.0861 9.58546 60.0877 9.5513 60.0915 9.5159C60.0923 9.50631 60.0939 9.49633 60.0952 9.48716C60.0989 9.45799 60.1048 9.42843 60.1111 9.39759C60.1135 9.38638 60.1181 9.37469 60.1202 9.36386C60.129 9.33098 60.1389 9.29971 60.1527 9.2664C60.1581 9.25391 60.1623 9.24226 60.1685 9.22977C60.1847 9.19394 60.2043 9.1556 60.2289 9.11688C60.2318 9.10899 60.2347 9.10229 60.2402 9.09483V9.09355C60.2414 9.09188 60.2451 9.08856 60.2464 9.08647C60.2564 9.07107 60.2685 9.05482 60.281 9.03985C60.298 9.01486 60.3168 8.99068 60.3388 8.96654C60.353 8.94986 60.3651 8.93361 60.3817 8.9174C60.4067 8.89075 60.4355 8.8649 60.4642 8.83616C60.4805 8.82285 60.4938 8.80826 60.5109 8.7941C60.5584 8.75205 60.6092 8.71081 60.67 8.66833L60.675 8.66334L60.6808 8.65997C60.7229 8.62956 60.3851 8.69166 60.4267 8.665L60.1506 7.92529C60.1494 7.92696 60.1469 7.92777 60.1439 7.92819C59.4888 8.39508 59.1772 8.97195 59.1772 9.61792V23.2741C59.1772 23.8997 59.4713 24.4261 60.0573 24.8493L60.7079 24.197C60.6808 24.1804 60.6525 24.1637 60.6254 24.1437C60.3868 23.978 60.2526 23.8197 60.1781 23.6731Z" fill="white"/>
<path d="M23.9746 25.5674V18.7294L24.8822 17.8223V25.5708L23.9746 25.5674Z" fill="white"/>
<path d="M31.942 16.422C31.942 16.2883 31.9795 16.1671 32.0582 16.0393C32.1602 15.8751 32.3277 15.7085 32.5563 15.5444L32.5634 15.539L32.5692 15.5357C32.6017 15.5103 32.6334 15.489 32.6663 15.467L32.0153 14.8164C31.3743 15.2812 31.0349 15.8173 31.0349 16.422H31.0344V23.2763C31.0344 24.2767 31.9149 24.8574 31.9149 24.8574L32.5672 24.2059C32.0007 23.9127 31.942 23.2763 31.942 23.2763V16.422Z" fill="white"/>
<path d="M71.0347 3.66102L71.9431 2.75391H66.2529L67.1609 3.66102H71.0347Z" fill="#BBBDBF"/>
<path d="M179.909 9.22877L178.996 8.3916V12.9773L179.877 12.0535L179.909 9.22877Z" fill="white"/>
<path d="M96.5854 3.64653L97.4621 2.74023H91.8115L92.6933 3.64653H96.5854Z" fill="#BBBDBF"/>
<path d="M23.9726 14.1675H22.604L21.6973 15.0746H24.8801L23.9726 14.1675Z" fill="#BBBDBF"/>
<path d="M23.9746 14.1676L24.8822 15.0747V10.998L23.9746 11.9043V14.1676Z" fill="white"/>
<path d="M28.8662 24.6602H25.441H24.8399L23.9707 25.5689H29.6285L28.8662 24.6602Z" fill="#BBBDBF"/>
<path d="M3.8139 24.4678C3.8139 24.4678 3.97469 24.6677 3.70898 24.9326C3.70898 24.9326 3.97136 25.1158 4.11505 25.1816L4.44366 24.861C4.44366 24.861 4.16128 24.7226 3.8139 24.4678Z" fill="#BBBDBF"/>
<path d="M3.97935 8.2828C3.97935 8.2828 4.17093 8.09868 3.90893 7.79297C3.90893 7.79297 3.56782 8.02873 3.50952 8.08785L3.74149 8.32694L3.97935 8.2828Z" fill="white"/>
<path d="M32.2669 8.31678C32.2669 8.31678 32.4568 8.02186 32.2473 7.78613C32.2473 7.78613 31.8341 8.06143 31.7683 8.14017L32.0965 8.46127L32.2669 8.31678Z" fill="white"/>
<path d="M60.3771 8.31659C60.3771 8.31659 60.5741 8.01545 60.3646 7.7793C60.3646 7.7793 59.9448 8.06125 59.8794 8.13998L60.1413 8.50732L60.3771 8.31659Z" fill="white"/>
<path d="M32.0076 14.8258C32.0076 14.8258 32.3333 15.0857 32.11 15.309C32.11 15.309 32.4778 15.0116 32.6086 14.9591L32.2237 14.6709L32.0076 14.8258Z" fill="#BBBDBF"/>
<path d="M32.2319 24.5459C32.2319 24.5459 32.3981 24.8608 32.1003 24.9915C32.1003 24.9915 31.8821 24.8341 31.7163 24.7033L32.2319 24.5459Z" fill="white"/>
<path d="M60.4254 24.5595C60.4254 24.5595 60.5495 24.9002 60.3471 25.0401C60.3471 25.0401 60.238 24.9918 59.9231 24.7469L60.2351 24.4346L60.4254 24.5595Z" fill="white"/>
<path d="M78.8737 24.6401C78.8737 24.6401 79.0395 24.9109 78.8645 25.1208C78.8645 25.1208 78.6463 24.9891 78.4539 24.8234L78.8737 24.6401Z" fill="white"/>
<path d="M106.995 24.6401C106.995 24.6401 107.334 24.8542 106.934 25.0858C106.934 25.0858 106.626 24.88 106.501 24.7626L106.995 24.6401Z" fill="white"/>
<path d="M107.151 8.19946C107.151 8.19946 107.505 7.98953 107.184 7.72754C107.184 7.72754 106.934 7.85834 106.581 8.1403L107.151 8.19946Z" fill="white"/>
<path d="M121.225 8.25196C121.225 8.25196 121.447 8.02873 121.185 7.79297C121.185 7.79297 120.962 7.93043 120.864 8.00954L121.022 8.1995L121.225 8.25196Z" fill="white"/>
<path d="M136.259 24.6934C136.259 24.6934 136.581 24.8841 136.245 25.1732C136.245 25.1732 136.063 25.074 135.912 24.9699L136.259 24.6934Z" fill="white"/>
<path d="M152.317 8.16663C152.317 8.16663 152.608 7.94213 152.351 7.65186C152.351 7.65186 152.093 7.81678 151.882 7.98793L152.317 8.16663Z" fill="white"/>
<path d="M195.658 8.26009C195.658 8.26009 196.053 7.94858 195.796 7.65869C195.553 7.81364 195.539 7.81236 195.313 7.9952L195.658 8.26009Z" fill="white"/>
<path d="M152.542 24.1589L152.538 24.1556C152.063 23.8249 152 23.5133 152 23.2784V16.3679C152 16.2579 152 15.9281 152.619 15.4787L152.624 15.4778L152.629 15.4758C152.68 15.4375 152.731 15.4008 152.782 15.3679L152.421 15.0084L152.427 15.0105C152.427 15.0105 152.711 14.8652 152.394 14.542C152.394 14.542 152.108 14.7178 151.998 14.8206C151.41 15.2742 151.097 15.7915 151.097 16.3721V23.2726C151.097 23.9215 151.407 24.4638 152.027 24.8986C152.038 24.9044 152.048 24.9119 152.058 24.9195L152.709 24.2672C152.654 24.2339 152.599 24.1972 152.544 24.1589H152.542Z" fill="white"/>
<path d="M152.35 24.625C152.35 24.625 152.6 24.8424 152.382 25.1198C152.382 25.1198 152.197 25.0207 151.966 24.8557L152.35 24.625Z" fill="white"/>
<path d="M166.454 24.5861C166.454 24.5861 166.673 24.751 166.468 25.0875C166.468 25.0875 166.23 24.9418 166.006 24.7643L166.296 24.4736L166.454 24.5861Z" fill="white"/>
<path d="M181.557 24.5928C181.557 24.5928 181.855 24.7835 181.551 25.0875C181.551 25.0875 181.313 24.9484 181.062 24.711L181.557 24.5928Z" fill="white"/>
<path d="M195.603 24.5328C195.603 24.5328 195.815 24.7377 195.583 24.9684C195.583 24.9684 195.201 24.7377 194.931 24.4011L195.26 24.0713L195.603 24.5328Z" fill="white"/>
<path d="M197.309 24.9343C197.327 24.9352 197.655 24.936 197.655 24.936H204.484L204.525 24.9343C205.041 24.9252 205.52 24.7528 206.034 24.3946C206.639 23.9773 206.707 23.5524 206.707 23.2684V9.54976C206.707 9.08326 206.473 8.68926 205.99 8.34316H205.989C205.538 8.01037 205.044 7.84834 204.479 7.84668H197.354L197.309 7.8492C196.773 7.85666 196.295 8.0183 195.857 8.3415C195.846 8.34773 195.668 8.49103 195.668 8.49103L195.659 8.49768L195.615 8.5385C195.61 8.54434 195.519 8.63343 195.519 8.63343L195.477 8.67886C195.458 8.69924 195.406 8.76505 195.406 8.76505C195.391 8.78714 195.381 8.80088 195.381 8.80088L195.336 8.86545L195.246 9.03037C195.238 9.0508 195.223 9.08825 195.223 9.08825C195.223 9.08326 195.186 9.20404 195.181 9.21487C195.178 9.22737 195.167 9.26571 195.167 9.26571L195.144 9.40232L195.142 9.42023L195.134 9.54976C195.134 9.55142 195.134 21.5757 195.134 23.0218V23.2684C195.134 24.7478 197.309 24.9343 197.309 24.9343ZM202.219 11.2199V21.6007H199.626V11.2199H202.219Z" fill="white" stroke="#BBBDBF" stroke-width="0.9301"/>
<path d="M185.483 21.6019V12.3553H192.57V8.9912H185.483V7.09863H180.984V8.96455H179.603V12.3532C179.603 12.3532 180.613 12.3586 180.984 12.3603V23.1005C180.984 23.1005 180.987 23.3496 181.004 23.4428C181.082 23.8552 181.456 24.9798 183.202 24.9798L190.366 24.9756C190.366 24.9756 192.388 24.8706 192.5 23.3779C192.504 23.3346 192.505 23.1321 192.505 23.0872V14.7076H188.123L188.122 21.6019H185.483Z" fill="white" stroke="#BBBDBF" stroke-width="0.9301"/>
<path d="M172.934 7.85324V21.5952H170.342V7.8291H165.874V23.2762C165.874 23.302 165.896 23.5302 165.896 23.5302C165.902 23.5511 165.933 23.666 165.933 23.666C165.934 23.671 165.984 23.7951 165.984 23.7951C165.999 23.8251 166.065 23.9359 166.065 23.9359L166.075 23.9509L166.086 23.9701L166.122 24.015C166.24 24.1667 166.372 24.2908 166.542 24.4107C166.546 24.4115 166.755 24.5507 166.755 24.5507L166.766 24.5573L166.801 24.5765C166.798 24.5757 166.97 24.6706 166.97 24.6706L167.141 24.7539C167.152 24.7589 167.327 24.8272 167.327 24.8272C167.583 24.9147 167.831 24.9572 168.091 24.9572H175.185C175.445 24.9572 175.694 24.9147 175.947 24.8289C176.207 24.7364 176.469 24.5973 176.731 24.4124C177.334 23.9892 177.404 23.5619 177.404 23.2762V7.85324H172.934Z" fill="white" stroke="#BBBDBF" stroke-width="0.9301"/>
<path d="M162.516 8.32086L162.339 8.19884C161.932 7.95266 161.507 7.83691 161.032 7.83691H153.929C153.361 7.83691 152.883 7.99391 152.427 8.33212C151.94 8.67864 151.707 9.07473 151.707 9.54456V12.3259H156.169V11.203H158.776V14.702H153.929C153.515 14.702 153.144 14.8057 152.762 15.0319C152.761 15.0319 152.46 15.2339 152.46 15.2339C152.189 15.4284 151.993 15.6262 151.87 15.8253C151.761 15.9973 151.707 16.1777 151.707 16.3718V23.2723C151.707 23.5547 151.777 23.9796 152.377 24.4002C152.91 24.7692 153.403 24.9416 153.929 24.9416H163.227V9.52869C163.227 9.06057 162.994 8.66615 162.516 8.32086ZM156.169 21.6063V18.0769H158.776V21.6063H156.169Z" fill="white" stroke="#BBBDBF" stroke-width="0.9301"/>
<path d="M3.3463 9.63456V23.2999C3.3463 23.5831 3.41668 24.0079 4.02225 24.4286C4.28715 24.6127 4.55205 24.751 4.80986 24.8401C5.06269 24.9275 5.31423 24.97 5.57499 24.97H10.418V27.3149H3.3463V30.6544H12.6783C12.9362 30.6544 13.179 30.6144 13.4227 30.5311C13.6588 30.4495 13.8995 30.3262 14.1582 30.1546L14.1665 30.148C14.4243 29.9622 14.6192 29.7673 14.7392 29.5698C14.7392 29.569 14.8104 29.4332 14.8104 29.4332C14.8121 29.4316 14.8346 29.3716 14.8346 29.3716C14.83 29.3816 14.8646 29.2908 14.8646 29.2908C14.865 29.2858 14.8829 29.205 14.8829 29.205C14.885 29.19 14.895 29.1375 14.895 29.1375C14.8937 29.1483 14.9033 29.0567 14.9033 29.0567C14.9037 29.0309 14.9054 28.9867 14.9054 28.9867V7.91357L5.45877 7.91775C3.2938 8.14183 3.3463 9.63456 3.3463 9.63456ZM10.418 11.291V21.6264H7.83324V11.2914C8.27513 11.2914 9.96989 11.291 10.418 11.291Z" fill="white" stroke="#BBBDBF" stroke-width="0.7377"/>
<path d="M56.4628 8.4412C56.0043 8.10009 55.5303 7.94434 54.9668 7.94434C54.0884 7.94434 53.312 8.03428 52.6598 8.21422C52.0434 8.38247 51.5303 8.63155 51.1337 8.9556C51.1337 8.9556 50.5902 9.39958 50.152 9.75694V7.94434H45.708V24.935H50.152V11.298H52.7273V24.935H57.1692V9.63867C57.1692 9.17302 56.9389 8.7815 56.4628 8.4412Z" fill="white" stroke="#BBBDBF" stroke-width="0.7377"/>
<path d="M66.8542 3.35645V7.92045H62.007C61.4397 7.92045 60.9624 8.07706 60.5026 8.41441C60.4951 8.4194 60.3151 8.56266 60.3093 8.56599V8.56684C60.3072 8.56893 60.2439 8.62681 60.2439 8.62681L60.1602 8.71176C60.1581 8.71262 60.1148 8.76175 60.1148 8.76175C60.1132 8.76384 60.0332 8.86381 60.0328 8.86547C60.0299 8.86837 59.9936 8.91755 59.9936 8.91755C59.9799 8.94083 59.9745 8.95 59.9745 8.95C59.969 8.95875 59.8916 9.10452 59.8916 9.10452C59.8795 9.13327 59.8774 9.13992 59.8774 9.13992C59.8703 9.15574 59.8278 9.28071 59.8278 9.28071L59.8187 9.31739C59.8116 9.34443 59.7937 9.45067 59.7937 9.45067L59.7903 9.46982L59.7887 9.4873L59.7837 9.61725V23.2742L59.8474 23.6916L59.8816 23.7549L59.9024 23.8015C60.0157 24.0239 60.1944 24.2155 60.4543 24.3946C60.4518 24.3929 60.6183 24.5012 60.6183 24.5012C60.8316 24.6345 61.0357 24.7353 61.2431 24.8053C61.4972 24.8927 61.7458 24.9352 62.007 24.9352H71.3386V3.35645H66.8542ZM64.2023 21.6774V11.2899H66.7859V21.6774H64.2023Z" fill="white" stroke="#BBBDBF" stroke-width="0.7377"/>
<path d="M80.5013 25.0108H87.5606C88.0425 25.0033 88.4731 24.8675 88.91 24.5968L88.9113 24.5959L89.1037 24.4693C89.5489 24.1586 89.7601 23.8079 89.7668 23.3722L89.7676 14.8207H85.3527V21.6855H82.7429V12.4683H89.7676V9.14218H82.668C82.668 8.70485 82.6676 5.68066 82.6676 5.68066H78.2181V9.14218H76.1206V12.4683H78.2935V23.3489C78.2935 24.9366 80.5013 25.0108 80.5013 25.0108Z" fill="white" stroke="#BBBDBF" stroke-width="0.9238"/>
<path d="M106.446 23.4582C106.686 24.8668 108.645 25.0109 108.645 25.0109H115.712C116.238 25.0109 116.729 24.8402 117.256 24.472C117.855 24.0522 117.925 23.6282 117.925 23.3458V20.5286H113.468V21.6798H110.891V18.1737H117.925V9.66882C117.925 9.20318 117.693 8.81042 117.215 8.46598C116.753 8.12444 116.279 7.96826 115.713 7.96826H108.645C108.645 7.96826 106.433 8.10363 106.433 9.66882V23.255C106.437 23.2867 106.441 23.4283 106.446 23.4582ZM110.891 14.8034V11.3331H113.468V14.8034H110.891Z" fill="white" stroke="#BBBDBF" stroke-width="0.9238"/>
<path d="M132.099 11.3331V7.96826H122.767C122.199 7.96826 121.721 8.12444 121.262 8.46137C120.776 8.81042 120.541 9.20318 120.541 9.66882V25.0109H125.027V17.0192H132.099V13.653H125.027V11.3331H132.099Z" fill="white" stroke="#BBBDBF" stroke-width="0.9238"/>
<path d="M135.567 23.4533C135.56 23.4183 135.553 23.2917 135.549 23.255V12.4852H134.146V9.14237H135.549V7.32227H139.996V9.14237H147.014V12.4852H139.996V21.6523H142.603V14.8043H147.014L147.073 23.2483C147.068 23.4491 147.024 23.6373 146.942 23.7989C146.888 23.9048 146.808 23.9947 146.745 24.0805C146.26 24.7103 145.344 24.9285 144.989 24.9793C144.904 24.9918 144.81 24.996 144.81 24.996H138.269C138.269 24.996 137.498 24.9802 137.505 24.981C137.505 24.981 135.831 24.8019 135.567 23.4533Z" fill="white" stroke="#BBBDBF" stroke-width="0.7377"/>
<path d="M92.4159 25.0107H96.8625V11.3621H99.4339V25.0107H103.88V9.70194C103.88 9.23796 103.65 8.84477 103.172 8.50076L102.999 8.3833C102.604 8.13257 102.179 8.01012 101.697 8.00594C101.674 8.00513 97.9445 8.00513 96.8625 8.00513V3.34619H92.4097L92.4159 25.0107Z" fill="white" stroke="#BBBDBF" stroke-width="0.7377"/>
<path d="M43.1123 9.723V9.64056L43.1052 9.63889C43.0806 9.28401 42.9931 8.97497 42.7016 8.67928C42.2209 8.19278 41.4808 7.89125 40.799 7.94456H33.8476C33.3582 7.94456 32.9251 8.06786 32.5253 8.32064C32.5219 8.32192 32.3595 8.43434 32.3595 8.43434C32.3483 8.44185 31.9926 8.75758 31.9926 8.75758C31.9897 8.76006 31.7722 9.07161 31.7722 9.07161L31.771 9.07826L31.7427 9.14493C31.746 9.13699 31.7052 9.23487 31.7052 9.23487C31.6998 9.25863 31.6652 9.38108 31.6652 9.38108C31.664 9.39647 31.6406 9.64056 31.6406 9.64056V12.4111H36.088V11.2982H38.6624V14.7635H33.8476L33.5686 14.7826L33.5315 14.7876C33.5224 14.7885 33.2666 14.8418 33.2666 14.8418C33.2375 14.8522 32.9751 14.9451 32.9751 14.9451L32.9567 14.9542C32.9567 14.9542 32.7014 15.0867 32.7006 15.0875C32.6998 15.0883 32.624 15.1333 32.624 15.1333C32.601 15.1466 32.5528 15.1775 32.5528 15.1775C32.5515 15.1787 32.3895 15.2924 32.3895 15.2924C32.1217 15.484 31.9263 15.6806 31.8035 15.8797C31.6952 16.0538 31.6406 16.232 31.6406 16.4224V23.2767C31.6406 23.5566 31.7106 23.9781 32.3058 24.3962C32.836 24.7636 33.3245 24.9352 33.8476 24.9352H43.1123V10.1582C43.1143 10.0054 43.1177 9.86046 43.1123 9.723ZM38.6624 21.6165H36.088V18.1179H38.6624V21.6165Z" fill="white" stroke="#BBBDBF" stroke-width="0.7377"/>
<path d="M29.0596 17.598V17.5921C29.0596 17.5405 29.0525 17.2464 29.0525 17.2464L29.0475 17.0207C29.0475 16.5213 28.693 16.1923 28.2749 15.9869C28.7284 15.8045 28.7951 15.7612 28.818 15.7445C28.9558 15.6462 29.0021 15.463 29.0171 15.363L29.0221 15.3397V9.642C29.0221 9.64033 29.0129 9.49537 29.0129 9.49537C28.96 8.80649 28.2969 8.30003 27.6235 8.07595C27.6122 8.07177 27.601 8.06764 27.5889 8.06388C27.4656 8.0243 27.3419 7.99432 27.2236 7.97517H27.2191C27.1132 7.95769 27.0096 7.94852 26.9113 7.94766C26.9104 7.94933 26.9087 7.95018 26.9087 7.95099C26.8783 7.95018 26.8484 7.94434 26.8171 7.94434H17.5571V24.965H22.0028V18.1269H24.5755V24.96H29.0871L29.0596 17.598ZM24.5755 14.7699H22.0016V11.303H24.5755V14.7699Z" fill="white" stroke="#BBBDBF" stroke-width="0.7377"/>
<path d="M71.1868 24.7817L71.944 25.5372V2.75391L71.193 3.51025L71.1868 24.7817Z" fill="#9F9C9C"/>
<path d="M42.5532 8.75541C42.714 8.92324 42.8964 9.17982 42.9147 9.42471C42.9147 9.42471 42.9601 9.66713 42.9539 10.0278V24.776L43.7106 25.5374V9.64047C43.7106 9.0357 43.4424 8.49175 42.8714 8.0415L42.7348 8.17397L42.5532 8.75541Z" fill="#9F9C9C"/>
<path d="M56.8674 7.99609C57.518 8.46174 57.7675 8.99401 57.7675 9.63878V9.63959H57.7687V25.5373L57.0074 24.7735L56.9982 9.51049C56.9636 9.07231 56.6233 8.74037 56.3176 8.52755L56.8674 7.99609Z" fill="#9F9C9C"/>
<path d="M28.8912 16.2482C29.2906 16.0746 29.6276 15.7759 29.6276 15.3161V9.64174C29.6397 8.98114 29.329 8.43054 28.7396 8.01074L28.3285 8.62298C28.3285 8.62298 28.8621 8.98114 28.8638 9.56843L28.8579 15.0479C28.8579 15.0479 28.9296 15.5398 28.6938 15.6447L27.9075 15.9725C27.9075 15.9725 28.3106 16.1508 28.5605 16.3407C28.6684 16.4398 28.8775 16.678 28.8971 17.0654L28.8708 24.7973L29.6276 25.567V17.5785C29.6276 17.5785 29.6722 16.6289 28.8912 16.2482Z" fill="#9F9C9C"/>
<path d="M14.7546 28.5512C14.7546 29.0985 14.8762 29.4292 14.0833 30.0189L14.6205 30.5629C14.6205 30.5629 15.0074 30.3163 15.3081 29.7873C15.471 29.5041 15.5102 29.1901 15.5102 28.8702V7.31641C15.2078 7.61755 15.052 7.77207 14.75 8.07322C14.75 8.07322 14.7546 27.8923 14.7546 28.5512Z" fill="#9F9C9C"/>
<path d="M28.7431 8.00928L28.2104 8.53783C28.2104 8.53783 28.3958 8.6578 28.5532 8.82815L29.0776 8.30377C29.0776 8.30377 28.9139 8.12716 28.7431 8.00928Z" fill="#9F9C9C"/>
<path d="M42.238 8.50089L42.772 7.96777C42.772 7.96777 42.9286 8.07231 43.1035 8.23851L42.5704 8.77163C42.5704 8.77163 42.4396 8.63165 42.238 8.50089Z" fill="#9F9C9C"/>
<path d="M192.386 12.1595L193.166 12.97V8.39062L192.386 9.18945V12.1595Z" fill="#9F9C9C"/>
<path d="M178.01 7.24707V23.2764H178.012C178.029 23.932 177.765 24.4601 177.01 24.9616L176.432 24.381C176.432 24.381 177.316 23.9454 177.211 23.1273V8.05425L178.01 7.24707Z" fill="#9F9C9C"/>
<path d="M163.032 9.60539C163.104 8.85945 162.269 8.38425 162.269 8.38425L162.844 7.80029C162.885 7.82695 162.857 7.81531 162.898 7.84405C163.553 8.31341 163.863 8.89237 163.863 9.54461V25.5481L163.032 24.7443V9.60539Z" fill="#9F9C9C"/>
<path d="M192.309 14.9043L193.168 14.0938L193.171 23.2792C193.171 23.8914 192.86 24.4171 192.2 24.9177L191.672 24.3813C191.672 24.3813 192.341 23.9947 192.309 23.2592V14.9043Z" fill="#9F9C9C"/>
<path d="M205.767 24.3408L206.348 24.9222C206.361 24.9114 206.46 24.8489 206.472 24.8381C207.096 24.4074 207.315 23.9159 207.315 23.2679V23.2662V9.51259L207.311 9.43348C207.288 8.84662 207.021 8.35099 206.428 7.91699L205.861 8.4847C205.861 8.4847 206.535 8.89494 206.508 9.56386V23.3512C206.508 23.3512 206.535 23.7294 206.095 24.0992L205.767 24.3408Z" fill="#9F9C9C"/>
<path d="M66.1837 11.8909L66.9268 11.1421H64.0513L64.8031 11.8909H66.1837Z" fill="#BBBDBF"/>
<path d="M64.8031 21.0757L64.0513 21.8079L66.9422 21.8312L66.1837 21.0757H64.8031Z" fill="#BBBDBF"/>
<path d="M64.8036 21.0756V11.8909L64.0393 11.1362V21.8294L64.8036 21.0756Z" fill="#9F9C9C"/>
<path d="M49.9758 11.1362L50.7509 11.9001H52.1233L52.8759 11.1471L49.9758 11.1362Z" fill="#BBBDBF"/>
<path d="M49.99 24.7832L50.7509 25.5371V11.9001L49.9758 11.1362L49.99 24.7832Z" fill="#9F9C9C"/>
<path d="M36.6883 21.0139V18.7182L35.9282 17.9668V21.7719L36.6883 21.0139Z" fill="#9F9C9C"/>
<path d="M21.8447 24.8128L22.609 25.5691V18.7294L21.8447 17.9639V24.8128Z" fill="#9F9C9C"/>
<path d="M38.8087 11.1455H35.9282L36.6883 11.9002H38.0607L38.8087 11.1455Z" fill="#BBBDBF"/>
<path d="M38.8064 17.9696L35.9363 17.9688L36.686 18.7184H38.0583L38.8064 17.9696Z" fill="#BABBBA"/>
<path d="M21.8447 17.9639L22.609 18.7294H23.9759L24.729 17.9764L21.8447 17.9639Z" fill="#BABBBA"/>
<path d="M8.43818 11.8887H9.81721L10.5694 11.1415L7.68555 11.1406L8.43818 11.8887Z" fill="#BBBDBF"/>
<path d="M7.66162 11.1406V21.798L8.43507 21.0308V11.8887L7.66162 11.1406Z" fill="#9F9C9C"/>
<path d="M89.5579 12.2762L90.3659 13.0696V8.54102L89.5579 9.33988V12.2762Z" fill="#9F9C9C"/>
<path d="M146.817 12.296L147.618 13.0865V8.54004L146.817 9.33972V12.296Z" fill="#9F9C9C"/>
<path d="M131.904 16.8186L132.707 17.6216V13.0518L131.904 13.856V16.8186Z" fill="#9F9C9C"/>
<path d="M131.904 11.1464L132.707 11.9352V7.36621L131.904 8.16674V11.1464Z" fill="#9F9C9C"/>
<path d="M117.091 8.61237L117.654 8.04053C118.243 8.49743 118.527 9.04718 118.527 9.66863V18.7741L117.725 17.9719V9.62112C117.725 9.62112 117.767 9.08633 117.091 8.61237Z" fill="#9F9C9C"/>
<path d="M117.727 20.7278L118.527 19.9272V23.3459C118.527 23.9923 118.219 24.5329 117.6 24.9644C117.593 24.9702 117.516 25.0268 117.508 25.031L116.931 24.4479C116.931 24.4479 117.737 23.9764 117.724 23.3859L117.727 20.7278Z" fill="#9F9C9C"/>
<path d="M103.713 24.8541L104.475 25.6122V9.70193C104.475 9.05468 104.185 8.52033 103.568 8.04841C103.565 8.04594 103.556 8.05259 103.554 8.05012L103.011 8.58571C103.011 8.58571 103.726 9.00512 103.72 9.70649L103.713 24.8541Z" fill="#9F9C9C"/>
<path d="M88.8918 24.3778L89.4658 24.9509C90.0668 24.5219 90.3717 23.988 90.3717 23.3491H90.37V14.2178L89.5686 15.0095V23.2683C89.5686 23.2683 89.6478 23.9238 88.8918 24.3778Z" fill="#9F9C9C"/>
<path d="M146.087 24.44L146.631 24.9981C147.227 24.5983 147.627 24.0935 147.619 23.3396V14.2017L146.821 15.003V23.4055C146.821 23.4055 146.926 23.9552 146.087 24.44Z" fill="#9F9C9C"/>
<path d="M82.4624 9.34861L83.2692 8.541V5.0791L82.467 5.88125L82.4624 9.34861Z" fill="#9F9C9C"/>
<path d="M82.53 12.2759V21.8945L83.3409 21.0823V13.0693L82.53 12.2759Z" fill="#9F9C9C"/>
<path d="M96.6973 8.16514L97.4603 7.40377V2.74316L96.6973 3.50535V8.16514Z" fill="#9F9C9C"/>
<path d="M96.7092 24.8567L97.4643 25.6122V11.9636L96.7142 11.2139L96.7092 24.8567Z" fill="#9F9C9C"/>
<path d="M111.493 11.9351L110.713 11.1562L110.715 14.9805L111.493 14.2017V11.9351Z" fill="#9F9C9C"/>
<path d="M110.697 21.8603L111.491 21.0781V18.7741L110.705 17.9902L110.697 21.8603Z" fill="#9F9C9C"/>
<path d="M124.836 24.8168L125.63 25.6123V17.6213L124.836 16.835V24.8168Z" fill="#9F9C9C"/>
<path d="M124.836 13.8494L125.634 13.0514V11.9352L124.836 11.1313V13.8494Z" fill="#9F9C9C"/>
<path d="M139.801 21.8519L140.6 21.0505V13.0862L139.801 12.2891V21.8519Z" fill="#9F9C9C"/>
<path d="M139.803 9.33805L140.603 8.54003V6.71826L139.801 7.51918L139.803 9.33805Z" fill="#9F9C9C"/>
<path d="M155.975 12.1235L156.789 12.939V11.8187L155.975 10.9902V12.1235Z" fill="#9F9C9C"/>
<path d="M156.79 20.9864V18.6832L155.976 17.8818L155.967 21.8019L156.79 20.9864Z" fill="#9F9C9C"/>
<path d="M185.282 9.19945L186.103 8.3906V6.55762L185.282 7.29106V9.19945Z" fill="#9F9C9C"/>
<path d="M200.233 11.8242L199.446 11.0366L199.45 21.7789L200.233 20.9943V11.8242Z" fill="#9F9C9C"/>
<path d="M185.291 21.7954L186.101 20.9866V12.9698L185.29 12.1602L185.291 21.7954Z" fill="#9F9C9C"/>
<path d="M170.146 21.7954L170.952 20.9899V7.22461L170.146 8.03013V21.7954Z" fill="#9F9C9C"/>
<path d="M21.8369 11.1504V14.9272L22.6066 14.1675V11.9043L21.8369 11.1504Z" fill="#9F9C9C"/>
<path d="M22.6065 11.9044H23.9751L24.7352 11.1447L21.8447 11.1431L22.6065 11.9044Z" fill="#BBBDBF"/>
<path d="M241.307 5.56109H240.734V5.36865H242.108V5.56109H241.535V7.08632H241.307V5.56109Z" fill="black"/>
<path d="M242.302 5.36865H242.615L243.156 6.81225L243.7 5.36865H244.013V7.08632H243.796V5.65773H243.791L243.255 7.08632H243.06L242.523 5.65773H242.519V7.08632H242.302V5.36865Z" fill="black"/>
</svg>
