<svg width="40" height="32" viewBox="0 0 40 32" fill="none" xmlns="http://www.w3.org/2000/svg">
<path d="M36.6907 13.1406V12.6414H27.7067C27.1599 12.6414 26.6593 12.8062 26.2197 13.1311C26.1669 13.1687 26.119 13.21 26.0702 13.251C26.0189 13.2071 25.9668 13.1632 25.9104 13.1227C25.4805 12.8055 24.9806 12.6414 24.4351 12.6414H21.3635C20.816 12.6414 20.3155 12.8066 19.8759 13.1315C19.8252 13.1687 19.7785 13.2086 19.7313 13.2484C19.6838 13.2078 19.6363 13.1673 19.5844 13.1293C19.306 12.9232 18.9985 12.7799 18.6695 12.7043C18.6686 12.7043 18.1013 12.6414 18.1013 12.6414H17.4153V12.2161H26.8093V12.0422C27.0994 12.1569 27.3976 12.2161 27.7021 12.2161H33.1435V0H28.3887V1.98706H27.7021C27.1575 1.98706 26.6573 2.15259 26.216 2.4778C26.1649 2.5147 26.1179 2.55453 26.0708 2.594C26.0202 2.55123 25.9698 2.50813 25.9144 2.46903C25.4893 2.15295 24.989 1.98706 24.4409 1.98706C24.2005 1.98706 23.9736 2.00461 23.7552 2.03018V1.98706H18.9994V2.15113C18.7196 2.04371 18.4216 1.98706 18.1084 1.98706H15.0363C14.4902 1.98706 13.9897 2.15295 13.5489 2.47926C13.4983 2.51542 13.4522 2.55526 13.4056 2.594C13.355 2.55123 13.3043 2.50813 13.2489 2.46903C12.8251 2.15332 12.3242 1.98706 11.7755 1.98706H2.37073C1.82472 1.98706 1.32376 2.15259 0.882727 2.47889C0.318532 2.88303 0 3.47534 0 4.13673V10.0825C0 10.1991 0.0219265 10.3098 0.0414769 10.4213H0V14.6881H5.44295C5.54708 14.6881 5.65057 14.6793 5.75334 14.6658V17.4084H6.3653V20.7354C6.3653 21.0504 6.44806 21.4234 6.61771 21.772H6.33443C5.78569 21.772 5.28445 21.9376 4.84522 22.2628C4.28133 22.6702 3.96407 23.2618 3.96407 23.9195V26.5383H3.9975C3.97567 26.6589 3.96407 26.7758 3.96407 26.8785V29.866C3.96407 30.5285 4.28342 31.1139 4.86332 31.5133C5.31459 31.8334 5.81373 32 6.33443 32H11.7755V31.8279C12.0625 31.9408 12.361 32 12.667 32H15.7391C16.2575 32 16.7558 31.8337 17.2203 31.5067C17.3535 31.4143 17.4715 31.3101 17.5762 31.1987C17.6791 31.3083 17.7997 31.4161 17.9436 31.5191L17.9663 31.5348C18.4195 31.8436 18.9023 32 19.4016 32H22.4736C22.9921 32 23.4901 31.8337 23.9546 31.5067C24.0075 31.4698 24.0558 31.43 24.1048 31.3905C24.1557 31.4325 24.2074 31.4746 24.2633 31.5133C24.7164 31.8334 25.2149 32 25.7346 32H28.8071C29.3267 32 29.8257 31.8337 30.2894 31.506C30.8585 31.1113 31.1758 30.5271 31.1758 29.866V23.9195C31.1758 23.2632 30.8599 22.6738 30.2874 22.2587C30.224 22.2116 30.1587 22.1688 30.0924 22.129V19.394H31.9328V20.7354C31.9328 21.3255 32.2143 22.1239 32.8433 22.5759L32.8678 22.5935C33.3286 22.9059 33.7981 23.0579 34.3039 23.0579H37.3747C37.8934 23.0579 38.3911 22.8931 38.8538 22.5682C39.4283 22.1663 39.7445 21.5824 39.7445 20.925V13.1406H36.6907ZM9.38991 12.2161V12.5541C9.38991 12.5826 9.39055 12.6115 9.39184 12.6414H7.81128C7.81276 12.6115 7.81321 12.5826 7.81321 12.5541V12.2161H9.38991Z" fill="black"/>
<path d="M19.5781 13.0464C19.5805 13.0482 19.582 13.0501 19.5844 13.0519C19.5868 13.0538 19.5896 13.0549 19.5921 13.0567L19.5781 13.0464Z" fill="white"/>
<path d="M30.2811 22.1758C30.2833 22.1776 30.2854 22.1799 30.2874 22.1813C30.2906 22.1839 30.2944 22.1854 30.2974 22.1876L30.2811 22.1758Z" fill="white"/>
<path d="M10.1594 13.7119H7.70012V14.2111H7.08826V16.183H7.70012V20.6581C7.70012 20.9384 7.84857 21.3641 8.13149 21.5669C8.38607 21.7401 8.63821 21.8333 8.92258 21.8333H11.9937C12.2769 21.8333 12.5452 21.7401 12.8141 21.5519C13.0814 21.3641 13.2166 20.9384 13.2166 20.6581V16.684H10.7718V19.6723H10.1594V16.183H13.2166V14.2111H10.1594V13.7119Z" fill="white"/>
<path d="M20.3284 14.7124V20.6581C20.3284 20.9384 20.4634 21.3641 20.7312 21.5519C20.9991 21.7401 21.268 21.8333 21.5508 21.8333H24.6224C24.9052 21.8333 25.1734 21.7401 25.4424 21.5519C25.7113 21.3641 25.8445 20.9384 25.8445 20.6581V19.172H23.3839V19.6723H22.7881V18.6714H25.8445V14.7124C25.8445 14.4307 25.7113 14.1811 25.4276 13.9768C25.1734 13.7897 24.9052 13.7119 24.6224 13.7119H21.5508C21.268 13.7119 20.9991 13.7897 20.7462 13.9768C20.4634 14.1811 20.3284 14.4307 20.3284 14.7124ZM22.7881 15.6979H23.3839V16.684H22.7881V15.6979Z" fill="white"/>
<path d="M29.1324 18.1694H32.1875V16.183H29.1324V15.6979H32.1875V13.7119H27.894C27.6106 13.7119 27.3421 13.7897 27.0887 13.9768C26.8049 14.1811 26.671 14.4307 26.671 14.7124V21.8333H29.1324V18.1694Z" fill="white"/>
<path d="M38.7842 16.183V14.2111H35.73V13.7119H33.2679V14.2111H32.6566V16.183H33.2679V20.6581C33.2679 20.9384 33.4181 21.3641 33.7006 21.5669C33.9553 21.7401 34.2079 21.8333 34.4911 21.8333H37.562C37.8446 21.8333 38.1141 21.7401 38.3819 21.5519C38.6503 21.3641 38.7842 21.1291 38.7842 20.8478V16.684H36.3393V19.6723H35.73V16.183H38.7842Z" fill="white"/>
<path d="M6.85308 12.477V3.05762H2.55803C2.27568 3.05762 2.00656 3.13655 1.75261 3.32399C1.46951 3.52717 1.33496 3.77782 1.33496 4.05956V10.0054C1.33496 10.2875 1.46951 10.5213 1.73753 10.7088C2.00656 10.8962 2.27568 10.9916 2.55803 10.9916H4.3908V11.4918H1.33496V13.4628H5.63025C5.91344 13.4628 6.16703 13.3682 6.41943 13.1975C6.70326 12.9929 6.85308 12.7583 6.85308 12.477ZM4.3908 9.01842H3.79667V5.04578H4.3908V9.01842Z" fill="white"/>
<path d="M14.4039 10.7088C14.6727 10.8962 14.9394 10.9916 15.2236 10.9916H19.5185V4.05956C19.5185 3.77782 19.3842 3.52717 19.1015 3.32399C18.8454 3.13655 18.5776 3.05762 18.2957 3.05762H15.2236C14.9394 3.05762 14.6727 3.13655 14.4189 3.32399C14.1361 3.52717 14.002 3.77782 14.002 4.05956V5.53029H16.4605V5.04578H17.057V6.0309H15.2236C14.9394 6.0309 14.6865 6.1248 14.4335 6.31298C14.1503 6.51687 14.002 6.75256 14.002 7.01639V10.0054C14.002 10.2875 14.1361 10.5213 14.4039 10.7088ZM16.4605 8.01795H17.057V9.01841H16.4605V8.01795Z" fill="white"/>
<path d="M22.7949 5.04578H23.3918V10.9916H25.8487V4.05956C25.8487 3.77782 25.7154 3.52717 25.4326 3.32399C25.1801 3.13655 24.9111 3.05762 24.6281 3.05762C23.8067 3.05762 23.1963 3.23045 22.7949 3.55895V3.05762H20.3341V10.9916H22.7949V5.04578Z" fill="white"/>
<path d="M27.0684 10.7085C27.3391 10.896 27.6075 10.9913 27.8894 10.9913H32.1835V1.07031H29.7237V3.05737H27.8894C27.6075 3.05737 27.3391 3.1363 27.0843 3.32374C26.8009 3.52692 26.667 3.77757 26.667 4.05931V10.0051C26.667 10.2872 26.8009 10.5211 27.0684 10.7085ZM29.126 5.04553H29.7237V9.01817H29.126V5.04553Z" fill="white"/>
<path d="M19.0935 13.9769C18.9349 13.8585 18.7701 13.7847 18.6004 13.746C18.499 13.7226 18.3942 13.712 18.2886 13.712H16.4551V11.5335L16.4542 11.4918H13.1852V7.51698C13.1852 7.37631 13.1253 7.25171 12.9912 7.15779C12.8566 7.07996 12.7237 7.03246 12.5734 7.01639C12.7237 7.01639 12.8566 6.96997 12.9912 6.8757C13.1253 6.7975 13.1852 6.67182 13.1852 6.53186V4.05956C13.1852 3.77782 13.0503 3.52717 12.7676 3.32399C12.515 3.13655 12.2458 3.05762 11.9628 3.05762H7.66833V10.9916H10.1288V8.01795H10.7247V12.477C10.7247 12.7583 10.8748 12.9929 11.1562 13.1975C11.4103 13.3682 11.6791 13.4628 11.9628 13.4628H13.9952V21.8333H16.4551V15.698H17.05V21.8333H19.5099V14.7125C19.5099 14.4308 19.3765 14.1812 19.0935 13.9769ZM10.7247 6.0309H10.1288V5.04578H10.7247V6.0309Z" fill="white"/>
<path d="M14.6883 28.8038H14.0912V22.8423H11.6321V29.7886C11.6321 30.0699 11.7651 30.306 12.0333 30.4913C12.3017 30.6805 12.571 30.7752 12.8543 30.7752H15.9264C16.2081 30.7752 16.4775 30.6805 16.7469 30.4913C17.0126 30.306 17.1476 30.0699 17.1476 29.7886V22.8423H14.6883V28.8038Z" fill="white"/>
<path d="M20.8262 22.8423H18.3667V23.3425H17.7555V25.3131H18.3667V29.7886C18.3667 30.0699 18.517 30.306 18.7998 30.5088C19.0522 30.6805 19.3069 30.7752 19.5889 30.7752H22.6609C22.9428 30.7752 23.2118 30.6805 23.4809 30.4913C23.7487 30.306 23.8832 30.0699 23.8832 29.7886V25.8134H21.4392V28.8038H20.8262V25.3131H23.8832V23.3425H20.8262V22.8423Z" fill="white"/>
<path d="M10.3964 23.1068C10.1438 22.919 9.87473 22.8423 9.59282 22.8423H6.52172C6.2377 22.8423 5.96931 22.919 5.71627 23.1068C5.43282 23.3115 5.29907 23.5621 5.29907 23.842V25.3131H7.75888V24.8286H8.35538V25.8134H6.52172C6.2377 25.8134 5.98384 25.9091 5.73152 26.0958C5.44762 26.3016 5.29907 26.5329 5.29907 26.8011V29.7886C5.29907 30.0699 5.43282 30.306 5.70202 30.4913C5.96931 30.6805 6.2377 30.7752 6.52172 30.7752H10.8153V23.842C10.8153 23.5621 10.6803 23.3115 10.3964 23.1068ZM8.35538 28.8038H7.75888V27.8015H8.35538V28.8038Z" fill="white"/>
<path d="M29.7977 23.1068C29.5461 22.919 29.277 22.8423 28.9944 22.8423H25.9219C25.6385 22.8423 25.3705 22.919 25.1175 23.1068C24.8339 23.3115 24.6995 23.5621 24.6995 23.842V29.7886C24.6995 30.0699 24.8339 30.306 25.1023 30.4913C25.3705 30.6805 25.6385 30.7752 25.9219 30.7752H28.9944C29.277 30.7752 29.5461 30.6805 29.8145 30.4913C30.082 30.306 30.2152 30.0699 30.2152 29.7886V23.842C30.2152 23.5621 30.082 23.3115 29.7977 23.1068ZM27.757 28.8038H27.1606V24.8286H27.757V28.8038Z" fill="white"/>
</svg>
