<svg width="294" height="32" viewBox="0 0 294 32" fill="none" xmlns="http://www.w3.org/2000/svg">
<path d="M67.2286 0.93457H59.4429V5.10031H57.9915C56.8287 5.10031 55.763 5.44367 54.8224 6.12239C54.7726 6.15662 54.7315 6.19386 54.6865 6.22809C54.6306 6.18664 54.5812 6.141 54.5231 6.10098C53.6089 5.44367 52.5441 5.10031 51.382 5.10031C50.8715 5.10031 50.3944 5.13495 49.9321 5.1892V5.10031H39.6501V5.30372C39.1764 5.17059 38.6801 5.10031 38.1654 5.10031H31.5575C30.3946 5.10031 29.3295 5.44367 28.3875 6.12239C28.3405 6.15662 28.2984 6.19386 28.252 6.22809C28.1957 6.18664 28.1477 6.13961 28.089 6.10098C27.1779 5.44367 26.1115 5.10031 24.9483 5.10031H5.12295C3.96314 5.10031 2.89583 5.44367 1.95383 6.12239C0.704718 6.9955 0 8.29128 0 9.74738V22.205C0 22.4002 0.0440372 22.5818 0.069459 22.7706H0V32.0001H11.7323C12.8104 32.0001 13.8097 31.6826 14.7927 31.0291L14.8402 30.997C16.596 29.7698 16.8573 28.2077 16.8573 27.3847V26.8191H30.0747V26.5998C30.5592 26.7446 31.0533 26.8191 31.5575 26.8191H56.5058V26.6012C56.9917 26.7446 57.487 26.8191 57.9915 26.8191H69.7243V0.93457H67.2286Z" fill="black"/>
<path d="M136.637 6.15043V5.10031H117.4C116.237 5.10031 115.17 5.44367 114.228 6.12099C114.18 6.15662 114.139 6.19386 114.093 6.22809C114.039 6.18664 113.991 6.141 113.934 6.10238C113.017 5.44367 111.953 5.10031 110.792 5.10031H104.182C103.022 5.10031 101.956 5.44367 101.013 6.12099C100.965 6.15662 100.922 6.19386 100.876 6.22809C100.823 6.18664 100.772 6.141 100.714 6.10098C99.8025 5.44367 98.7352 5.10031 97.5755 5.10031H96.1226V0.93457H85.8427V6.15043H82.9066V5.10031H72.6242V6.15043H71.3098V15.3759H72.6242V22.205C72.6242 23.0281 72.8875 24.5891 74.6401 25.8178L74.6922 25.8517C75.6756 26.5023 76.6762 26.8191 77.7494 26.8191H84.3585C84.8624 26.8191 85.3567 26.7446 85.8427 26.6012V26.8191H102.699V26.6012C103.184 26.7446 103.678 26.8191 104.182 26.8191H110.792C111.294 26.8191 111.792 26.7446 112.273 26.6012V26.8191H122.556V19.539H126.355V22.205C126.355 23.0267 126.618 24.5885 128.372 25.8178L128.421 25.8476C129.387 26.4931 130.417 26.8191 131.478 26.8191H138.089C139.188 26.8191 140.247 26.4775 141.236 25.8036L141.244 25.7988C142.515 24.9273 143.214 23.65 143.214 22.205V6.15043H136.637Z" fill="black"/>
<path d="M200.641 6.10078C199.726 5.44346 198.661 5.1001 197.502 5.1001H190.891C189.734 5.1001 188.666 5.44346 187.724 6.12078C187.712 6.12857 187.699 6.1394 187.689 6.15022H182.832V5.1001H158.466V5.30351C157.994 5.17038 157.498 5.1001 156.984 5.1001H150.377C149.214 5.1001 148.148 5.44346 147.207 6.12218C145.958 6.9953 145.253 8.28943 145.253 9.74717V15.3757H145.298C145.269 15.5861 145.253 15.7807 145.253 15.9419V22.2048C145.253 23.6523 145.953 24.9295 147.225 25.7994C148.221 26.4773 149.281 26.8189 150.377 26.8189H162.11V26.601C162.594 26.7444 163.088 26.8189 163.593 26.8189H170.201C171.299 26.8189 172.355 26.4773 173.347 25.8034L173.351 25.7994C173.569 25.6512 173.763 25.4863 173.948 25.3151C174.13 25.4863 174.335 25.6546 174.568 25.8176L174.615 25.8474C175.583 26.4929 176.612 26.8189 177.675 26.8189H184.284C185.381 26.8189 186.441 26.4773 187.432 25.8034L187.434 25.7994C187.489 25.7634 187.536 25.7217 187.587 25.6825C187.638 25.7217 187.685 25.7618 187.737 25.7986C188.743 26.4773 189.8 26.8189 190.891 26.8189H197.502C198.596 26.8189 199.656 26.4773 200.647 25.8054C201.926 24.9295 202.625 23.6523 202.625 22.2048V9.74717C202.625 8.28943 201.92 6.9953 200.641 6.10078Z" fill="black"/>
<path d="M9.16553 19.9733H7.88357V11.6472H9.16553V19.9733ZM14.4597 27.2203V7.48242H5.2226C4.61133 7.48242 4.03434 7.64877 3.49019 8.04121C2.87953 8.46543 2.58984 8.9926 2.58984 9.58362V22.0403C2.58984 22.6309 2.87953 23.1216 3.45693 23.5166C4.03434 23.909 4.61133 24.1066 5.2226 24.1066H9.16553V25.1563H2.58984V29.2857H11.8275C12.4383 29.2857 12.9825 29.0891 13.5295 28.7291C14.1377 28.3022 14.4597 27.8093 14.4597 27.2203Z" fill="white"/>
<path d="M22.3826 13.7141H21.0996V11.6472H22.3826V13.7141ZM27.6757 24.1066V16.8264C27.6757 16.5327 27.5472 16.269 27.2569 16.0732C26.9706 15.9123 26.6809 15.8123 26.3614 15.7781C26.6809 15.7781 26.9706 15.6788 27.2569 15.4836C27.5472 15.321 27.6757 15.058 27.6757 14.7608V9.58362C27.6757 8.9926 27.3866 8.46543 26.7774 8.04121C26.2318 7.64877 25.6558 7.48242 25.0456 7.48242H15.8069V24.1066H21.0996V17.8755H22.3826V24.1066H27.6757Z" fill="white"/>
<path d="M35.6002 19.9733H34.3173V17.8755H35.6002V19.9733ZM40.8914 24.1066V9.58362C40.8914 8.9926 40.6032 8.46543 39.9944 8.04121C39.4478 7.64877 38.8719 7.48242 38.2612 7.48242H31.6543C31.0444 7.48242 30.465 7.64877 29.92 8.04121C29.3122 8.46543 29.0239 8.9926 29.0239 9.58362V12.6634H34.3173V11.6472H35.6002V13.7141H31.6543C31.0444 13.7141 30.4985 13.9089 29.9513 14.3024C29.3435 14.729 29.0239 15.2197 29.0239 15.7781V22.0403C29.0239 22.6309 29.3122 23.1216 29.8886 23.5166C30.465 23.909 31.0444 24.1066 31.6543 24.1066H40.8914Z" fill="white"/>
<path d="M48.8169 24.1066V11.6472H47.5315V24.1066H42.2378V7.48242H47.5315V8.5339C48.3976 7.84497 49.714 7.48242 51.4774 7.48242C52.0873 7.48242 52.6655 7.64877 53.2107 8.04121C53.8199 8.46543 54.1092 8.9926 54.1092 9.58362V24.1066H48.8169Z" fill="white"/>
<path d="M62.0301 19.9735H60.7476V11.6474H62.0301V19.9735ZM67.3259 24.1068V3.31982H62.0301V7.48261H58.086C57.4778 7.48261 56.8979 7.64896 56.3534 8.0414C55.7421 8.46561 55.4548 8.99279 55.4548 9.58381V22.0405C55.4548 22.6311 55.7421 23.1218 56.3216 23.5168C56.8979 23.9092 57.4778 24.1068 58.086 24.1068H67.3259Z" fill="white"/>
<path d="M86.2188 23.5166C85.6405 23.909 85.0631 24.1066 84.4524 24.1066H77.8463C77.2356 24.1066 76.6891 23.909 76.1455 23.5492C75.5347 23.1216 75.2157 22.6309 75.2157 22.0403V12.6634H73.8979V8.5339H75.2157V7.48242H80.5102V8.5339H87.0836V12.6634H80.5102V19.9733H81.8256V13.7141H87.0836V22.0403C87.0836 22.6309 86.7953 23.1216 86.2188 23.5166Z" fill="white"/>
<path d="M95.0086 24.1068V11.6474H93.7235V24.1068H88.4299V3.31982H93.7235V7.48261H97.6706C98.2802 7.48261 98.8567 7.64896 99.4018 8.0414C100.01 8.46561 100.303 8.99279 100.303 9.58381V24.1068H95.0086Z" fill="white"/>
<path d="M108.222 13.7141H106.94V11.6472H108.222V13.7141ZM113.516 22.0403V18.9266H108.222V19.9733H106.94V17.8755H113.516V9.58362C113.516 8.9926 113.226 8.46543 112.618 8.04121C112.072 7.64877 111.495 7.48242 110.886 7.48242H104.278C103.668 7.48242 103.091 7.64877 102.542 8.04121C101.935 8.46543 101.646 8.9926 101.646 9.58362V22.0403C101.646 22.6309 101.935 23.1216 102.511 23.5166C103.091 23.909 103.668 24.1066 104.278 24.1066H110.886C111.495 24.1066 112.072 23.909 112.649 23.5166C113.226 23.1216 113.516 22.6309 113.516 22.0403Z" fill="white"/>
<path d="M120.156 16.8264V24.1066H114.864V9.58362C114.864 8.9926 115.151 8.46543 115.763 8.04121C116.306 7.64877 116.883 7.48242 117.495 7.48242H126.734V11.6472H120.156V12.6634H126.734V16.8264H120.156Z" fill="white"/>
<path d="M139.95 23.5166C139.374 23.909 138.794 24.1066 138.186 24.1066H131.575C130.97 24.1066 130.423 23.909 129.876 23.5492C129.269 23.1216 128.945 22.6309 128.945 22.0403V12.6634H127.633V8.5339H128.945V7.48242H134.239V8.5339H140.815V12.6634H134.239V19.9733H135.554V13.7141H140.815V22.0403C140.815 22.6309 140.526 23.1216 139.95 23.5166Z" fill="white"/>
<path d="M154.42 19.9733H153.138V17.8755H154.42V19.9733ZM159.713 24.1066V9.58362C159.713 8.9926 159.422 8.46543 158.815 8.04121C158.27 7.64877 157.692 7.48242 157.08 7.48242H150.476C149.865 7.48242 149.285 7.64877 148.742 8.04121C148.133 8.46543 147.843 8.9926 147.843 9.58362V12.6634H153.138V11.6472H154.42V13.7141H150.476C149.865 13.7141 149.321 13.9089 148.775 14.3024C148.165 14.729 147.843 15.2197 147.843 15.7781V22.0403C147.843 22.6309 148.133 23.1216 148.709 23.5166C149.285 23.909 149.865 24.1066 150.476 24.1066H159.713Z" fill="white"/>
<path d="M172.065 23.5166C171.486 23.909 170.908 24.1066 170.3 24.1066H163.693C163.079 24.1066 162.505 23.909 161.926 23.5166C161.35 23.1216 161.062 22.6309 161.062 22.0403V7.48242H166.353V19.9733H167.636V7.48242H172.931V22.0403C172.931 22.6309 172.642 23.1216 172.065 23.5166Z" fill="white"/>
<path d="M186.145 23.5166C185.569 23.909 184.99 24.1066 184.382 24.1066H177.776C177.162 24.1066 176.618 23.909 176.073 23.5492C175.464 23.1216 175.143 22.6309 175.143 22.0403V12.6634H173.827V8.5339H175.143V7.48242H180.436V8.5339H187.013V12.6634H180.436V19.9733H181.752V13.7141H187.013V22.0403C187.013 22.6309 186.722 23.1216 186.145 23.5166Z" fill="white"/>
<path d="M194.936 19.9733H193.653V11.6472H194.936V19.9733ZM200.228 22.0403V9.58362C200.228 8.9926 199.938 8.46543 199.329 8.04121C198.787 7.64877 198.207 7.48242 197.599 7.48242H190.991C190.38 7.48242 189.801 7.64877 189.257 8.04121C188.647 8.46543 188.357 8.9926 188.357 9.58362V22.0403C188.357 22.6309 188.647 23.1216 189.225 23.5166C189.801 23.909 190.38 24.1066 190.991 24.1066H197.599C198.207 24.1066 198.787 23.909 199.362 23.5166C199.938 23.1216 200.228 22.6309 200.228 22.0403Z" fill="white"/>
<path d="M292.473 11.3779H292.162V12.2071H291.964V11.3779H291.654V11.2319H292.473V11.3779ZM293.235 11.9291L293.491 11.2319H293.761V12.2071H293.583V11.4018L293.282 12.2071H293.183L292.868 11.4018V12.2071H292.688V11.2319H292.96L293.235 11.9291H293.235Z" fill="black"/>
<path d="M289.376 11.3317L289.265 11.2399L289.125 11.2034C288.819 11.1226 288.533 11.0817 288.277 11.0817C287.6 11.0817 287.197 11.3649 286.978 11.6027C286.699 11.9056 286.567 12.2869 286.51 12.6629L285.302 11.2652L284.848 11.4889C284.707 11.5584 283.905 11.9544 283.229 12.2919C283.164 12.0096 283.047 11.7729 282.877 11.5787C282.681 11.3549 282.321 11.0886 281.715 11.0886C281.464 11.0886 281.222 11.1355 281.025 11.1911C280.447 10.5803 279.341 9.41559 279.208 9.28922L278.715 8.82011L278.266 9.33113C278.043 9.58411 277.454 9.77433 277.153 9.82054C276.484 9.78429 276.024 9.86207 275.688 9.9768L273.543 6.85057L270.574 8.71399L268.852 6.2338L267.031 7.40616L265.749 6.07639L264.313 7.16744L263.206 5.97946L262.68 6.34402L256.816 0.436476L255.785 0.597372L255.837 4.69775L255.108 5.36589L253.87 4.40417L252.159 6.05327C251.731 5.68719 251.043 5.26564 250.1 5.20578L249.603 5.17416L249.44 5.64447C249.289 6.08082 249.096 6.40401 248.903 6.6417L248.913 3.85182L249.1 3.25785C249.387 2.99588 249.906 2.42049 249.875 1.71245C249.845 1.02389 249.307 0.418394 248.435 0.0931177L248.186 0L247.942 0.107592C247.889 0.131004 247.838 0.149292 247.79 0.167087C247.687 0.205138 247.57 0.248355 247.447 0.318347L247.391 0.35443C247.283 0.4309 247.13 0.560879 246.888 0.766509C246.723 0.907149 246.432 1.15452 246.225 1.3148C246.14 1.28019 246.057 1.2453 245.975 1.21106C245.591 1.05029 245.229 0.898498 244.842 0.813581C244.147 0.648011 243.478 0.563873 242.853 0.563873C238.902 0.563873 237.179 3.90549 236.661 6.29805L236.395 6.14761L235.794 6.74925L234.4 5.8984L232.817 7.5108C232.441 7.19725 231.863 6.84364 231.067 6.69701L230.501 6.59278L230.325 7.14038C230.244 7.39324 229.948 7.83181 229.734 8.04523C229.216 7.7535 228.846 7.51424 228.765 7.45475L228.076 6.95402L227.769 7.74849C227.496 8.45719 227.209 8.45719 227.086 8.45719C226.739 8.45719 226.25 8.20117 225.958 8.04892C225.638 7.88101 225.347 7.71442 225.122 7.58526C224.657 7.31911 224.532 7.24764 224.318 7.24764H223.81L223.684 7.73988C223.678 7.76149 223.656 7.80672 223.633 7.85457C223.596 7.9287 223.558 8.00784 223.521 8.10194L223.507 8.14265C223.305 8.7887 222.943 9.11619 222.432 9.11619C222.353 9.11619 222.299 9.10721 222.297 9.10721H222.298L221.651 8.95726L221.511 9.60658C221.511 9.60658 221.116 11.4283 221.06 11.6939L220.965 12.1395L221.35 12.3832C222.117 12.8686 222.534 13.3624 222.556 13.8112C222.561 13.9246 222.542 14.0326 222.508 14.1331C222.003 13.4265 221.092 12.474 219.569 11.8266C219.948 10.8201 220.702 8.84422 221.139 7.69863L221.328 7.20443L218.286 5.22997L218.003 5.72221L213.875 2.75511L213.49 3.05037C213.319 3.18154 209.412 6.22843 209.604 10.5735C208.37 11.6488 208.116 14.0889 208.092 14.3642C208.074 14.5028 207.728 17.425 209.578 19.3079C207.494 20.681 207.388 22.6061 207.56 24.2094C208.043 27.3278 209.73 27.9821 211.059 27.9821C212.523 27.9821 214.015 27.1578 214.721 26.7077L217.284 28.6916L217.685 28.379C217.816 28.2776 220.574 26.1042 222.302 22.929C223.201 24.0967 224.45 24.3603 224.517 24.3736L224.861 24.4424L226.59 22.7026C226.986 23.0004 227.568 23.334 228.193 23.334L228.481 23.3286L228.665 23.1547C228.705 23.1175 228.819 23.0091 230.444 20.9081L232.064 21.9272L233.845 20.2189C234.25 20.6957 234.935 21.1954 236.006 21.1263L236.252 21.1093L236.425 20.9341C236.603 20.7552 236.959 20.4068 237.254 20.1199C237.58 20.3902 238.042 20.6565 238.601 20.6565C239.309 20.6565 239.937 20.2455 240.467 19.4356C240.591 19.2458 240.679 19.0576 240.743 18.8288C241.132 19.019 241.798 19.4303 242.845 20.3184L243.305 20.7077L243.731 20.2828C243.946 20.0676 244.499 19.534 244.918 19.13C245.291 19.5107 245.868 19.913 246.634 19.913C247.374 19.913 248.111 19.5353 248.829 18.7882C249.198 19.1027 249.741 19.5752 250.238 20.0138L250.655 20.3805L252.562 18.8275C252.912 19.3727 253.517 20.0111 254.481 20.1651L254.806 20.2172L255.042 19.9872C255.247 19.7874 256.13 18.9715 256.604 18.5339C257.11 18.7779 258.188 19.4206 259.582 20.9421L259.938 21.3307L260.393 21.066C260.411 21.0554 260.481 21.0075 260.59 20.9254C262.004 19.8565 262.867 19.409 263.383 19.2341C264.092 19.8581 265.84 21.3669 266.073 21.5678L266.459 21.9013L268.67 20.3469L272.716 23.8759L274.455 22.271C274.801 23.2196 275.481 24.4993 276.703 24.9209L276.976 25.015L277.229 24.877C277.288 24.8448 277.448 24.758 278.388 23.9072C278.687 24.3743 279.174 24.9203 279.936 25.2833L280.042 25.414H280.356C280.504 25.414 280.621 25.3748 280.754 25.287C281.35 25.7797 282.324 26.4673 283.11 26.4673C283.243 26.4673 283.371 26.4487 283.49 26.4121C283.672 26.3699 283.817 26.2834 283.931 26.1943C284.357 26.6565 285.056 27.6177 285.494 28.269L286.039 29.0666L286.583 28.2647C286.613 28.2201 287.343 27.1738 289.149 27.1685L289.725 27.1668L289.796 26.5953C290.434 21.4856 289.742 19.4744 289.056 18.6861C289.389 18.1787 289.869 17.3682 290.22 16.4402C291.272 13.6636 290.342 12.1295 289.376 11.3316L289.376 11.3317Z" fill="black"/>
<path fill-rule="evenodd" clip-rule="evenodd" d="M213.889 3.5699L218.211 6.67731L218.51 6.1553L220.529 7.46526C220.529 7.46526 218.873 11.8015 218.728 12.2091C221.612 13.1604 222.432 15.3063 222.432 15.3063C222.432 15.3063 224.602 13.6675 221.7 11.8305C221.757 11.5648 222.151 9.74515 222.151 9.74515C222.151 9.74515 223.588 10.079 224.132 8.33842C224.201 8.16154 224.28 8.05316 224.318 7.90219C224.394 7.90219 224.955 8.26195 225.655 8.62868C226.586 9.1151 227.74 9.64342 228.38 7.98432C228.523 8.08839 229.063 8.43052 229.733 8.79196C230.168 8.73775 230.803 7.79452 230.949 7.34098C232.235 7.57769 232.816 8.44749 232.816 8.44749L234.503 6.72787L235.894 7.57638L236.507 6.96195L237.161 7.33102C237.161 7.33102 237.856 -0.18113 244.69 1.45034C245.208 1.56404 245.71 1.82769 246.304 2.04849C246.612 1.90252 247.517 1.06897 247.771 0.887079C247.899 0.814299 248.043 0.778708 248.207 0.706543C248.899 0.964575 249.206 1.37616 249.221 1.7406C249.248 2.34338 248.533 2.88134 248.533 2.88134L248.259 3.75048L248.245 7.90219C248.245 7.90219 249.458 7.5943 250.059 5.85877C251.433 5.94619 252.141 6.97987 252.141 6.97987L253.917 5.26861L255.144 6.22185L255.827 5.59545C255.827 5.59545 257.082 7.03777 257.176 7.13552C256.729 7.86197 256.648 8.11303 256.782 8.19745C256.848 8.24071 256.955 8.28655 257.108 8.15756C257.452 7.84901 257.816 7.5139 257.816 7.5139L256.505 5.69353L256.447 1.1568L256.588 1.13486L262.603 7.19473L263.114 6.8403L264.238 8.04652L265.682 6.94933L266.933 8.24768L268.676 7.12621L270.393 9.60058L273.359 7.739L275.486 10.8387C275.486 10.8387 275.816 10.3879 277.176 10.4777C277.502 10.4418 278.353 10.2233 278.758 9.76348C278.916 9.91445 280.844 11.9512 280.844 11.9512C280.844 11.9512 282.923 10.9488 282.603 13.3437C282.868 13.196 285.138 12.0759 285.138 12.0759L286.874 14.0847C286.874 14.0847 287.255 14.4119 287.165 14.0901C287.238 13.7772 286.549 11.2025 288.96 11.8362C291.769 14.1579 288.151 18.8396 288.151 18.8396C288.151 18.8396 290.066 19.1618 289.148 26.5143C286.929 26.5207 286.037 27.9041 286.037 27.9041C286.037 27.9041 284.718 25.9408 284.12 25.4706C283.83 25.1814 283.648 25.7247 283.322 25.7788C282.524 26.0681 280.763 24.4246 280.763 24.4246C280.763 24.4246 280.339 24.8143 280.353 24.7531C278.952 24.1646 278.594 22.8307 278.594 22.8307C278.594 22.8307 277.13 24.1862 276.917 24.3023C275.309 23.7477 274.791 21.0709 274.791 21.0709L272.704 22.9969L268.714 19.5165L266.501 21.0725C266.501 21.0725 263.787 18.7305 263.557 18.5111C262.238 18.7628 260.159 20.4455 260.065 20.5003C257.924 18.1636 256.467 17.772 256.467 17.772C256.467 17.772 254.878 19.2336 254.585 19.5192C253.246 19.305 252.785 17.8022 252.785 17.8022L250.672 19.5231C250.672 19.5231 248.822 17.8926 248.75 17.8833C246.43 20.8105 244.987 18.1556 244.987 18.1556C244.987 18.1556 243.638 19.4517 243.269 19.8193C240.955 17.8567 240.254 18.0027 240.216 18.0196C240.165 18.5728 240.084 18.8265 239.92 19.0773C238.604 21.0891 237.271 19.1919 237.271 19.1919C237.271 19.1919 236.297 20.1349 235.961 20.4733C234.484 20.5748 233.971 19.1919 233.971 19.1919L231.98 21.1014L230.29 20.0378C230.29 20.0378 228.349 22.5537 228.216 22.6793C227.395 22.6957 226.559 21.8059 226.559 21.8059C226.559 21.8059 224.615 23.7532 224.645 23.732C224.676 23.7104 222.899 23.3839 222.274 21.4824C220.724 25.1813 217.284 27.8631 217.284 27.8631L214.747 25.8998C214.747 25.8998 209.134 30.0927 208.207 24.1094C208.016 22.3233 208.252 20.5747 210.739 19.4107C208.306 17.8566 208.741 14.447 208.741 14.447C208.741 14.447 208.995 11.6196 210.282 10.8891C209.865 6.65259 213.888 3.56978 213.888 3.56978L213.889 3.5699ZM216.124 10.8327L214.788 10.0005C214.788 10.0005 214.529 10.6681 214.72 11.0508C215.17 11.6908 215.838 11.6104 215.838 11.6104L216.124 10.8327ZM216.254 20.0764C216.857 20.3837 216.315 20.9246 216.315 20.9246L215.467 20.4352C215.467 20.4352 215.59 19.8111 216.254 20.0764ZM212.066 24.1906C211.602 24.2451 211.621 23.7175 211.621 23.7175C211.621 23.7175 211.629 23.3155 211.877 23.1745C212.202 22.9903 212.941 23.7371 212.941 23.7371C212.733 24.0676 212.066 24.1906 212.066 24.1906V24.1906ZM225.237 12.8163L225.66 12.911L225.647 14.357C225.647 14.357 225.401 14.486 225.374 14.1396C225.421 13.4101 225.237 12.8163 225.237 12.8163H225.237ZM225.153 16.2678C225.153 16.2678 225.327 16.3675 225.635 16.569C225.606 17.1589 225.529 18.5057 225.529 18.5057C225.529 18.5057 225.465 19.2043 225.364 18.928C225.023 18.3778 225.153 16.2678 225.153 16.2678ZM229.476 12.507C229.477 11.8664 229.666 11.8241 229.666 11.8241C229.666 11.8241 229.885 11.6219 229.898 12.3285C229.902 12.504 229.894 17.8776 229.884 17.9697C229.874 18.0612 229.639 18.3777 229.506 18.0006C229.485 17.9594 229.475 13.2425 229.476 12.507ZM233.473 11.9065L233.821 11.5378C233.821 11.5378 233.84 16.3329 233.831 16.6295C233.846 16.8289 233.689 17.4893 233.565 16.7026C233.565 16.7724 233.463 15.1167 233.463 15.1167L233.473 11.9065ZM237.164 10.2711C237.164 10.2711 237.83 12.5492 238.565 13.041C238.586 13.041 237.819 14.1665 237.134 15.8744C237.134 15.6999 237.164 10.2711 237.164 10.2711V10.2711ZM240.432 8.66452C240.47 8.6974 240.794 9.17956 241.247 8.80783C240.92 9.44087 240.915 9.45715 240.598 10.0297C240.475 9.6563 240.366 8.84104 240.432 8.66452ZM244.253 9.44751L244.231 10.5763L243.634 10.6378L244.253 9.44747V9.44751ZM242.099 14.0132L244.169 13.8738C244.169 13.8738 244.189 15.2068 244.157 15.2796C244.141 15.2982 244.114 15.7966 243.358 15.6174C243.113 15.5818 242.288 15.2188 242.288 15.2188C242.288 15.2188 241.878 15.021 241.662 15.021C241.666 14.99 242.099 14.0132 242.099 14.0132V14.0132ZM248.214 9.16656L248.989 10.0865C248.989 10.0865 249.003 14.0664 248.975 15.021C248.803 14.9402 248.208 14.3367 248.208 14.3367L248.214 9.1666V9.16656ZM252.432 10.3941L252.819 9.97014L252.812 15.8538C252.812 15.8538 252.794 16.0882 252.645 16.0766C252.568 16.0979 252.384 16.0882 252.424 15.8122C252.424 15.7201 252.432 10.3941 252.432 10.3941ZM256.332 10.3502C256.332 10.3502 256.562 10.3286 256.619 10.321C256.641 11.0893 256.628 14.2237 256.526 15.021C256.541 15.0346 256.47 15.6946 256.376 15.0628C256.304 14.6605 256.332 10.3502 256.332 10.3502H256.332ZM259.911 10.4546L260.325 10.8892C260.325 10.8892 260.329 14.9076 260.31 15.288C260.152 15.2487 259.9 15.0951 259.9 15.0951L259.91 10.4546H259.911ZM263.713 10.9623L263.896 10.8806C263.896 10.8806 263.944 10.8732 263.958 10.956C264.278 11.7932 263.842 16.6747 263.76 16.8377C263.775 16.8586 263.659 16.8457 263.659 16.8457L263.713 10.9624L263.713 10.9623ZM272.925 13.2831L273.139 13.5481L272.922 13.7223L272.925 13.2831L272.925 13.2831ZM278.203 13.9673C278.214 13.9819 278.531 14.2991 278.531 14.2991C278.531 14.2991 278.536 15.122 278.521 15.1167C278.296 15.0705 278.336 14.5605 278.203 13.9673ZM277.923 17.4278C277.945 17.4567 278.343 17.9053 278.343 17.9053C278.343 17.9053 278.292 19.4367 278.098 19.8058C277.954 19.7476 277.71 18.7684 277.923 17.4278V17.4278ZM276.174 14.7377C274.743 16.3229 274.754 18.2055 274.631 18.4299C273.393 19.7379 273.332 18.4395 273.332 18.4395L273.29 16.6711L276.041 14.2486C276.041 14.2486 276.154 14.6775 276.174 14.7377V14.7377ZM281.533 14.8617L281.88 14.6978L281.9 19.1454L283.24 20.7923L282.484 21.9576C282.484 21.9576 282.012 21.3448 281.533 21.1915C281.552 20.8531 281.533 14.8617 281.533 14.8617V14.8617ZM285.196 16.9167C285.196 16.9167 285.49 17.2406 285.786 17.3018C285.732 17.3703 285.529 17.6834 285.35 17.9464C285.094 17.9697 285.196 16.9167 285.196 16.9167V16.9167ZM286.063 22.7991C285.752 22.6564 285.247 22.3901 285.247 22.3901L285.875 21.3747C285.875 21.3747 286.219 21.641 286.063 22.7991ZM267.685 12.3029L268.318 13.0284C268.318 13.0284 269.611 12.0023 269.681 11.9651C270.321 14.9531 269.561 18.1889 269.561 18.1889L268.578 16.9291C268.578 16.9291 267.898 17.5741 267.693 16.5714C267.086 13.9787 267.685 12.3029 267.685 12.3029V12.3029Z" fill="white"/>
<path d="M256.037 16.0772C255.768 16.2342 255.568 16.3356 255.5 16.0892C255.458 15.6137 255.5 10.4177 255.5 8.34466C255.466 8.01647 256.023 7.26842 256.18 6.98377C256.091 6.89767 256.016 6.8059 255.823 6.5988C255.556 6.87577 255.336 7.06594 255.151 7.22385C254.888 6.97652 254.468 6.5981 254.051 6.25732C253.448 6.90931 252.802 7.40639 251.753 8.51823C251.655 7.77411 251.316 6.94261 250.552 6.91932C250.395 7.47655 249.35 8.30907 248.822 8.59605C248.916 8.7952 248.993 8.8351 249.077 8.9887C249.187 8.93318 249.895 8.48231 249.879 8.79984C249.909 9.73679 249.977 16.7316 249.607 17.1927C249.677 17.3457 250.532 18.0941 250.771 18.3056C251.027 18.137 251.841 17.4148 252.063 17.1468C251.627 16.432 251.805 10.7455 251.817 9.68657C252.184 9.28658 252.713 8.81349 252.986 8.54447C253.3 8.30809 253.664 8.74665 253.653 9.25698L253.68 15.8857C253.69 16.3156 253.604 17.8284 254.436 18.3544C254.586 18.2251 256.038 16.8031 256.345 16.4998C256.277 16.3894 256.099 16.1594 256.038 16.0772H256.037Z" fill="black"/>
<path fill-rule="evenodd" clip-rule="evenodd" d="M223.01 10.7373C224.633 10.5139 224.722 9.40272 224.83 9.28004C225.539 9.70131 226.861 10.3756 227.707 10.0976C228.143 9.95466 228.451 9.60187 228.667 9.23584C228.693 9.23584 229.158 9.46095 229.058 9.71562C229.086 9.75219 228.643 10.3344 228.57 10.585C228.57 11.1928 228.573 11.6427 228.57 12.5181C228.57 14.0239 228.566 15.5128 228.566 17.0173C228.566 17.7594 228.566 18.4899 228.573 19.2057C228.607 19.4026 228.7 19.365 228.812 19.3686C229.009 19.3101 229.105 19.2337 229.269 19.1023C229.358 19.212 229.473 19.3833 229.568 19.4979C229.124 20.0382 228.457 21.0051 227.96 21.5225C227.306 21.4244 226.508 20.3375 226.508 20.3504C226.292 20.6098 226.12 20.7677 225.956 20.9852C225.471 21.4696 225.005 21.9676 224.521 22.4527C224.427 22.4025 223.979 22.2523 223.504 21.6604C222.485 20.1925 222.419 18.0447 223.017 16.4238C223.164 16.0341 223.376 15.6062 223.606 15.2784C223.766 15.0503 223.91 14.9449 224.067 14.7544C224.122 14.4551 224.114 13.7194 224.082 13.5262C223.958 12.8047 223.856 12.539 223.536 12.0689C223.368 11.8222 223.174 11.6662 222.881 11.4465C222.942 11.2284 222.997 10.9501 223.01 10.7373H223.01ZM224.736 14.6557C224.736 14.3271 224.976 13.0654 224.04 11.8222C224.899 11.9862 226.271 12.2751 226.285 12.2877C226.285 13.2695 226.275 14.2297 226.275 15.2119C225.891 15.1354 225.032 14.7826 224.736 14.6557ZM226.277 16.0424C226.223 17.4152 226.46 19.5834 225.405 20.1612C225.306 20.1566 224.007 19.991 224.526 15.3289C225.115 15.565 225.688 15.8066 226.277 16.0424V16.0424Z" fill="black"/>
<path fill-rule="evenodd" clip-rule="evenodd" d="M265.661 8.10596C265.761 8.20637 266.5 8.99999 266.893 9.43257C266.906 9.41858 267.896 8.74265 268.441 8.34402C268.441 8.35665 269.807 10.5647 269.842 10.6498C269.614 10.8423 268.633 11.6642 268.408 11.8381C268.26 11.6442 267.591 10.7947 267.433 10.5723C267.039 10.932 266.948 11.3011 266.8 11.7417C266.331 13.1391 266.394 16.3479 267.079 17.4056C267.237 17.6463 267.29 17.751 267.615 17.8574C267.838 17.9199 268.145 17.6765 268.211 17.626C268.332 17.7839 268.513 18.0476 268.613 18.1909C268.317 18.524 266.834 19.5737 266.538 19.7702C266.251 19.5537 264.742 18.2201 264.396 17.8155C264.647 17.3397 264.654 16.7512 264.772 16.2239C264.963 14.8285 265.045 13.2212 265.045 11.6492C265.045 11.0112 265.035 9.58879 264.708 9.49272C264.534 9.50137 264.359 9.60076 264.262 9.6204C264.182 9.51634 264.078 9.35942 263.998 9.25502C264.301 9.05817 265.275 8.38888 265.661 8.10596H265.661Z" fill="black"/>
<path fill-rule="evenodd" clip-rule="evenodd" d="M257.145 2.70898C257.552 3.09068 261.928 7.8412 262.133 8.06795C262.262 8.2229 262.292 8.11321 262.349 8.14044C262.671 8.03273 262.799 7.77871 262.957 7.68625C263.066 7.84752 263.156 7.92932 263.251 8.05335C263.052 8.29937 262.899 8.51283 262.821 8.82568V17.6192C262.276 17.857 261.124 18.3936 260.224 19.1098C259.664 18.4484 258.486 17.2149 257.116 16.9353C257.409 16.5812 257.448 15.3065 257.448 14.6242C257.423 12.7919 257.401 10.9626 257.374 9.13025C257.995 8.63219 258.559 8.18235 259.167 7.69822C259.154 7.6849 257.435 5.61954 257.132 5.33695C257.132 4.47379 257.145 3.57312 257.145 2.70898H257.145ZM260.953 10.0835C260.953 12.4667 260.947 14.7715 260.947 17.1528C260.722 16.9623 260.632 16.8765 260.436 16.7329C260.028 16.4339 259.582 16.1254 259.099 15.906C259.099 13.7847 259.101 9.58743 259.101 9.58743C259.101 9.58743 259.522 8.96005 259.691 8.72363C260.115 9.15588 260.612 9.68215 260.953 10.0835Z" fill="black"/>
<path fill-rule="evenodd" clip-rule="evenodd" d="M273.094 8.96684C273.296 9.22384 275.391 12.7907 275.59 13.3024C274.811 14.2627 272.55 15.9626 272.515 16.0281C272.515 16.9325 272.52 17.7986 272.52 18.701C272.542 18.9463 272.583 19.8523 272.973 20.0332C273.571 20.1466 274.192 19.4713 274.634 19.1983C274.634 19.2107 274.846 19.4521 274.914 19.594C274.393 20.0901 273.061 21.3452 272.685 21.6255C272.52 21.4553 270.504 19.7167 270.163 19.4308C270.892 18.4181 270.882 15.6059 270.853 15.0865C270.853 14.6413 270.722 11.6573 270.656 10.6106C271.172 10.2549 272.751 9.21019 273.094 8.9668V8.96684ZM273.909 13.7752C273.673 13.98 272.422 14.9406 272.395 14.9406C272.407 13.8029 272.417 12.7066 272.43 11.5679C272.672 11.8525 273.896 13.7626 273.909 13.7752Z" fill="black"/>
<path fill-rule="evenodd" clip-rule="evenodd" d="M278.671 10.8819C279.155 11.3657 280.453 12.6989 280.61 12.8612C280.858 12.7465 281.22 12.5516 281.506 12.4017C281.602 12.4994 281.683 12.6773 281.648 12.8605C281.588 13.1787 280.794 13.5667 280.794 14.0794C280.794 16.7615 280.789 19.1963 280.789 21.8791C280.798 22.1102 280.948 22.0527 281.052 22.0201C281.139 21.9779 281.185 21.9469 281.283 21.8951C281.345 21.9941 281.558 22.2365 281.545 22.2492C281.093 22.6893 280.617 23.1545 280.166 23.5884C279.512 23.1615 279.413 22.9168 279.223 22.4051C279.135 22.164 279.075 21.4346 279.068 21.2647C278.864 21.4711 277.192 22.8453 276.905 23.1525C275.392 21.6929 275.311 18.1496 276.073 16.3941C276.23 16.032 276.544 15.5889 276.85 15.3674C276.926 15.3135 277.11 15.1835 277.205 15.122C277.205 14.9777 277.185 14.8982 277.185 14.754C277.198 14.2492 276.738 12.8259 276.585 12.5579C276.346 11.992 276.299 12.0126 276.162 11.7476C276.148 11.7074 276.163 11.6838 276.151 11.6422C276.482 11.1754 278.125 11.618 278.671 10.8818L278.671 10.8819ZM279.033 13.9587C279.031 14.8219 279.017 15.6059 279.017 16.4573C278.589 16.0893 278.261 15.6331 277.86 15.2305C277.812 14.1955 277.513 12.9131 277.369 12.5732C277.969 12.9131 278.582 13.5545 279.033 13.9587ZM278.971 17.4934C278.997 18.6188 278.923 19.5807 278.48 20.4515C278.343 20.7211 278.207 20.8491 277.995 20.9163C277.649 20.6566 277.488 20.3846 277.341 19.8873C276.973 18.6321 277.232 16.9554 277.581 16.1501C278.078 16.5056 278.596 17.1256 278.971 17.4934H278.971Z" fill="black"/>
<path fill-rule="evenodd" clip-rule="evenodd" d="M288.306 25.5246C287.363 25.499 286.599 25.7483 286.148 26.268C286.136 26.268 285.29 24.7253 284.451 24.3183C283.755 23.9802 283.173 24.3885 282.846 24.7984C282.832 24.7855 282.396 24.4303 282.12 24.196C282.324 23.8887 284.108 21.151 284.39 20.6882C284.072 20.2892 282.937 18.8602 282.774 18.6116C282.774 17.1862 282.768 15.7971 282.768 14.3737C283.511 13.9355 284.206 13.5807 284.921 13.1592C284.977 13.23 286.121 14.8239 286.735 15.1281C287.137 15.3678 287.574 15.3748 287.921 14.9984C288.365 14.4475 287.486 12.7937 288.156 12.5347C288.233 12.4825 288.613 12.4253 288.863 12.7306C289.199 13.1954 289.206 14.2281 289.019 14.89C288.746 16.0458 287.898 17.5785 287.644 17.8741C287.477 18.1224 287.161 18.6325 286.938 18.9344C287.379 19.0594 287.627 19.4218 287.846 19.7775C288.695 21.3618 288.444 23.6011 288.306 25.5245L288.306 25.5246ZM286.837 16.8474C286.549 17.3625 285.341 19.2845 285.341 19.2968C285.078 18.9939 284.615 18.4018 284.451 18.176C284.451 17.2464 284.453 16.3633 284.453 15.4353C285.065 16.1854 286.02 16.8939 286.837 16.8474V16.8474ZM286.599 24.4134C286.422 24.2625 285.563 22.9411 284.103 22.9042C284.506 22.2735 285.664 20.4941 285.802 20.2214C287.157 20.514 286.776 23.1662 286.599 24.4134Z" fill="black"/>
<path fill-rule="evenodd" clip-rule="evenodd" d="M214.01 5.02246C214.317 5.29874 216.4 6.81888 217.223 7.39776C217.385 7.51343 218.184 8.12458 218.217 8.09432C218.324 7.89517 218.45 7.63148 218.539 7.44565C218.608 7.47091 219.124 7.82071 219.347 7.95704C218.908 9.11205 218.468 10.2592 218.021 11.4704C217.928 11.6905 217.65 12.4253 217.578 12.6707C217.814 12.7628 217.917 12.8066 218.099 12.8844C218.463 13.0414 218.891 13.2219 219.238 13.4354C220.214 14.0289 221.241 14.8186 221.711 15.9078C222.22 16.9235 222.234 18.4643 221.869 19.5993C221.394 21.0696 220.712 22.34 219.906 23.4867C219.638 23.8668 219.326 24.2617 219.023 24.6112C218.704 24.9792 217.708 26.1047 217.292 26.4312C217.026 26.2274 216.031 25.3878 215.743 25.1361C215.473 24.9339 215.213 24.6992 214.919 24.4675C214.905 24.4818 214.492 24.8622 214.299 25.0061C213.652 25.4912 213.084 25.9983 212.193 26.1994C209.837 26.7304 208.925 24.158 209.5 22.2698C209.848 21.1274 210.627 20.2194 211.72 19.962C212.354 19.8124 213.174 20.3321 213.57 20.0954C213.887 19.8283 214.012 19.5408 214.094 19.1674C213.924 19.1674 213.137 19.1115 212.916 19.049C212.467 18.9247 211.99 18.7674 211.62 18.539C210.244 17.6865 209.42 15.4559 210.129 13.2781C210.25 12.9011 210.397 12.4283 210.599 12.0998C210.81 11.76 210.962 11.5951 211.169 11.4538C211.174 11.2909 211.186 11.1499 211.188 10.8822C211.24 10.5292 211.293 10.1753 211.346 9.82325C211.509 9.22379 211.658 8.6363 211.895 8.09432C212.249 7.28607 212.767 6.53461 213.269 5.85802C213.476 5.57838 213.727 5.3217 214.01 5.0225V5.02246ZM217.242 10.5224C216.991 11.2705 216.736 11.9072 216.473 12.5918C214.589 12.5948 213.269 11.7061 213.76 9.70254C213.866 9.26696 214.082 8.81548 214.264 8.43378C214.646 8.67947 216.963 10.3429 217.242 10.5224ZM214.876 16.7715C213.291 16.7033 212.445 15.8907 211.97 14.7307C211.79 14.1126 211.723 12.8046 211.736 12.8046C212.367 14.3626 213.083 15.7225 215.294 15.7085C215.158 16.1318 215.02 16.4064 214.876 16.7715ZM217.224 19.976C217.383 20.3816 217.302 20.8002 216.975 21.3072C216.878 21.4575 216.715 21.6906 216.632 21.788C216.161 21.536 215.191 20.9594 214.546 20.6476C214.778 20.1126 214.901 19.8307 215.102 19.3399C216.248 19.2944 216.84 19.439 217.224 19.976ZM219.821 17.739C219.922 17.9834 219.923 18.1393 219.991 18.4342C220.069 18.7687 219.979 19.1863 219.957 19.3014C219.907 19.5703 219.804 19.975 219.712 20.249C219.474 20.9535 219.189 21.4801 218.81 22.0786C218.654 22.3263 218.458 22.6056 218.257 22.9071C218.023 22.7692 217.901 22.687 217.681 22.4969C217.936 22.1301 218.166 21.8006 218.355 21.5007C219.073 20.3603 219.763 18.533 218.382 17.5628C218.258 17.4754 217.838 17.208 217.449 17.0914C216.745 16.8839 215.955 16.832 215.854 16.832C216.024 16.3961 216.132 16.1713 216.269 15.7631C217.977 15.8794 219.285 16.4493 219.821 17.739H219.821ZM213.399 23.1791C213.611 23.3264 213.754 23.49 213.979 23.6742C213.775 23.8903 213.589 24.1024 213.37 24.2607C212.807 24.6736 211.396 25.458 210.876 24.5433C210.61 24.0692 210.627 23.1349 210.891 22.6897C211.504 21.6414 212.779 22.7486 213.399 23.1791Z" fill="black"/>
<path d="M237.022 17.3195C236.752 17.4754 236.412 17.8411 236.362 17.4997C236.32 17.0249 236.387 11.7909 236.387 9.71954C236.355 9.39008 236.917 8.46009 237.075 8.17647C236.986 8.09037 236.86 8.01554 236.635 7.86063C236.366 8.1695 236.161 8.42151 236.013 8.62168C235.725 8.39424 235.25 8.07938 234.832 7.73926C234.201 8.36669 233.679 8.89829 232.63 10.0095C232.532 9.26666 232.003 8.53025 231.404 8.4418C231.189 8.98509 230.237 9.86784 229.708 10.1551C229.802 10.3523 229.819 10.3722 229.902 10.5225C230.011 10.4689 230.796 10.036 230.777 10.3539C230.809 11.2909 230.977 18.2178 230.606 18.6793C230.676 18.8319 231.656 19.5338 231.897 19.7446C232.153 19.5747 232.932 18.9044 233.154 18.6374C232.569 17.8288 232.704 12.2584 232.718 11.1981C233.085 10.8005 233.611 10.2748 233.885 10.0052C234.198 9.76808 234.564 10.2073 234.552 10.7177L234.546 17.3807C234.557 17.8109 234.646 19.1222 235.64 19.471C235.791 19.34 237.014 17.9954 237.321 17.6929C237.254 17.5818 237.082 17.4006 237.022 17.3195L237.022 17.3195Z" fill="black"/>
<path fill-rule="evenodd" clip-rule="evenodd" d="M248.103 1.54989C248.141 1.54989 248.343 1.67421 248.369 1.84179C248.12 2.1357 247.43 2.89511 247.371 3.19234C247.371 4.21241 247.369 12.7303 247.369 16.0292C247.374 16.4468 247.685 16.1469 247.685 16.1469C247.685 16.1469 248.117 15.6558 248.335 15.7586C248.492 15.7988 248.69 15.9561 248.608 16.1878C248.309 16.9738 247.846 17.6624 247.44 17.9566C246.221 18.8383 245.439 17.415 245.053 16.5801C245.041 16.5931 243.639 18.0184 243.158 18.5092C242.962 18.3283 241.608 17.2028 240.353 16.8963C239.092 16.5285 239.329 17.8867 239.355 18.0091C239.538 19.5808 238.138 19.1332 237.913 18.6834C237.558 18.1544 237.69 17.2078 237.881 16.621C238.16 15.7685 238.281 15.2385 239.727 13.0089C239.755 12.9886 239.128 12.2764 239.02 12.1055C238.312 10.9222 238.209 9.32995 238.196 9.08192C238.077 5.1955 239.897 2.96687 241.611 2.32915C243.493 1.52053 245.409 2.6297 246.273 3.11579C246.562 2.86379 247.707 1.89226 248.103 1.5498L248.103 1.54989ZM244.115 4.91529C243.972 5.17664 243.825 5.41167 243.682 5.67335C243.346 5.61217 243.053 5.50114 242.572 5.55567C241.756 5.72854 241.389 6.17744 241.12 6.8118C240.837 7.49404 240.892 8.15903 240.892 8.25075C241.116 7.92925 241.472 7.20313 242.398 7.20743C242.589 7.22802 242.842 7.33114 242.868 7.33114C242.67 7.6982 242.546 7.94692 242.376 8.2255C241.957 8.91443 241.606 9.6123 241.183 10.2956C240.942 10.6869 240.707 11.1265 240.401 11.6182C240.046 11.1684 239.837 10.3342 239.707 9.83609C239.344 7.97882 239.957 6.00191 240.912 5.18496C241.126 5.00373 241.413 4.78695 241.694 4.70219C241.843 4.65795 242.76 4.29491 244.115 4.91533V4.91529ZM242.745 11.679C242.72 11.679 242.157 11.7329 242.132 11.7329C242.405 11.2428 242.733 10.6234 242.963 10.248C243.413 9.47764 245.009 6.39615 245.022 6.39615C245.02 8.10909 244.996 9.81641 244.997 11.4749C244.327 11.5081 243.161 11.6457 242.745 11.679H242.745ZM244.94 15.7586C244.583 16.238 243.928 16.7813 243.212 16.5566C242.596 16.3631 242.047 15.9821 241.482 15.7354C241.188 15.606 240.488 15.3504 240.461 15.3504C240.789 14.696 241.157 13.9699 241.444 13.3864C242.621 13.295 243.799 13.1583 244.977 13.0659C244.982 13.3931 244.94 15.3796 244.94 15.7586V15.7586Z" fill="black"/>
</svg>
