<svg width="1098" height="148" viewBox="0 0 1098 148" fill="none" xmlns="http://www.w3.org/2000/svg">
<g clip-path="url(#clip0)">
<path d="M1086.46 84.9682L1097.73 17.3469L688.854 7.04102L706.05 97.4932L1086.46 84.9682Z" fill="url(#paint0_linear)"/>
<path d="M691.677 9.43448L1095 19.6009L1084.47 82.7141L707.955 95.0997L691.689 9.43448H691.677ZM688.866 7.04102L706.062 97.4816L1086.46 84.9682L1097.73 17.3469L688.854 7.04102H688.866Z" fill="url(#paint1_linear)"/>
<path d="M712.591 44.8252H723.92V65.0651H729.729V44.8252H741.115V40.4101H712.649L712.591 44.8252ZM773.206 49.9607H755.221V40.4101H749.481V65.0651H755.221V54.4688H773.172V65.0651H778.981V40.4101H773.172L773.206 49.9607ZM795.886 54.3294H807.296V50.1234H795.886V44.6161H815.429V40.4101H790.158V65.0651H815.72V60.4176H795.886V54.3294ZM839.213 44.8252H850.541V65.0651H856.351V44.8252H867.737V40.4101H839.224L839.213 44.8252ZM897.307 55.7817C898.821 55.9098 900.331 55.4983 901.571 54.6199C902.045 54.1482 902.41 53.5778 902.639 52.9492C902.868 52.3207 902.955 51.6494 902.895 50.9832V45.1738C902.958 44.5038 902.872 43.8284 902.643 43.1957C902.414 42.5629 902.048 41.9887 901.571 41.5139C900.329 40.6409 898.82 40.2299 897.307 40.352H876.149V65.0651H881.796V55.7701H887.245L897.202 65.0651H905.452L894.042 55.7701L897.307 55.7817ZM881.83 51.5525V44.6858H894.762C895.472 44.6166 896.186 44.7667 896.807 45.1157C897.007 45.3096 897.16 45.5464 897.254 45.808C897.349 46.0697 897.383 46.3495 897.353 46.6262V49.5889C897.384 49.8692 897.35 50.1527 897.256 50.4183C897.161 50.6839 897.008 50.9246 896.807 51.1226C896.186 51.4717 895.472 51.6217 894.762 51.5525H881.83ZM914.874 65.0651H920.684V40.4101H914.874V65.0651ZM937.496 40.3752H931.687V65.0651H955.958V60.4176H937.496V40.3752ZM989.188 40.3752H971.005C968.611 40.3752 966.985 40.7819 966.148 41.6068C965.311 42.4318 964.882 43.9306 964.882 46.2544V59.2558C964.882 61.5098 965.311 63.0435 966.148 63.9033C966.985 64.7631 968.611 65.0651 971.005 65.0651H989.188C991.582 65.0651 993.208 64.6585 994.045 63.8452C994.881 63.0319 995.311 61.5214 995.311 59.1977V46.2427C995.311 44.0003 994.893 42.4666 994.045 41.5952C993.197 40.7238 991.582 40.4101 989.188 40.4101V40.3752ZM989.583 60.4176H970.633V44.8252H989.583V60.4176ZM1029.09 40.3752H1012C1009.59 40.3752 1007.98 40.7819 1007.13 41.6068C1006.28 42.4318 1005.87 43.9306 1005.87 46.2544V59.2558C1005.87 61.5098 1006.29 63.0435 1007.13 63.9033C1007.96 64.7631 1009.6 65.0651 1012 65.0651H1029.03C1031.42 65.0651 1033.05 64.6585 1033.89 63.8452C1034.72 63.0319 1035.15 61.5214 1035.15 59.1977V50.7624H1020.19V54.9684H1029.58V60.4176H1011.62V44.8252H1029.58V47.637L1035.16 46.6378V46.0104C1035.16 43.8957 1034.73 42.4318 1033.87 41.6185C1033.01 40.8051 1031.41 40.4101 1029.04 40.4101L1029.09 40.3752ZM1067.13 40.3752L1058.61 49.8562L1050.13 40.3752H1042.47L1055.25 54.0157V65.0651H1061.06V53.9111L1073.84 40.4101L1067.13 40.3752Z" fill="black"/>
<path d="M1073.83 40.4101L1061.05 53.9111V65.0651H1055.24V54.0505L1042.46 40.4101H1050.12L1058.6 49.891L1067.12 40.4101H1073.87H1073.83ZM1029.08 40.4101C1031.4 40.4101 1033.05 40.8051 1033.91 41.572C1034.77 42.3388 1035.2 43.8957 1035.2 45.9639V46.5332L1029.61 47.5324V44.8252H1011.62V60.4176H1029.57V54.9684H1020.19V50.7624H1035.16V59.2557C1035.16 61.5098 1034.73 63.0435 1033.9 63.9033C1033.06 64.763 1031.43 65.0651 1029.04 65.0651H1012C1009.59 65.0651 1007.98 64.6585 1007.13 63.8452C1006.28 63.0318 1005.87 61.5214 1005.87 59.1977V46.2427C1005.87 44.0042 1006.29 42.455 1007.13 41.5952C1007.98 40.7703 1009.59 40.3636 1012 40.3636H1029.03L1029.08 40.4101ZM989.176 40.3636C991.57 40.3636 993.196 40.7703 994.033 41.5952C994.87 42.4201 995.299 43.919 995.299 46.2427V59.2557C995.299 61.5098 994.881 63.0435 994.033 63.9033C993.185 64.763 991.581 65.0651 989.188 65.0651H971.005C968.611 65.0651 966.984 64.6585 966.148 63.8452C965.311 63.0318 964.882 61.5214 964.882 59.1977V46.2427C964.882 44.0003 965.311 42.4666 966.148 41.5952C966.984 40.7238 968.611 40.3636 971.005 40.3636H989.188H989.176ZM970.633 60.4176H989.583V44.8252H970.633V60.4176ZM937.496 40.4101V60.4176H956.016V65.0651H931.745V40.4101H937.554H937.496ZM920.684 40.4101V65.0651H914.874V40.4101H920.684ZM897.33 40.4101C898.843 40.288 900.352 40.699 901.594 41.572C902.071 42.0467 902.437 42.621 902.666 43.2537C902.895 43.8864 902.981 44.5619 902.919 45.2319V51.0413C902.961 51.7005 902.859 52.361 902.62 52.977C902.381 53.5929 902.011 54.1495 901.536 54.6082C900.296 55.4866 898.786 55.8982 897.272 55.7701H894.042L905.451 65.0651H897.202L887.245 55.7701H881.796V65.0651H876.149V40.4101H897.272H897.33ZM881.796 51.5525H894.727C895.437 51.6217 896.151 51.4716 896.772 51.1226C896.973 50.9246 897.126 50.6839 897.221 50.4183C897.315 50.1527 897.349 49.8692 897.318 49.5889V46.6261C897.348 46.3494 897.314 46.0697 897.219 45.808C897.125 45.5464 896.972 45.3096 896.772 45.1157C896.151 44.7666 895.437 44.6166 894.727 44.6858H881.796V51.5525ZM867.69 40.4101V44.8252H856.304V65.0651H850.495V44.8252H839.224V40.4101H867.69ZM815.406 40.4101V44.6161H795.886V50.1234H807.296V54.3294H795.886V60.4176H815.638V65.0651H790.077V40.4101H815.359H815.406ZM778.923 40.4101V65.0651H773.114V54.4688H755.221V65.0651H749.481V40.4101H755.221V49.9607H773.172V40.4101H778.981H778.923ZM741.034 40.4101V44.8252H729.659V65.0651H723.85V44.8252H712.522V40.4101H740.988H741.034ZM1077.8 38.6673H1066.19L1065.66 39.2366L1058.46 47.2768L1051.27 39.2482L1050.76 38.6673H1038.39L1041.15 41.5952L1053.51 54.7477V66.8428H1062.8V54.6082L1075.11 41.6068L1077.89 38.6673H1077.8ZM1029.01 38.6673H1012C1009.09 38.6673 1007.1 39.2366 1005.91 40.3985C1004.71 41.5603 1004.13 43.4891 1004.13 46.2079V59.2557C1004.13 62.0326 1004.71 63.9033 1005.92 65.0651C1007.13 66.227 1009.09 66.7847 1012 66.7847H1029.03C1031.92 66.7847 1033.91 66.227 1035.11 65.0651C1036.3 63.9033 1036.89 61.9862 1036.89 59.2557V49.0196H1031.42L1035.45 48.2876L1036.89 48.032V46.0103C1036.89 43.3729 1036.29 41.5139 1035.06 40.352C1033.83 39.1901 1031.89 38.6673 1029.03 38.6673H1029.01ZM1013.33 46.568H1027.8V49.0196H1018.41V56.7112H1027.8V58.7097H1013.37V46.568H1013.33ZM989.153 38.6673H971.005C968.111 38.6673 966.113 39.2366 964.928 40.3985C963.743 41.5603 963.139 43.4891 963.139 46.2079V59.2557C963.139 62.0326 963.731 63.9033 964.94 65.0651C966.148 66.227 968.111 66.7847 971.005 66.7847H989.188C992.081 66.7847 994.068 66.227 995.265 65.0651C996.461 63.9033 997.054 61.9745 997.054 59.2557V46.2427C997.054 43.4891 996.473 41.5952 995.265 40.4333C994.056 39.2714 992.093 38.7021 989.188 38.7021L989.153 38.6673ZM972.341 46.568H987.805V58.7097H972.376V46.568H972.341ZM939.204 38.6673H929.909V66.8428H957.666V58.7097H939.239V38.6673H939.204ZM922.334 38.6673H913.039V66.8428H922.334V38.6673ZM897.237 38.6673H874.406V66.8428H883.538V57.5478H886.513L895.959 66.4013L896.47 66.866H910.331L906.555 63.7754L898.829 57.4665C900.232 57.3749 901.574 56.8559 902.675 55.9792C903.343 55.3462 903.862 54.5729 904.196 53.7151C904.529 52.8572 904.668 51.9361 904.603 51.018V45.2086C904.67 44.2869 904.532 43.3618 904.199 42.4999C903.865 41.638 903.344 40.8608 902.675 40.2242C901.118 39.076 899.2 38.5274 897.272 38.6789L897.237 38.6673ZM883.538 46.4751H894.727C895.009 46.4477 895.293 46.4477 895.575 46.4751V49.5773C895.582 49.6313 895.582 49.6859 895.575 49.74C895.297 49.762 895.017 49.762 894.739 49.74H883.55V46.4751H883.538ZM869.433 38.6673H837.482V46.568H848.81V66.8428H858.105V46.568H869.491V38.6673H869.433ZM817.149 38.6673H788.416V66.8428H817.462V58.7097H797.711V56.0722H809.12V48.3806H797.711V46.3589H817.253V38.6673H817.149ZM780.712 38.6673H771.417V48.2411H756.998V38.6673H747.773V66.8428H756.998V56.2116H771.487V66.8428H780.782V38.6673H780.712ZM742.765 38.6673H710.814V46.568H722.142V66.8428H731.437V46.568H742.823V38.6673H742.765Z" fill="url(#paint2_linear)"/>
<path d="M660.284 20.6233C657.439 18.5523 653.995 17.4671 650.477 17.5327H627.774C623.788 17.5227 619.907 18.807 616.713 21.1926H602.41V15.4646H567.182V17.5443H492.264C485.851 17.5443 479.402 20.6698 476.846 26.6767V20.5536H454.771V14.8255H421.494V16.8588H390.949C386.946 16.8202 383.039 18.0844 379.818 20.4606C376.592 18.1622 372.741 16.9054 368.78 16.8588H346.542C342.615 16.8241 338.78 18.0454 335.597 20.3445C332.704 18.1748 329.186 17.0008 325.57 16.9982H319.145V2.32373H285.822V20.5536H274.505V9.6668H240.811V20.542H235.385V2.56772H202.004V16.9169H196.357C192.307 16.8992 188.362 18.2048 185.122 20.6349C181.977 18.3183 178.187 17.0427 174.282 16.9866C172.448 16.9766 170.616 17.0891 168.798 17.3236V16.9866H135.51V17.7883C133.726 17.2692 131.883 16.9841 130.026 16.9402H107.822C103.838 16.9192 99.9543 18.1867 96.7495 20.5536C95.64 19.7008 94.4207 19.0013 93.1245 18.4738C90.7866 17.5404 88.2984 17.0404 85.7814 16.9982H57.9661V16.9169H18.9386C18.9386 16.9169 2.32373 16.8472 2.32373 31.8122C2.32373 40.4217 2.32373 107.683 2.32373 107.683H41.3861C41.3861 107.683 57.9661 107.555 57.9661 89.7318H235.408V50.3093H241.45V74.8714C241.45 84.5731 249.781 89.6969 258.041 89.755H407.703V64.6236H421.483V74.8481C421.483 89.6737 438.063 89.7086 438.063 89.7086H460.255C467.145 89.7086 474.093 86.1184 476.184 79.2517C478.09 86.4437 485.2 90.2082 492.264 90.2198H558.689C563.323 90.2715 567.798 88.5316 571.179 85.3631C574.59 88.5547 579.091 90.3214 583.762 90.3011H605.977C609.94 90.3223 613.804 89.0721 617.004 86.7342C620.1 88.9632 623.82 90.1586 627.635 90.1501H650.466C654.007 90.1098 657.449 88.9733 660.318 86.8968C662.168 85.6732 663.686 84.0114 664.738 82.0593C665.79 80.1073 666.343 77.9254 666.349 75.7079V31.9981C666.341 29.7515 665.784 27.5409 664.727 25.5585C663.67 23.5761 662.145 21.8819 660.284 20.6233Z" fill="black"/>
<path d="M319.145 2.32376V16.9867H325.57C329.186 16.9892 332.704 18.1632 335.597 20.3329C338.78 18.0338 342.615 16.8125 346.542 16.8472H368.78C372.741 16.8938 376.592 18.1506 379.818 20.4491C383.039 18.0728 386.946 16.8086 390.949 16.8472H421.483V14.8256H454.771V20.5536H476.846V26.6302C479.402 20.6233 485.863 17.4979 492.264 17.4979H567.182V15.4646H602.399V21.1927H616.702C619.895 18.807 623.777 17.5227 627.763 17.5327H650.466C653.984 17.4671 657.427 18.5524 660.272 20.6233C662.135 21.8806 663.663 23.5742 664.722 25.5567C665.781 27.5392 666.339 29.7505 666.349 31.9981V75.7544C666.343 77.9719 665.79 80.1538 664.738 82.1058C663.686 84.0579 662.168 85.7197 660.318 86.9433C657.449 89.0198 654.007 90.1563 650.466 90.1966H627.646C623.832 90.2051 620.111 89.0097 617.015 86.7807C613.816 89.1186 609.951 90.3688 605.989 90.3476H583.774C579.103 90.3679 574.601 88.6012 571.191 85.4096C567.809 88.5781 563.334 90.318 558.701 90.2663H492.276C485.212 90.2663 478.101 86.4902 476.196 79.2982C474.104 86.1649 467.156 89.7551 460.266 89.7551H438.028C438.028 89.7551 421.448 89.7551 421.448 74.8946V64.6701H407.703V89.7551H258.041C249.781 89.7551 241.45 84.5731 241.45 74.8714V50.3093H235.408V89.7202H57.9661C57.9661 107.543 41.3861 107.671 41.3861 107.671H2.38185C2.38185 107.671 2.38185 40.4101 2.38185 31.8006C2.32376 16.9634 18.6714 16.9053 18.9386 16.9053H57.9661V16.9867H85.7815C88.2984 17.0288 90.7867 17.5288 93.1245 18.4622C94.4207 18.9897 95.64 19.6892 96.7496 20.542C99.9543 18.1751 103.838 16.9076 107.822 16.9286H130.026C131.883 16.9725 133.726 17.2576 135.51 17.7767V16.975H168.786V17.312C170.604 17.0776 172.437 16.965 174.27 16.975C178.184 17.0262 181.983 18.3021 185.134 20.6233C188.374 18.1932 192.319 16.8877 196.369 16.9053H202.004V2.56775H235.408V20.5536H240.834V9.67844H274.529V20.5652H285.822V2.32376H319.133H319.145ZM321.457 0H283.498V18.2299H276.829V9.66682V7.34307H238.487V18.2182H237.709V0.243994H199.68V14.5932H196.357C192.376 14.5848 188.474 15.7004 185.099 17.8116C181.842 15.8069 178.105 14.719 174.282 14.6629C173.201 14.6629 172.144 14.6629 171.121 14.7675V14.6629H133.186V14.8953C132.141 14.7263 131.085 14.6331 130.026 14.6164H107.822C103.914 14.6065 100.08 15.6846 96.7496 17.7303C95.8789 17.1816 94.9613 16.7111 94.0076 16.3244C91.3904 15.2728 88.6017 14.7135 85.7815 14.6745H60.2898V14.5932H18.9386C12.3856 14.5816 0 18.1834 0 31.8122C0 40.4217 0.0580939 107.683 0.0580939 107.683V110.007H41.3861C41.5836 110.007 58.8143 109.658 60.1969 92.0556H237.732V52.6331H239.126V74.8714C239.068 77.3372 239.583 79.7829 240.629 82.0165C241.675 84.2501 243.225 86.2109 245.156 87.745C248.831 90.5848 253.351 92.1107 257.995 92.0788H410.027V66.9474H419.159V74.8482C419.159 88.4189 431.521 92.0207 438.051 92.0323H460.255C463.288 92.1159 466.299 91.4867 469.046 90.1952C471.792 88.9037 474.197 86.9861 476.068 84.5963C479.693 90.0339 486.327 92.532 492.264 92.5436H558.689C563.189 92.5671 567.575 91.1321 571.191 88.4538C574.82 91.1498 579.218 92.6117 583.739 92.6249H605.989C609.885 92.6338 613.708 91.5684 617.039 89.5459C620.225 91.4589 623.872 92.4708 627.588 92.4739H650.477C654.488 92.4372 658.389 91.1586 661.643 88.8139C663.807 87.3799 665.582 85.4326 666.811 83.1459C668.039 80.8591 668.683 78.3039 668.684 75.708V31.9981C668.681 29.3804 668.036 26.8033 666.807 24.4922C665.577 22.1812 663.801 20.2066 661.631 18.7411C658.39 16.3991 654.475 15.1756 650.477 15.2555H627.774C623.553 15.2537 619.429 16.5296 615.946 18.9154H604.723V13.1408H564.859V15.209H492.264C487.501 15.1321 482.863 16.7411 479.17 19.7519V18.2415H457.094V12.5018H419.182V14.5351H390.949C387.018 14.508 383.158 15.5827 379.806 17.6373C376.463 15.6627 372.663 14.5935 368.78 14.5351H346.542C342.691 14.5122 338.909 15.5493 335.608 17.5327C332.596 15.6597 329.118 14.6694 325.57 14.6745H321.468V0H321.457Z" fill="url(#paint3_linear)"/>
<path d="M325.558 24.748H311.383V10.0851H293.595V81.9937H311.383V39.0856H315.682V81.9937H333.459V31.9632C333.459 24.748 325.558 24.748 325.558 24.748Z" fill="white"/>
<path d="M447.009 42.6061H469.085V28.3034H447.009V22.5869H429.244V28.315H424.829V42.6061H429.244V74.8482C429.244 81.9589 438.075 81.9472 438.075 81.9472H460.255C460.255 81.9472 469.085 81.9472 469.085 74.8482V46.1149H451.424V67.6445H447.009V42.6061Z" fill="white"/>
<path d="M422.192 38.981V24.6202H390.96C390.96 24.6202 382.072 24.6202 382.072 31.8587V81.9938H399.953V56.8624H422.192V42.4899H399.953V39.0043L422.192 38.981Z" fill="white"/>
<path d="M359.822 64.1125V67.7375H355.535V60.4874H377.61V31.8355C377.61 24.6086 368.768 24.6202 368.768 24.6202H346.542C346.542 24.6202 337.7 24.6202 337.7 31.8587V74.8482C337.7 81.9473 346.553 81.9705 346.553 81.9705H368.768C368.768 81.9705 377.61 81.9705 377.61 74.8366V64.1125H359.822ZM359.822 38.9927V46.115H355.535V38.981H359.857L359.822 38.9927Z" fill="white"/>
<path d="M289.075 74.8715V46.1615H271.403V67.7492H266.988V42.548H289.064V28.315H266.744V17.4282H248.967V28.3034H242.379V42.548H249.211V74.8715C249.211 81.9357 258.042 81.9938 258.042 81.9938H280.245C280.245 81.9938 289.075 81.9938 289.075 74.8715Z" fill="white"/>
<path d="M514.445 25.2476H492.264C492.264 25.2476 483.434 25.2476 483.434 32.4861V43.0824H501.211V39.5968H505.521V46.7074H492.264C492.264 46.7074 483.434 46.7074 483.434 53.8181V75.3477C483.434 82.4468 492.264 82.4584 492.264 82.4584H523.287V32.5325C523.287 25.2359 514.445 25.2476 514.445 25.2476ZM505.521 61.0218V68.237H501.211V61.0218H505.521Z" fill="white"/>
<path d="M567.473 75.3594V25.3057H549.731V68.2138H545.444V25.2244H527.678V75.2897C527.678 82.4585 536.509 82.5049 536.509 82.5049H558.666C558.666 82.5049 567.473 82.4933 567.473 75.3594Z" fill="white"/>
<path d="M592.709 43.2567H614.784V28.954H592.709V23.2375H574.944V28.9656H570.482V43.2567H574.897V75.5221C574.897 82.4933 583.727 82.6095 583.727 82.6095H605.908C605.908 82.6095 614.738 82.6095 614.738 75.5221V46.754H597.077V68.2952H592.662L592.709 43.2567Z" fill="white"/>
<path d="M650.14 25.2941H627.914C627.914 25.2941 619.072 25.2941 619.072 32.4977V75.3362C619.072 82.4352 627.914 82.4352 627.914 82.4352H650.14C650.14 82.4352 658.994 82.4352 658.994 75.3362V32.5326C658.994 25.236 650.14 25.2941 650.14 25.2941ZM636.883 39.5968H641.194V68.2371H636.883V39.5968Z" fill="white"/>
<path d="M18.9387 24.6666C13.5825 24.6666 10.0852 28.5008 10.0852 31.8703V74.9527C10.0852 82.0053 18.9736 82.0518 18.9736 82.0518H32.3119V85.6652H10.0852V99.9215H41.3862C50.1932 99.9215 50.2048 92.4389 50.2048 92.4389V24.6666H18.9387ZM27.9781 39.0391H32.3119V67.7839H27.9781V39.0391Z" fill="white"/>
<path d="M183.089 81.9589V31.9982C183.089 26.5141 177.024 24.7713 174.27 24.7713C168.31 24.7713 163.918 26.0029 161.025 28.3731V24.748H143.26V81.9589H161.025V39.0856H165.335V81.9589H183.089Z" fill="white"/>
<path d="M209.754 10.3291V24.6667H196.415C196.415 24.6667 187.515 24.6667 187.515 31.8936V74.8366C187.515 81.9008 196.415 81.9589 196.415 81.9589H227.647V10.3291H209.754ZM209.545 67.935H205.211V39.0507H209.545V67.935Z" fill="white"/>
<path d="M68.5508 81.9589H72.4895V60.5571H76.7769V81.9589H94.5536V56.9321C94.601 56.0923 94.4197 55.2554 94.0288 54.5106C93.638 53.7658 93.0524 53.141 92.3344 52.7028C92.9337 52.4734 93.458 52.0829 93.8496 51.5745C94.2412 51.0661 94.4848 50.4594 94.5536 49.8214V31.9749C94.5536 24.748 85.7233 24.748 85.7233 24.748H54.7593V81.9705H68.5508V81.9589ZM72.4779 39.074H76.7769V46.1963H72.4779V39.074Z" fill="white"/>
<path d="M130.026 24.7015H107.845C107.845 24.7015 99.0151 24.7015 99.0151 31.9284V42.5364H116.78V39.0507H121.091V46.1498H107.845C107.845 46.1498 99.0151 46.1498 99.0151 53.2721V74.8017C99.0151 81.9008 107.845 81.9124 107.845 81.9124H138.868V31.9517C138.868 24.7015 130.026 24.7015 130.026 24.7015ZM121.091 60.4758V67.6794H116.78V60.4758H121.091Z" fill="white"/>
<path d="M686.67 22.9471C686.709 24.4266 686.306 25.8841 685.512 27.1332C684.718 28.3823 683.57 29.366 682.214 29.9586C680.857 30.5511 679.355 30.7255 677.899 30.4594C676.443 30.1933 675.1 29.4988 674.041 28.4648C672.982 27.4308 672.256 26.1044 671.955 24.6552C671.655 23.2061 671.793 21.7002 672.354 20.3303C672.914 18.9604 673.87 17.7888 675.1 16.9655C676.33 16.1421 677.777 15.7045 679.257 15.7086C680.221 15.6885 681.18 15.8608 682.077 16.2153C682.974 16.5697 683.791 17.0994 684.481 17.7732C685.172 18.4471 685.721 19.2517 686.096 20.14C686.472 21.0283 686.667 21.9826 686.67 22.9471ZM673.657 22.9471C673.628 23.7039 673.754 24.4585 674.026 25.1654C674.297 25.8723 674.71 26.5168 675.237 27.0598C675.765 27.6029 676.398 28.0332 677.097 28.3248C677.795 28.6165 678.546 28.7633 679.303 28.7565C680.046 28.7554 680.78 28.6049 681.463 28.314C682.146 28.0231 682.763 27.5978 683.278 27.0633C683.793 26.5288 684.195 25.8961 684.461 25.2029C684.726 24.5097 684.849 23.7702 684.822 23.0284C684.857 22.2739 684.738 21.5201 684.473 20.8128C684.208 20.1055 683.802 19.4592 683.28 18.913C682.759 18.3669 682.132 17.9322 681.437 17.6352C680.743 17.3382 679.995 17.185 679.24 17.185C678.484 17.185 677.737 17.3382 677.042 17.6352C676.348 17.9322 675.721 18.3669 675.199 18.913C674.677 19.4592 674.271 20.1055 674.006 20.8128C673.741 21.5201 673.622 22.2739 673.657 23.0284V22.9471ZM678.165 26.7232H676.48V19.5079C677.401 19.3483 678.334 19.2744 679.269 19.2872C680.138 19.2227 681.007 19.4039 681.778 19.81C682.008 20.0057 682.19 20.2502 682.313 20.5256C682.436 20.8011 682.495 21.1004 682.487 21.4018C682.456 21.8066 682.292 22.1899 682.021 22.4923C681.75 22.7948 681.387 22.9995 680.988 23.0749V23.1679C681.348 23.3134 681.661 23.5551 681.893 23.8666C682.124 24.1782 682.265 24.5474 682.301 24.9339C682.379 25.5557 682.56 26.1603 682.836 26.7232H681.023C680.743 26.1675 680.551 25.5717 680.454 24.9571C680.326 24.1671 679.884 23.7953 678.955 23.7953H678.165V26.7232ZM678.165 22.6218H678.955C679.884 22.6218 680.628 22.3197 680.628 21.5645C680.628 20.8092 680.14 20.4607 679.083 20.4607C678.774 20.4534 678.466 20.4847 678.165 20.5536V22.6218Z" fill="white"/>
<path d="M915.978 146.733L895.25 129.305C895.25 129.747 895.25 130.142 895.25 130.467V146.733H886.931V116.467H893.054L912.934 133.116C913.248 133.36 913.538 133.616 913.817 133.848C913.817 133.186 913.817 132.686 913.817 132.303V116.467H922.136V146.733H915.978ZM847.358 146.733C844.29 146.733 842.222 146.176 841.014 145.002C839.805 143.829 839.213 141.83 839.213 138.914V124.321C839.213 121.428 839.805 119.441 841.014 118.256C842.222 117.071 844.29 116.501 847.358 116.501H867.783C870.851 116.501 872.93 117.071 874.127 118.256C875.324 119.441 875.917 121.428 875.917 124.321V138.949C875.917 141.865 875.336 143.864 874.116 145.037C872.896 146.211 870.851 146.768 867.783 146.768L847.358 146.733ZM866.97 138.995V123.949H848.171V138.995H866.97ZM820.797 146.733V116.467H829.778V146.733H820.797ZM792.006 146.733V123.949H779.225V116.467H813.733V123.949H800.952V146.733H792.006ZM763.272 146.733V116.467H772.242V146.733H763.272ZM719.365 146.733V116.467H738.478C743.857 116.467 748.087 117.768 751.049 120.347C754.012 122.927 755.592 126.691 755.592 131.432C755.629 134.06 755.031 136.659 753.85 139.007C752.718 141.226 750.998 143.092 748.877 144.398C747.36 145.297 745.689 145.907 743.95 146.199C741.594 146.596 739.206 146.775 736.816 146.733H719.365ZM735.469 138.995C739.617 138.995 742.533 138.38 744.16 137.171C745.786 135.963 746.483 134.115 746.483 131.362C746.568 130.357 746.441 129.346 746.111 128.393C745.781 127.441 745.254 126.568 744.566 125.831C742.89 124.473 740.756 123.812 738.606 123.984H728.416V139.03L735.469 138.995ZM678.804 146.733V116.467H709.733V123.717H687.75V127.388H700.531V134.638H687.75V138.995H709.965V146.733H678.804ZM615.749 146.733V116.467H646.678V123.717H624.695V127.388H637.476V134.638H624.695V138.995H646.91V146.733H615.749ZM589.026 146.733L571.528 116.467H581.834L592.29 135.161L602.271 116.467H611.566L594.881 146.733H589.026ZM558.491 146.733V116.467H567.461V146.733H558.491ZM531.338 146.733V123.949H518.558V116.467H553.054V123.949H540.273V146.733H531.338ZM502.594 146.733V116.467H511.575V146.733H502.594ZM488.128 146.733L467.4 129.305C467.4 129.747 467.4 130.142 467.4 130.467V146.733H459.081V116.467H465.204L485.096 133.116L485.967 133.848C485.967 133.186 485.909 132.686 485.909 132.303V116.467H494.228V146.733H488.128ZM440.166 146.733V116.467H449.135V146.733H440.166ZM402.44 146.733V116.467H433.032V123.844H411.421V128.62H423.098V136.207H411.386V146.733H402.44ZM361.855 146.733V116.467H392.715V123.717H370.79V127.388H383.571V134.638H370.79V138.995H393.005V146.733H361.855ZM316.298 146.733V116.467H335.411C340.79 116.467 345.02 117.768 347.982 120.347C350.945 122.927 352.525 126.691 352.525 131.432C352.562 134.06 351.964 136.659 350.783 139.007C349.658 141.231 347.936 143.098 345.81 144.398C344.293 145.299 342.623 145.909 340.883 146.199C338.531 146.596 336.147 146.775 333.761 146.733H316.298ZM332.297 138.995C336.445 138.995 339.373 138.38 341 137.171C342.626 135.963 343.323 134.115 343.323 131.362C343.41 130.357 343.284 129.345 342.954 128.392C342.624 127.439 342.096 126.567 341.406 125.831C340.117 124.6 338.118 123.984 335.446 123.984H325.268V139.03L332.297 138.995ZM254.811 146.733V116.467H285.822V123.717H263.828V127.388H276.608V134.638H263.828V138.995H286.043V146.733H254.811ZM235.768 146.733V134.778H218.166V146.722H209.138V116.467H218.119V127.226H235.861V116.467H244.889V146.733H235.768ZM180.358 146.733V123.949H167.578V116.467H202.167V123.949H189.386V146.733H180.358Z" fill="url(#paint4_linear)"/>
<path d="M920.846 117.722V145.479H916.431L896.064 128.33C895.564 127.9 895.146 127.505 894.774 127.168C894.415 126.825 894.074 126.464 893.751 126.087C893.833 126.947 893.902 127.749 893.949 128.515C893.995 129.282 894.007 129.933 894.007 130.502V145.49H888.198V117.722H892.613L912.144 134.081C912.806 134.627 913.399 135.138 913.898 135.614C914.393 136.081 914.859 136.578 915.293 137.102C915.192 135.553 915.122 134.449 915.083 133.79C915.083 133.151 915.025 132.628 915.025 132.303V117.722H920.835H920.846ZM867.772 117.722C870.467 117.722 872.292 118.186 873.233 119.116C874.174 120.045 874.65 121.765 874.65 124.286V138.914C874.65 141.447 874.174 143.178 873.233 144.096C872.292 145.014 870.467 145.479 867.772 145.479H847.358C844.662 145.479 842.838 145.014 841.897 144.096C840.956 143.178 840.479 141.447 840.479 138.914V124.321C840.479 121.8 840.944 120.08 841.897 119.151C842.849 118.221 844.662 117.756 847.358 117.756H867.783L867.772 117.722ZM846.939 140.285H868.225V122.694H846.939V140.25V140.285ZM828.524 117.722V145.479H822.064V117.722H828.524ZM812.513 117.722V122.694H799.732V145.479H793.272V122.694H780.492V117.722H812.466H812.513ZM770.941 117.722V145.479H764.516V117.722H770.976H770.941ZM738.443 117.722C743.532 117.722 747.448 118.914 750.19 121.3C752.932 123.686 754.303 127.063 754.303 131.432C754.337 133.851 753.787 136.242 752.699 138.403C751.678 140.426 750.113 142.124 748.18 143.306C746.793 144.122 745.269 144.677 743.683 144.944C741.403 145.321 739.093 145.492 736.782 145.456H720.62V117.722H738.478H738.443ZM727.08 140.25H735.469C739.907 140.25 743.056 139.561 744.915 138.182C746.774 136.803 747.703 134.518 747.703 131.327C747.785 130.15 747.62 128.969 747.22 127.858C746.82 126.748 746.193 125.734 745.38 124.879C743.834 123.415 741.557 122.694 738.548 122.694H727.103V140.25H727.08ZM708.513 117.722V122.45H686.554V128.643H699.334V133.372H686.554V140.25H708.746V145.479H680.036V117.722H708.443H708.513ZM645.388 117.722V122.45H623.429V128.643H636.21V133.372H623.429V140.25H645.644V145.479H616.957V117.722H645.377H645.388ZM609.428 117.722L594.184 145.479H589.723L573.677 117.722H581.055L592.291 137.787L603.015 117.722H609.451H609.428ZM566.183 117.722V145.479H559.723V117.722H566.183ZM551.822 117.722V122.694H539.042V145.479H532.582V122.694H519.801V117.722H551.788H551.822ZM510.262 117.722V145.479H503.802V117.722H510.262ZM492.938 117.722V145.479H488.523L468.237 128.33C467.749 127.9 467.319 127.505 466.947 127.168C466.588 126.825 466.247 126.464 465.925 126.087C466.006 126.947 466.076 127.749 466.122 128.515C466.169 129.282 466.18 129.933 466.18 130.502V145.49H460.371V117.722H464.751L484.271 134.081C484.933 134.627 485.526 135.138 486.025 135.614C486.52 136.081 486.986 136.578 487.419 137.102C487.319 135.553 487.249 134.449 487.21 133.79C487.21 133.151 487.152 132.628 487.152 132.303V117.722H492.962H492.938ZM447.846 117.722V145.479H441.386V117.722H447.846ZM431.731 117.722V122.578H410.143V129.886H421.762V134.952H410.143V145.479H403.695V117.722H431.754H431.731ZM391.506 117.722V122.45H369.535V128.643H382.316V133.372H369.535V140.25H391.75V145.479H363.075V117.722H391.483H391.506ZM335.376 117.722C340.465 117.722 344.381 118.914 347.123 121.3C349.865 123.686 351.236 127.063 351.236 131.432C351.27 133.851 350.72 136.242 349.632 138.403C348.614 140.428 347.048 142.127 345.113 143.306C343.726 144.122 342.202 144.677 340.616 144.944C338.34 145.321 336.034 145.492 333.726 145.456H317.46V117.722H335.318H335.376ZM323.92 140.25H332.297C336.736 140.25 339.896 139.565 341.743 138.182C343.591 136.8 344.532 134.511 344.532 131.327C344.615 130.15 344.451 128.968 344.051 127.857C343.651 126.747 343.023 125.732 342.208 124.879C340.663 123.415 338.397 122.694 335.376 122.694H323.932V140.25H323.92ZM284.428 117.722V122.45H262.584V128.643H275.365V133.372H262.584V140.25H284.776V145.479H256.113V117.722H284.521H284.428ZM243.576 117.722V145.479H237.023V133.535H216.899V145.479H210.439V117.722H216.899V128.492H237.023V117.722H243.53H243.576ZM200.854 117.722V122.694H188.073V145.479H181.613V122.694H168.833V117.722H200.819H200.854ZM923.286 115.212H912.446V131.106L894.239 115.793L893.531 115.212H885.688V148H896.528V132.024L914.816 147.408L915.513 148H923.368V115.212H923.286ZM867.702 115.212H847.358C843.942 115.212 841.548 115.897 840.131 117.315C838.713 118.732 837.958 121.033 837.958 124.286V138.914C837.958 142.191 838.667 144.48 840.142 145.885C841.618 147.291 843.942 147.977 847.358 147.977H867.783C871.188 147.977 873.593 147.291 874.999 145.885C876.405 144.48 877.183 142.167 877.183 138.914V124.321C877.183 121.068 876.474 118.79 875.01 117.35C873.546 115.909 871.199 115.247 867.783 115.247L867.702 115.212ZM849.368 125.204H865.634V137.729H849.368V125.204ZM830.964 115.212H819.461V148H830.964V115.212ZM814.953 115.212H778.017V125.204H790.797V148H802.288V125.204H815.069V115.212H814.953ZM773.427 115.212H761.925V148H773.427V115.212ZM738.397 115.212H718.099V148H736.817C739.284 148.041 741.75 147.854 744.183 147.442C746.077 147.115 747.896 146.446 749.551 145.467C751.87 144.047 753.745 142.007 754.965 139.576C756.24 137.057 756.886 134.267 756.847 131.443C756.847 126.331 755.174 122.276 751.875 119.406C748.575 116.536 744.171 115.224 738.478 115.224L738.397 115.212ZM729.52 125.204H738.443C740.271 125.048 742.091 125.583 743.544 126.703C744.105 127.33 744.53 128.067 744.792 128.867C745.054 129.667 745.147 130.513 745.066 131.35C745.066 133.674 744.485 135.301 743.3 136.184C742.335 136.904 740.174 137.752 735.353 137.752H729.543V125.204H729.52ZM710.872 115.212H677.514V148H711.209V137.729H688.994V135.94H701.774V126.18H688.994V125.018H710.953V115.258L710.872 115.212ZM647.817 115.212H614.459V148H648.154V137.729H625.95V135.94H638.731V126.18H625.95V125.018H647.898V115.258L647.817 115.212ZM613.611 115.212H601.411L600.703 116.536L592.163 132.536L583.263 116.49L582.542 115.212H569.32L571.505 118.988L587.55 146.734L588.282 148H595.683L596.404 146.687L611.659 118.942L613.704 115.212H613.611ZM568.611 115.212H557.109V148H568.611V115.212ZM554.251 115.212H517.315V125.204H530.095V148H541.586V125.204H554.367V115.212H554.251ZM512.725 115.212H501.223V148H512.725V115.212ZM495.402 115.212H484.561V131.106L466.355 115.793L465.646 115.212H457.78V148H468.62V132.024L486.908 147.408L487.605 148H495.46V115.212H495.402ZM450.286 115.212H438.783V148H450.286V115.212ZM434.171 115.212H401.15V148H412.641V137.473H424.329V127.365H412.641V125.041H434.252V115.212H434.171ZM393.923 115.212H360.554V148H394.248V137.729H372.057V135.94H384.837V126.18H372.057V125.018H394.004V115.258L393.923 115.212ZM335.295 115.212H315.008V148H333.726C336.19 148.04 338.652 147.854 341.081 147.442C342.976 147.117 344.795 146.448 346.449 145.467C348.769 144.045 350.647 142.005 351.875 139.576C353.144 137.055 353.79 134.266 353.757 131.443C353.757 126.331 352.084 122.276 348.773 119.406C345.461 116.536 341.069 115.224 335.376 115.224L335.295 115.212ZM326.418 125.204H335.341C337.169 125.048 338.989 125.583 340.442 126.703C341.003 127.33 341.428 128.067 341.69 128.867C341.952 129.667 342.045 130.513 341.964 131.35C341.964 133.674 341.383 135.301 340.198 136.184C339.234 136.904 337.072 137.752 332.251 137.752H326.441V125.204H326.418ZM286.914 115.212H253.592V148H287.286V137.729H265.094V135.94H277.875V126.18H265.094V125.018H287.042V115.258L286.914 115.212ZM245.97 115.212H234.421V125.971H219.316V115.212H207.976V148H219.479V136.056H234.583V148H246.132V115.212H245.97ZM203.282 115.212H166.393V125.204H179.173V148H190.676V125.204H203.456V115.212H203.282Z" fill="black"/>
</g>
<defs>
<linearGradient id="paint0_linear" x1="787.265" y1="165.637" x2="988.561" y2="-74.2556" gradientUnits="userSpaceOnUse">
<stop stop-color="#A48955"/>
<stop offset="0.12" stop-color="#977B52"/>
<stop offset="0.25" stop-color="#E2D6B0"/>
<stop offset="0.3" stop-color="#DED09F"/>
<stop offset="0.34" stop-color="#DCCE99"/>
<stop offset="0.58" stop-color="#AB9467"/>
<stop offset="0.69" stop-color="#977C52"/>
<stop offset="1" stop-color="#B8A36C"/>
</linearGradient>
<linearGradient id="paint1_linear" x1="1082.37" y1="-24.8642" x2="710.744" y2="110.402" gradientUnits="userSpaceOnUse">
<stop offset="0.09" stop-color="#977B52"/>
<stop offset="0.61" stop-color="#DACB95"/>
<stop offset="0.69" stop-color="#C4B17F"/>
<stop offset="0.81" stop-color="#AB9366"/>
<stop offset="0.91" stop-color="#9C8157"/>
<stop offset="0.98" stop-color="#977B52"/>
</linearGradient>
<linearGradient id="paint2_linear" x1="710.849" y1="52.7492" x2="1077.87" y2="52.7492" gradientUnits="userSpaceOnUse">
<stop offset="0.25" stop-color="#977B52"/>
<stop offset="0.44" stop-color="#7A6846"/>
<stop offset="0.98" stop-color="#DACB95"/>
</linearGradient>
<linearGradient id="paint3_linear" x1="0" y1="5207.71" x2="384841" y2="5207.71" gradientUnits="userSpaceOnUse">
<stop offset="0.09" stop-color="#977B52"/>
<stop offset="0.61" stop-color="#DACB95"/>
<stop offset="0.69" stop-color="#C4B17F"/>
<stop offset="0.81" stop-color="#AB9366"/>
<stop offset="0.91" stop-color="#9C8157"/>
<stop offset="0.98" stop-color="#977B52"/>
</linearGradient>
<linearGradient id="paint4_linear" x1="167.578" y1="131.586" x2="922.165" y2="131.586" gradientUnits="userSpaceOnUse">
<stop stop-color="#A48955"/>
<stop offset="0.12" stop-color="#977B52"/>
<stop offset="0.25" stop-color="#E2D6B0"/>
<stop offset="0.3" stop-color="#DED09F"/>
<stop offset="0.34" stop-color="#DCCE99"/>
<stop offset="0.58" stop-color="#AB9467"/>
<stop offset="0.69" stop-color="#977C52"/>
<stop offset="1" stop-color="#B8A36C"/>
</linearGradient>
<clipPath id="clip0">
<rect width="1097.73" height="148" fill="white"/>
</clipPath>
</defs>
</svg>
