<svg width="267" height="32" viewBox="0 0 267 32" fill="none" xmlns="http://www.w3.org/2000/svg">
<path d="M265.544 10.4371C265.097 9.81025 264.177 9.64492 263.465 10.1145L263.339 10.199C263.344 10.1657 263.348 10.1329 263.352 10.1005C263.454 9.2688 263.402 8.60461 263.196 8.12688C262.987 7.64378 262.626 7.30116 262.144 7.13406C261.926 7.06148 261.703 7.02467 261.482 7.02467C260.459 7.02467 259.701 7.7758 259.151 8.32057L258.765 8.69359L258.647 8.79435C258.646 8.79548 258.645 8.79635 258.644 8.79725C258.615 8.65478 258.573 8.51408 258.517 8.37629C258.124 7.36615 257.091 6.72509 256.321 6.68891C254.765 6.61611 253.296 7.25145 251.933 8.58866C251.922 8.33943 251.863 8.13306 251.786 7.95223C251.984 7.91892 252.185 7.84084 252.379 7.71432C252.683 7.51508 253.046 7.14492 253.178 6.70268C253.234 6.6372 253.285 6.5693 253.328 6.49854C253.713 5.87383 253.832 4.92319 253.188 4.3143C252.616 3.76686 251.551 3.57712 250.894 3.96859C250.343 4.30299 250.159 5.02394 250.171 5.58871C250.179 5.93064 250.274 6.25222 250.421 6.53335C250.419 6.66519 250.426 6.78499 250.443 6.89351C250.327 6.87174 250.207 6.85779 250.083 6.85779C249.36 6.85779 248.574 7.23013 248.077 7.81043C248 7.90319 247.826 8.07225 247.563 8.30616C247.472 7.81621 247.195 7.36015 246.759 7.00222C246.569 6.84802 246.362 6.72109 246.149 6.62542C246.299 6.37515 246.398 6.09466 246.433 5.79885C246.452 5.63574 246.453 5.48641 246.436 5.3333C246.321 4.42505 245.559 3.76577 244.627 3.76577C244.574 3.76577 244.521 3.76799 244.474 3.77154L244.35 3.77972C244.35 3.77972 240.207 4.09684 237.696 4.2899C237.782 4.12679 237.866 3.95591 237.962 3.75154C238.046 3.56917 238.101 3.37675 238.124 3.18146C238.217 2.42101 237.818 1.69292 237.103 1.32589C236.806 1.17479 236.467 1.09512 236.122 1.09512C235.32 1.09512 234.606 1.51631 234.203 2.23927L233.988 2.66065C233.86 2.92319 233.67 3.31308 232.827 4.63074C232.53 4.66737 232.167 4.71264 231.8 4.75877C231.89 4.50936 231.981 4.23041 232.079 3.91642C232.176 3.61043 232.245 3.30062 232.282 2.99841C232.403 2.03954 232.168 1.27063 231.582 0.712097C231.086 0.239683 230.39 0 229.514 0C228.598 0 227.444 0.254544 225.977 0.782221C224.977 1.1657 220.001 3.25336 220.224 6.70732C220.248 7.05839 220.348 7.39369 220.511 7.70568C220.488 7.8861 220.48 8.07025 220.492 8.25913C220.552 9.14251 221.212 9.91341 222.228 10.3692C220.654 10.5793 219.116 11.4963 218.941 12.9056L218.932 13.0232C218.913 13.3649 218.975 13.8145 219.282 14.249C219.25 14.3433 219.225 14.4394 219.213 14.5392C219.207 14.5714 219.206 14.603 219.203 14.6362C219.19 14.8579 219.225 15.0982 219.337 15.3355C218.731 15.3705 218.119 15.4067 217.491 15.4446L217.566 15.1639C217.89 13.9703 218.125 13.108 218.339 12.0131C218.905 9.12342 219.278 7.21459 217.509 6.39288C216.398 5.87452 215.518 6.23091 214.438 7.29139C214.304 6.82693 214.053 6.4051 213.695 6.05271C213.056 5.41851 212.103 5.06544 210.792 4.98045C211.024 4.26904 211.264 3.56139 211.508 2.86879L211.596 2.50245L211.606 2.44719C211.718 1.53917 211.198 0.674831 210.339 0.345528C210.106 0.256317 209.863 0.211052 209.616 0.211052C208.819 0.211052 208.099 0.684375 207.78 1.4191L207.368 2.38461C206.787 3.73336 206.421 4.58503 205.921 5.47732C204.652 5.74427 203.511 6.0598 202.758 6.28417C202.242 6.43973 201.818 6.78435 201.564 7.25785C201.543 7.29739 201.524 7.33752 201.505 7.37838C201.191 6.75704 200.56 6.31412 199.819 6.27594C199.794 6.27485 199.753 6.27326 199.699 6.27326C199.025 6.27326 196.624 6.47986 194.003 9.13742C192.812 10.3448 191.241 13.1565 192.157 15.1051C192.104 15.7797 192.236 16.4179 192.659 16.9243C192.794 17.085 192.941 17.2074 193.094 17.3131C191.094 17.499 189.166 17.6854 187.332 17.8683C188.093 17.3716 188.976 16.6456 189.836 15.5864C190.012 15.3741 190.119 15.1182 190.154 14.8464C190.158 14.8117 190.151 14.7785 190.153 14.7441C190.27 14.6125 190.386 14.4776 190.502 14.3349C190.74 14.0424 190.889 13.6934 190.933 13.3257C191.016 12.6304 190.739 11.9567 190.19 11.522C189.924 11.3127 189.607 11.1747 189.275 11.1195C189.359 10.8769 189.417 10.6322 189.449 10.3863C189.585 9.2619 189.119 8.51962 188.898 8.23849L188.899 8.23827L188.729 8.00835H188.694C188.359 7.66819 187.67 7.13783 186.595 7.11497L186.517 7.11406C185.231 7.11406 183.965 7.87256 182.755 9.36733C182.716 9.41591 182.676 9.46518 182.637 9.51508C182.615 9.47318 182.592 9.43168 182.567 9.39037L182.431 9.17005L181.415 8.42641L181.146 8.36897C180.989 8.33479 180.829 8.31771 180.672 8.31771C179.917 8.31771 179.345 8.71091 178.997 8.94991L178.899 9.01535C178.871 9.03444 178.842 9.0553 178.811 9.07816L178.676 9.17069L178.678 9.178C178.283 9.48736 177.703 10.0195 177.112 10.6987C176.898 10.3111 176.554 9.99576 176.119 9.79471C175.959 9.72081 175.787 9.67264 175.613 9.63646C176.962 7.81462 177.957 6.46654 177.985 6.42705C178.144 6.21291 178.233 5.96618 178.258 5.70918C178.31 5.63974 178.363 5.56739 178.405 5.51036L178.667 5.15642C178.985 4.7275 179.114 4.20046 179.032 3.67256C178.949 3.14642 178.664 2.68174 178.224 2.36198C177.881 2.11611 177.476 1.98627 177.053 1.98627C176.416 1.98627 175.814 2.28854 175.44 2.79513L175.367 2.89697C175.278 3.01772 175.116 3.23541 174.898 3.53054C173.536 5.37234 170.182 9.90501 167.887 12.969L167.806 11.7146C167.734 10.6282 166.788 9.78694 165.683 9.85261C165.148 9.88456 164.657 10.1242 164.303 10.5263C163.951 10.9249 163.775 11.4359 163.807 11.9678L164.163 17.3073C164.168 17.7134 164.251 18.0915 164.402 18.4239L164.43 18.862V18.795C164.408 19.6941 164.847 20.4224 165.568 20.6976C166.865 21.1929 167.84 19.9866 168.207 19.533C168.584 19.0635 169.61 17.7036 170.86 16.0307C170.712 16.7188 170.698 17.2798 170.831 17.7063C170.918 17.9863 171.073 18.2349 171.269 18.4488C171.237 18.7839 171.248 19.0688 171.309 19.2956C171.337 19.4025 171.378 19.5019 171.427 19.5956C170.302 19.7292 169.526 19.8241 169.178 19.8672L169.127 19.8734C168.615 19.9391 168.163 20.1979 167.857 20.6004C167.544 21.0069 167.409 21.5071 167.478 22.0055C167.519 22.3241 167.645 22.6126 167.824 22.8598C167.785 22.961 167.754 23.0653 167.739 23.1718C167.728 23.2859 167.728 23.4044 167.743 23.5207C167.842 24.2694 168.537 24.7993 169.287 24.7043C169.5 24.6781 190.197 22.0836 212.12 20.6301C211.618 22.4843 211.093 24.3439 210.617 25.9403C210.066 26.2457 209.688 26.796 209.609 27.4302L209.606 27.4812C209.546 28.0915 209.45 29.0949 209.818 29.8667C209.786 30.7987 209.954 31.803 211.149 31.977C212.201 32.1279 212.644 31.5292 213.093 30.3713C213.1 30.3536 213.108 30.3327 213.115 30.3145C213.443 29.9422 213.658 29.4517 213.841 28.9769C214.335 27.6952 215.003 25.2733 216.217 20.3705C250.626 18.2952 257.849 20.2298 259.813 22.5101C259.792 22.5598 259.773 22.6069 259.745 22.6614C259.517 23.1128 259.478 23.6294 259.638 24.1251C259.701 24.308 259.796 24.4718 259.905 24.6231C259.795 24.9174 259.781 25.2356 259.882 25.5382C259.997 25.8875 260.247 26.1715 260.582 26.3331C261.258 26.6713 262.09 26.397 262.425 25.7215C262.565 25.445 262.67 25.1721 262.76 24.9005C262.918 24.7509 263.054 24.5765 263.156 24.375C263.483 23.727 263.686 23.084 263.759 22.4648C263.901 21.2896 263.617 20.2023 262.914 19.2339C262.293 18.3751 261.448 17.6557 260.351 17.0526C262.699 16.3622 263.592 15.5911 263.983 15.2498L264.069 15.1792C264.472 14.8721 264.807 14.2976 264.964 13.7171C265.746 12.8521 266.157 11.2888 265.544 10.4371ZM256.05 15.5385C256.23 15.4655 256.409 15.3927 256.578 15.3162C256.543 15.4253 256.512 15.5307 256.499 15.637V15.6386C256.353 15.604 256.201 15.5713 256.05 15.5385ZM241.203 13.8824C241.224 13.9252 241.239 13.9707 241.263 14.012C241.25 14.0735 241.236 14.135 241.228 14.1969C241.216 14.2947 241.22 14.3919 241.223 14.4891C241.06 14.4898 240.897 14.4904 240.73 14.4915C240.908 14.2838 241.066 14.0775 241.203 13.8824ZM230.167 13.4779C230.147 13.8713 230.182 14.2463 230.323 14.5803C230.348 14.6413 230.381 14.7053 230.417 14.7703C229.707 14.7998 228.98 14.8317 228.233 14.8661C228.954 14.415 229.603 13.9388 230.167 13.4779ZM234.996 14.605H234.991C234.993 14.6041 234.994 14.6034 234.995 14.6025C234.995 14.6031 234.996 14.6041 234.996 14.605ZM227.639 5.53299C227.655 5.62752 227.667 5.72295 227.696 5.81416C227.722 5.89469 227.763 5.99945 227.826 6.11661C227.422 6.05271 226.992 5.98836 226.574 5.92755C226.863 5.80971 227.186 5.68855 227.546 5.56362C227.572 5.55562 227.607 5.54367 227.639 5.53299ZM210.158 15.9202C209.825 15.9435 209.49 15.9654 209.156 15.9892C209.362 15.7751 209.549 15.558 209.713 15.359C209.81 15.5766 209.958 15.7611 210.158 15.9202ZM213.625 14.7776C213.554 15.0727 213.481 15.3776 213.403 15.6969C213.139 15.7138 212.879 15.7338 212.617 15.7511C212.94 15.4959 213.273 15.1653 213.625 14.7776ZM209.94 9.99731C209.873 10.2183 209.811 10.4291 209.755 10.626C209.573 10.5645 209.381 10.5297 209.183 10.5232C209.222 10.3639 209.265 10.1941 209.307 10.0266C209.55 10.0086 209.759 9.99994 209.94 9.99731ZM204.773 14.5193C204.803 14.478 204.831 14.4401 204.86 14.3999C204.895 14.5282 204.942 14.6526 204.996 14.7745C204.99 15.4049 205.082 15.8933 205.28 16.273C204.599 16.3256 203.919 16.3789 203.244 16.4328C203.738 15.9122 204.241 15.2511 204.773 14.5193ZM197.663 16.3924C197.666 16.3924 199.276 15.3536 199.276 15.3536C199.276 15.3536 199.35 15.3066 199.469 15.2303C199.476 15.2458 199.485 15.2593 199.493 15.2747C199.463 15.6683 199.479 16.2355 199.758 16.7202C198.712 16.8089 197.678 16.899 196.657 16.9891C197.079 16.7668 197.433 16.5404 197.663 16.3924ZM181.135 18.5069C181.263 18.443 181.383 18.3884 181.516 18.3187C181.557 18.3631 181.603 18.4075 181.65 18.4519C181.475 18.4705 181.307 18.4888 181.135 18.5069ZM174.194 18.8247C174.71 18.4896 175.042 17.9522 175.085 17.3566C175.159 17.9761 175.44 18.6139 176.052 19.0626C175.374 19.1389 174.737 19.2113 174.145 19.2792C174.184 19.1327 174.203 18.9809 174.194 18.8247Z" fill="black"/>
<path d="M45.0184 6.92352C44.7545 6.92198 44.2999 6.92198 44.2999 6.92198C43.3876 6.92198 42.5493 7.18161 41.7988 7.67888C41.0348 7.17384 40.1948 6.9173 39.2864 6.9173C39.0356 6.9173 38.809 6.94415 38.5718 6.96101V6.9173L30.0371 6.91043V6.96724C29.7924 6.92998 29.5418 6.90466 29.2846 6.90466C29.2882 6.90466 24.2876 6.89889 24.2876 6.89889C23.3773 6.89889 22.5383 7.15543 21.7838 7.65248C21.0313 7.15207 20.1861 6.88826 19.2822 6.88826H11.1754L4.28544 6.8778C3.29708 6.8778 2.40701 7.16052 1.63834 7.71838C0.626658 8.41229 0.035039 9.46901 0.0239502 10.6653C0.0239502 10.6872 0.013543 19.9106 0.013543 19.9106C0.013543 19.9247 0.0168606 19.9367 0.0168606 19.9491H0.0102254L0 27.5392L9.2559 27.5605C10.1406 27.5605 10.965 27.3022 11.7818 26.7723C13.291 25.7675 13.5127 24.4552 13.5127 23.7597V23.7215C14.1127 23.7215 14.652 23.7224 14.9819 23.7224V23.7286L23.512 23.7309V23.6612C23.761 23.7038 24.0139 23.7309 24.27 23.7309L30.0191 23.7455V23.7477H31.2476L33.5246 23.7535V23.7477H36.5234C36.8419 23.7495 43.5276 23.7637 43.5276 23.7637V23.6945C43.7739 23.7371 44.0225 23.7637 44.273 23.7637H53.5331L53.5558 3.85258L45.0184 3.8335V6.92352ZM109.169 7.78118C109.169 7.78118 105.538 7.77696 104.194 7.77696V6.99255L98.5134 6.98833L96.0083 6.9841H95.6606L89.2606 6.97878C88.3543 6.97878 87.5155 7.23796 86.7608 7.7326C86.0234 7.23905 85.1748 6.97456 84.253 6.97456C84.249 6.97456 79.2573 6.9657 79.2573 6.9657C78.3459 6.9657 77.5071 7.22597 76.7542 7.71838C76.0386 7.23019 75.1853 6.96101 74.2478 6.96101C74.2511 6.96101 73.9398 6.95879 73.5312 6.95879V3.87299L65.0054 3.86876L64.9994 7.72637C64.4198 7.72415 63.8881 7.72415 63.524 7.72415V6.94883L55.0214 6.9377C55.0214 6.9377 55.0166 7.36135 55.0157 7.70574C54.5124 7.70152 53.9989 7.69952 53.9989 7.69952V15.3029H54.9869C54.9835 17.3595 54.9804 19.982 54.9804 19.982C54.9804 20.665 55.1981 21.9565 56.6569 22.9617C57.5385 23.5267 58.3578 23.7793 59.2299 23.7793L64.2261 23.7886C64.4786 23.7886 64.7269 23.7619 64.9743 23.7202V23.7828C64.9743 23.7828 68.7663 23.7908 69.9521 23.7948V23.8014H78.4893V23.7326C78.7336 23.7766 78.9768 23.8032 79.2245 23.8032C79.2346 23.8032 84.2386 23.8054 84.2386 23.8054C84.4905 23.8054 84.7388 23.7788 84.9871 23.7371V23.8077L93.5216 23.8236C93.5216 23.8236 93.5236 19.9527 93.5236 18.426C94.0204 18.4273 94.83 18.4291 95.6557 18.4336C95.6523 19.3602 95.6523 20.0321 95.6523 20.0321C95.6523 20.7183 95.8678 22.0178 97.3288 23.0217C98.1641 23.5662 99.0167 23.8272 99.9051 23.8272L104.894 23.8338C105.805 23.8338 106.678 23.5622 107.49 23.0217C108.567 22.308 109.159 21.2499 109.159 20.0437C109.159 20.0406 109.163 17.1846 109.165 15.363H109.169V12.8418C109.17 12.2317 109.17 11.6135 109.17 11.6135H109.169V7.78118ZM152.477 7.86749C151.735 7.33717 150.848 7.05422 149.875 7.05422C149.873 7.05422 144.882 7.04577 144.882 7.04577C143.958 7.04577 143.104 7.31031 142.34 7.8249C141.224 7.82336 139.871 7.82268 139.158 7.81913V7.04536L133.483 7.03246V7.02737H126.225C126.201 7.02737 119.971 7.0225 119.971 7.0225V7.07995C119.739 7.04159 119.501 7.01828 119.256 7.01405H114.219C113.264 7.01405 112.384 7.28745 111.612 7.82336C110.543 8.56763 109.959 9.63166 109.959 10.8233C109.959 10.8169 109.953 13.1 109.953 13.1L109.949 15.3639H109.957C109.957 15.3761 109.953 15.3972 109.953 15.4094C109.953 15.4156 109.949 20.0481 109.949 20.0481C109.949 21.2566 110.541 22.3142 111.611 23.0278C112.408 23.5671 113.283 23.8436 114.201 23.8436L123.456 23.8565V23.7872C123.706 23.8276 123.954 23.8565 124.207 23.8565L129.205 23.8693C130.11 23.8693 130.979 23.5911 131.796 23.0465L131.802 23.0429C131.887 22.9844 131.961 22.9249 132.039 22.8628C132.113 22.9249 132.182 22.9844 132.264 23.0447L132.314 23.0789L132.364 23.1122C133.18 23.6275 133.995 23.8778 134.865 23.8778H139.868C140.735 23.8778 141.574 23.6172 142.367 23.1166C143.178 23.6248 144.011 23.8835 144.866 23.8835L149.867 23.8889C150.78 23.8889 151.655 23.6132 152.465 23.0705C153.532 22.3639 154.125 21.3063 154.125 20.0982C154.125 20.0916 154.138 10.8774 154.138 10.8774C154.138 9.66738 153.548 8.60135 152.477 7.86749Z" fill="black"/>
<path d="M7.32703 18.5081H6.35798L6.36221 12.343H7.33326L7.32703 18.5081ZM11.3251 23.8778L11.3458 9.26711L4.35171 9.25716C3.89307 9.25248 3.45501 9.3805 3.03427 9.66276C2.58049 9.98212 2.35944 10.3655 2.35944 10.8069L2.34526 20.0264C2.34417 20.4676 2.56381 20.8342 3.00319 21.1302C3.44433 21.4178 3.87553 21.5611 4.33508 21.5611L7.32703 21.5678L7.32081 22.3454L2.34417 22.3369L2.34326 25.3979L9.33348 25.4138C9.79085 25.4138 10.2014 25.2612 10.6179 24.9967C11.0839 24.6833 11.3251 24.3145 11.3251 23.8778ZM17.337 13.8876H16.3648V12.3556H17.337V13.8876ZM21.3295 21.5864L21.3386 16.199C21.3386 15.9782 21.2385 15.7823 21.0242 15.6338C20.8025 15.5169 20.589 15.4463 20.3411 15.4157C20.589 15.4194 20.8025 15.3471 21.0242 15.1976C21.2447 15.0753 21.3386 14.8884 21.3386 14.6645L21.3444 10.8318C21.3444 10.3944 21.1209 10.0052 20.6711 9.68808C20.2493 9.39095 19.8201 9.27511 19.3572 9.27511L12.3643 9.26711L12.3497 21.5784L16.357 21.5824L16.3615 16.9637H17.3325L17.325 21.5824L21.3295 21.5864ZM27.3351 18.5352H26.3623V16.9801H27.3378L27.3351 18.5352ZM31.337 21.5984L31.3467 10.8444C31.3467 10.405 31.1293 10.0185 30.6719 9.69871C30.2534 9.40672 29.8194 9.28511 29.3645 9.28511L24.3583 9.28043C23.9027 9.28043 23.4582 9.3985 23.0492 9.69385C22.5846 10.0052 22.3705 10.3944 22.3705 10.8318L22.3656 13.1101L26.373 13.1185V12.3678H27.344L27.3409 13.8981H24.3498C23.8892 13.8981 23.4773 14.0376 23.065 14.3257C22.5997 14.6404 22.3622 15.0069 22.3622 15.4194L22.3516 20.0544C22.3516 20.4938 22.5668 20.8652 23.0067 21.1511C23.4449 21.4417 23.882 21.5882 24.3399 21.5882L31.337 21.5984ZM37.3286 21.6073L37.3482 12.3824L36.3729 12.3804L36.3627 21.6073L32.3586 21.6011L32.3697 9.29242L36.3729 9.29729V10.0711C37.032 9.5616 38.0286 9.29729 39.3604 9.30088C39.8266 9.30088 40.2618 9.41935 40.6732 9.71562C41.135 10.0342 41.3507 10.4162 41.3507 10.8586L41.3403 21.6073H37.3286ZM47.3393 18.5574H46.3671L46.372 12.3931L47.3441 12.3958L47.3393 18.5574ZM51.3402 21.6259L51.3568 6.22835L47.3579 6.22412L47.3526 9.30997H44.3637C43.9053 9.30997 43.4679 9.42467 43.0494 9.71562C42.5944 10.0342 42.3741 10.4162 42.3741 10.8586L42.3648 20.0748C42.3648 20.5226 42.5785 20.8857 43.0136 21.1741C43.4535 21.4666 43.8906 21.6095 44.3464 21.6095L51.3402 21.6259ZM65.6415 21.2057C65.2022 21.4897 64.7672 21.6383 64.3097 21.6343L59.3046 21.6303C58.8424 21.6303 58.4248 21.4897 58.018 21.2181C57.5538 20.903 57.3179 20.5355 57.3179 20.1019L57.321 13.1554H56.326V10.0937L57.3292 10.098V9.32037L61.3331 9.32351V10.1059H66.3139L66.3119 13.1691L61.3331 13.1638L61.3175 18.5765H62.3201L62.3221 13.9407L66.3077 13.9444L66.2975 20.1081C66.2975 20.5466 66.0829 20.9078 65.6415 21.2057ZM72.291 21.649L72.2974 12.4231H71.3301L71.3221 21.6428H67.3138L67.3362 6.25252L71.3428 6.25875L71.3385 9.33769L74.3243 9.343C74.786 9.343 75.2232 9.46153 75.6324 9.75089C76.0975 10.0711 76.3161 10.461 76.3161 10.8944L76.2977 21.6548L72.291 21.649ZM82.3058 13.9618L81.3367 13.9598V12.4379H82.3058V13.9618ZM86.3019 20.1312L86.3039 17.8278L82.3015 17.8256V18.5991H81.3305V17.0436L86.308 17.0525L86.3174 10.9077C86.3174 10.4688 86.0957 10.0833 85.6379 9.76775C85.2256 9.47793 84.7862 9.35409 84.3289 9.35409L79.3276 9.34991C78.8604 9.34991 78.4273 9.46153 78.015 9.75666C77.5535 10.0749 77.3306 10.461 77.3306 10.8944L77.3202 20.1272C77.3162 20.5621 77.5366 20.9345 77.976 21.2181C78.4111 21.5083 78.8483 21.6566 79.31 21.6566L84.314 21.6605C84.7678 21.6605 85.211 21.5167 85.6439 21.2296C86.081 20.9367 86.3019 20.5723 86.3019 20.1312ZM91.3349 16.2853L91.3309 21.6765L87.3246 21.6667L87.3337 10.9077C87.3337 10.4745 87.5556 10.0833 88.0194 9.77197C88.4315 9.48216 88.8666 9.35832 89.3328 9.35832L96.3198 9.371L96.3144 12.4568L91.3409 12.4483V13.1984L96.3144 13.2048L96.3113 16.2853H91.3349ZM106.314 21.2545C105.87 21.5394 105.436 21.681 104.969 21.681H99.9701C99.5121 21.681 99.1 21.5394 98.6868 21.2691C98.2235 20.9536 97.9783 20.5843 97.9867 20.148L97.9876 13.2048H96.9979L97.001 10.1505H97.992L97.9991 9.37209L102.005 9.3805V10.1532L106.981 10.1574V13.2153L101.997 13.2068L101.99 18.6289H102.989V13.9871L106.972 13.9913L106.964 20.1591C106.964 20.6007 106.744 20.9642 106.314 21.2545ZM117.265 18.6413H116.292V17.0857H117.267L117.265 18.6413ZM121.271 21.7062L121.282 10.9556C121.282 10.512 121.066 10.1252 120.6 9.81192C120.188 9.52588 119.754 9.3985 119.288 9.39095H114.289C113.823 9.39095 113.389 9.51743 112.981 9.79883C112.516 10.1186 112.298 10.5056 112.298 10.9408V13.2259H116.295L116.3 12.4779H117.274L117.267 14.0077H114.284C113.82 14.0077 113.408 14.1493 112.995 14.4422C112.538 14.7515 112.292 15.1181 112.292 15.5326L112.286 20.1658C112.286 20.6029 112.498 20.9682 112.942 21.2625C113.379 21.5509 113.816 21.6978 114.28 21.6978L121.271 21.7062ZM130.61 21.2833C130.177 21.5722 129.74 21.7249 129.278 21.7249L124.278 21.7062C123.817 21.7062 123.383 21.5611 122.944 21.2691C122.506 20.9846 122.284 20.6132 122.284 20.1782L122.303 9.40204H126.305L126.29 18.6622H127.271L127.274 9.40672L131.284 9.41513L131.269 20.1947C131.269 20.6273 131.051 20.9931 130.61 21.2833ZM141.27 21.2962C140.84 21.5864 140.401 21.7333 139.939 21.7333L134.94 21.7249C134.475 21.7249 134.063 21.5824 133.648 21.3121C133.186 20.9935 132.951 20.6273 132.951 20.1947L132.956 13.2508H131.963L131.968 10.1907H132.958V9.41513L136.967 9.41935L136.96 10.1985L141.942 10.2007V13.2612L136.96 13.257L136.954 18.671H137.949L137.959 14.0354L141.936 14.0419L141.931 20.2053C141.931 20.6371 141.709 21.0033 141.27 21.2962ZM147.93 18.6835H146.957L146.969 12.5105L147.938 12.5136L147.93 18.6835ZM151.936 20.2137L151.946 10.9929C151.946 10.5557 151.726 10.1632 151.265 9.8525C150.856 9.55651 150.419 9.43535 149.962 9.43535L144.961 9.43113C144.497 9.42467 144.053 9.54851 143.646 9.83764C143.179 10.1532 142.959 10.542 142.959 10.9887L142.951 20.2053C142.951 20.6424 143.162 21.0086 143.606 21.2962C144.039 21.5882 144.476 21.7418 144.94 21.7418H149.945C150.399 21.7418 150.841 21.6011 151.278 21.3086C151.714 21.0152 151.936 20.6527 151.936 20.2137Z" fill="white"/>
<path d="M174.53 16.9222L174.518 16.8667C174.524 16.8893 174.527 16.9129 174.531 16.9368L174.53 16.9222Z" fill="#E75A9E"/>
<path d="M248.707 15.1748C242.126 14.8072 232.489 15.0586 216.788 16.0156C216.887 15.6522 216.972 15.3225 217.053 15.0253C217.39 13.7849 217.612 12.9636 217.817 11.9115C218.372 9.078 218.672 7.51624 217.282 6.87095C216.213 6.37209 215.455 6.87781 213.982 8.5481C213.986 8.5166 213.996 8.48329 214 8.45225C214.097 7.67426 213.856 6.95462 213.319 6.4269C212.675 5.7867 211.604 5.47916 210.071 5.48802C210.368 4.55515 210.679 3.62336 211.006 2.69358L211.079 2.38223C211.162 1.71476 210.777 1.0801 210.147 0.838236C209.403 0.553288 208.577 0.900361 208.263 1.62641L207.887 2.50561C207.231 4.02943 206.846 4.92926 206.258 5.9458C204.931 6.21498 203.714 6.54896 202.907 6.78928C202.526 6.90399 202.215 7.15544 202.027 7.50402C201.943 7.66471 201.891 7.836 201.868 8.01288C201.842 8.21411 201.862 8.42117 201.925 8.61977C202.161 9.38935 202.984 9.82073 203.756 9.59173C203.78 9.58641 203.803 9.57909 203.825 9.57487C203.607 9.87776 203.376 10.1984 203.13 10.5373C203.003 10.1447 202.758 9.89131 202.529 9.7322C201.496 9.00011 200.807 9.44462 197.915 11.3164L196.316 12.3494C196.075 12.5011 195.877 12.6189 195.695 12.7186C195.891 12.316 196.157 11.8874 196.483 11.5571C198.268 9.74706 199.661 9.72866 199.681 9.72866C200.437 9.74706 201.086 9.19339 201.174 8.4438L201.187 8.32C201.214 7.52469 200.588 6.84409 199.792 6.80305C199.524 6.79083 197.091 6.75402 194.376 9.50783C193.217 10.6831 191.542 13.6972 192.913 15.3386C194.37 17.0839 197.038 15.3719 197.915 14.8072L199.528 13.7704C199.528 13.7704 199.617 13.7132 199.747 13.6278C199.699 14.224 199.726 15.3002 200.729 15.7971L200.724 15.8175L200.737 15.8029C200.751 15.8071 200.759 15.8175 200.771 15.8217C202.268 16.514 203.531 14.9938 205.027 12.9356C205.115 12.8155 205.196 12.7022 205.278 12.5875C205.142 14.1408 205.444 14.9862 206.294 15.4505C207.744 16.2338 209.142 14.7734 209.97 13.7742C210.105 14.0898 210.343 14.3394 210.715 14.5349C212.047 15.2481 213.168 14.0771 214.729 12.2129C214.736 12.2018 214.747 12.1903 214.757 12.1787C214.51 13.339 214.185 14.7182 213.819 16.199C191.549 17.6129 170.097 20.2851 169.19 20.397C168.822 20.444 168.494 20.6295 168.272 20.9224C168.047 21.214 167.948 21.5722 167.998 21.937C168.095 22.6857 168.789 23.2134 169.542 23.1184C169.756 23.0927 190.91 20.4391 213.098 18.9967C212.423 21.5699 211.685 24.2031 211.052 26.3165C210.565 26.5051 210.198 26.9405 210.13 27.4948L210.128 27.533C210.024 28.5817 209.873 30.1679 211.402 30.3907C212.457 30.5412 212.9 29.9429 213.345 28.7868C213.828 27.533 214.502 25.096 215.738 20.0961C215.853 19.6358 215.959 19.2089 216.056 18.8081C251.877 16.6299 258.516 18.7575 260.239 21.139C260.472 21.4688 260.685 21.9658 260.213 22.9001C260.045 23.232 260.021 23.6026 260.134 23.9536C260.254 24.3029 260.5 24.5879 260.836 24.7494C261.515 25.0863 262.342 24.8111 262.681 24.137C262.979 23.5463 263.165 22.9653 263.231 22.4012C263.355 21.3783 263.111 20.4094 262.483 19.5431C260.584 16.917 256.465 15.61 248.707 15.1748ZM210.785 9.03805C210.49 9.97829 210.252 10.7574 210.082 11.4258C210.059 11.4031 210.037 11.3759 210.009 11.3552C209.562 11.0086 208.974 10.9644 208.488 11.1852C208.654 10.4112 208.885 9.49252 209.171 8.47488C210.132 8.38122 210.672 8.40585 210.967 8.45225C210.889 8.71252 210.785 9.03805 210.785 9.03805Z" fill="#E75A9E"/>
<path d="M173.479 11.2709C171.732 14.4089 171.013 16.5201 171.332 17.5493C171.574 18.3264 172.454 18.7924 173.33 18.6157C174.166 18.4458 174.685 17.7175 174.536 16.9617C174.536 16.9466 174.538 16.9368 174.54 16.9222C174.58 16.6086 174.9 15.7447 175.432 14.6152C175.416 14.6627 175.403 14.7122 175.389 14.7597L175.385 14.7832C175.194 15.6336 175.35 16.8689 176.409 17.5582C177.58 18.3144 179.247 18.0588 181.768 16.7304C182.317 17.3256 183.437 17.962 185.541 17.2604C185.848 17.1778 188.04 16.5285 190.09 14.001C190.261 13.7908 190.374 13.5328 190.406 13.2629C190.466 12.751 190.264 12.2564 189.861 11.9366C189.434 11.6011 188.876 11.5368 188.404 11.7223C188.689 11.2556 188.86 10.7894 188.922 10.3227C189.037 9.36761 188.642 8.7645 188.465 8.54367C188.293 8.32553 187.681 7.66561 186.579 7.64229C185.439 7.61457 184.288 8.30826 183.161 9.70046C182.858 10.0724 182.585 10.4627 182.337 10.8604C182.344 10.8293 182.355 10.8004 182.359 10.7703C182.404 10.3899 182.32 10.0071 182.114 9.66674L182.032 9.53404L181.89 9.42933L181.191 8.9187L181.032 8.88452C180.258 8.71701 179.676 9.12107 179.293 9.38447C179.295 9.38447 179.194 9.45083 179.194 9.45083C178.718 9.77636 177.667 10.7239 176.769 11.9757C176.79 11.9098 176.804 11.8419 176.813 11.7718C176.836 11.5654 176.813 11.3523 176.735 11.1449C176.594 10.7667 176.295 10.4585 175.897 10.2741C175.291 9.9965 174.588 10.0766 174.101 10.4316C176.258 7.5245 178.2 4.89534 178.24 4.84208C178.474 4.525 178.567 4.14043 178.507 3.75387C178.446 3.36285 178.233 3.02314 177.914 2.79077C177.259 2.32145 176.338 2.46215 175.862 3.1079V3.11053C175.794 3.19956 170.167 10.8204 167.45 14.4257C167.365 13.1098 167.276 11.7491 167.276 11.7491C167.223 10.9443 166.521 10.3305 165.712 10.3791C165.32 10.4026 164.956 10.5797 164.696 10.8757C164.436 11.1697 164.307 11.5425 164.331 11.9324L164.687 17.2914L164.687 17.2954C164.696 18.1471 165.123 18.8461 165.82 19.1119C167.119 19.6077 168.095 18.4027 168.461 17.9491C169.058 17.2009 171.293 14.207 173.479 11.2709ZM180.13 12.5429C180.403 12.5873 180.687 12.5613 180.949 12.4461C181.132 12.3638 181.467 12.1901 181.766 11.9013C181.471 12.526 181.257 13.146 181.143 13.7283C179.747 14.5347 178.895 14.8565 178.419 14.976C178.777 14.1186 179.483 13.213 180.13 12.5429ZM174.53 16.9222L174.531 16.9368C174.526 16.9129 174.524 16.8893 174.518 16.8667L174.53 16.9222Z" fill="#E75A9E"/>
<path d="M188.457 8.53613L188.471 8.55122C188.469 8.54922 188.461 8.53613 188.457 8.53613Z" fill="#E75A9E"/>
<path d="M226.703 2.72945C226.678 2.74009 226.647 2.75117 226.621 2.76494C226.656 2.74899 226.69 2.7359 226.725 2.72168C226.718 2.72545 226.709 2.72636 226.703 2.72945Z" fill="#E75A9E"/>
<path d="M251.4 6.8293C250.977 6.63602 250.71 6.10389 250.697 5.57621C250.689 5.18319 250.805 4.63906 251.166 4.41938C251.655 4.12802 252.432 4.32353 252.821 4.69546C253.251 5.10152 253.16 5.76259 252.877 6.2215C252.727 6.46737 252.47 6.64602 252.215 6.77295C251.907 6.93046 251.633 6.93046 251.4 6.8293Z" fill="#E75A9E"/>
<path d="M226.703 2.72945C226.678 2.74009 226.647 2.75117 226.621 2.76494C226.656 2.74899 226.69 2.7359 226.725 2.72168C226.718 2.72545 226.709 2.72636 226.703 2.72945Z" fill="#E75A9E"/>
<path d="M265.11 10.7433C264.85 10.3783 264.299 10.1949 263.755 10.5535L263.301 10.8564C263.023 11.073 262.774 11.267 262.544 11.4438C262.667 10.9783 262.77 10.4947 262.825 10.0358C262.906 9.37636 262.892 8.76478 262.707 8.33582C262.517 7.89444 262.203 7.71425 261.974 7.63481C260.937 7.28933 260.115 8.10527 259.514 8.70043L259.105 9.09495L258.986 9.19571C258.789 9.36481 258.449 9.64971 258.018 9.97415C258.08 9.80818 258.127 9.64971 258.143 9.49951C258.194 9.10827 258.11 8.78783 258.022 8.56773C257.711 7.76797 256.882 7.24384 256.292 7.21611C254.204 7.11645 252.269 8.46075 250.536 11.2015C250.536 11.2015 250.527 11.2168 250.524 11.2275C250.412 11.2774 250.286 11.3349 250.156 11.387C250.302 11.1263 250.462 10.8607 250.584 10.6632C250.853 10.2218 251.087 9.83922 251.218 9.51747C251.311 9.28823 251.366 9.07809 251.39 8.8959C251.49 8.07509 250.993 7.69121 250.811 7.58159C250.065 7.12754 249.014 7.52319 248.478 8.14944C248.234 8.44125 247.458 9.10918 246.626 9.77201C246.686 9.69034 246.747 9.61022 246.747 9.61022C246.916 9.36681 247.019 9.10718 247.052 8.84841C247.119 8.32427 246.899 7.80282 246.423 7.41203C246.031 7.09382 245.503 6.89054 245.052 6.95734C245.557 6.68971 245.848 6.21507 245.905 5.73997C245.918 5.62527 245.921 5.51297 245.909 5.39981C245.82 4.70544 245.23 4.24188 244.505 4.29824L244.387 4.30601C244.387 4.30601 238.881 4.72743 236.716 4.89454C237.084 4.32355 237.239 4.04106 237.479 3.5307C237.542 3.39577 237.58 3.25529 237.597 3.11727C237.662 2.58469 237.393 2.06987 236.861 1.79651C236.17 1.44567 235.158 1.60387 234.669 2.4793L234.458 2.89181C234.308 3.19985 234.095 3.63186 233.134 5.12418C232.596 5.19053 231.673 5.30483 230.967 5.39713C231.164 4.98307 231.358 4.44939 231.572 3.7557C231.665 3.46544 231.723 3.18785 231.754 2.93176C231.854 2.14577 231.673 1.53111 231.215 1.09437C230.364 0.2842 228.759 0.341689 226.163 1.27502C225.576 1.50002 220.542 3.50184 220.748 6.6713C220.83 7.87181 222.01 8.86218 223.691 9.14358C224.249 9.23674 224.881 9.30778 225.495 9.37676C226.177 9.45489 227.202 9.57227 227.811 9.7192C226.313 10.7637 226.1 10.8092 222.854 10.8502C221.311 10.8691 219.617 11.7161 219.463 12.9546C219.46 12.9878 219.458 13.0174 219.455 13.0522C219.413 13.8149 219.889 14.7904 222.4 15.1082C223.721 15.2735 225.819 14.76 227.501 13.8564C228.63 13.2508 229.611 12.5554 230.42 11.8894C230.397 12.2857 230.438 12.6585 230.578 12.9947C230.746 13.3966 231.12 13.9203 231.953 14.1367C232.896 14.3821 234.208 13.7102 235.247 13.0174C235.255 13.0362 235.255 13.0564 235.259 13.079C235.528 14.0772 236.144 14.6029 237.195 14.7336C238.818 14.9311 240.559 13.6953 241.582 12.2287C241.54 12.3541 241.501 12.4817 241.483 12.6117C241.421 13.129 241.571 13.6463 241.927 14.0392C242.498 14.6573 243.657 14.9863 245.211 14.0577C245.801 13.7079 246.301 13.3966 246.731 13.1252C246.758 13.4166 246.846 13.7102 247.043 13.9866C247.822 15.0922 249.565 14.4959 250.652 14.0277C250.757 14.1615 250.891 14.2984 251.064 14.4218C251.693 14.8736 252.558 14.9863 253.637 14.7642C254.86 14.5123 255.915 14.1535 256.826 13.7496C256.791 13.8502 256.765 13.9514 256.752 14.0503C256.706 14.4054 256.805 14.7456 257.037 15.0291C257.653 15.7761 259.109 15.8773 260.168 15.5917C262.842 14.8736 263.821 14.0255 264.238 13.6653L264.322 13.5948C265.087 13.0116 265.629 11.4645 265.11 10.7433ZM228.73 6.80314C227.334 6.55237 224.87 6.2193 224.259 6.13763C224.442 5.73843 224.944 4.96466 227.799 3.98316C227.979 3.91944 228.335 3.79519 228.644 3.70975C228.613 3.76879 228.583 3.82891 228.583 3.82891C228.415 4.13227 228.191 4.54324 228.137 4.99416C228.11 5.20698 228.122 5.42667 228.196 5.65408C228.269 5.88445 228.451 6.18821 228.831 6.42944C228.781 6.54392 228.747 6.66553 228.73 6.78515C228.727 6.79092 228.73 6.79778 228.73 6.80314ZM236.13 9.01128C235.69 9.40676 234.591 10.226 233.817 10.6569C234.044 10.0194 234.456 9.06391 235.083 7.91176C235.574 7.86759 236.51 7.79237 237.538 7.71425C237.059 7.98679 236.571 8.39972 236.13 9.01128ZM239.024 11.0355C239.024 11.0355 238.737 11.5925 238.341 11.8832C238.341 11.8832 238.043 12.1393 237.807 12.0296C237.807 12.0296 237.437 11.8406 237.794 11.1505C237.794 11.1505 238.122 10.5906 238.492 10.3614C238.492 10.3614 238.807 10.0938 239.074 10.2793C239.074 10.2793 239.327 10.4319 239.024 11.0355ZM244.508 7.23384C244.093 7.67012 242.863 8.31809 242.059 8.66403C242.011 8.54928 241.954 8.43503 241.875 8.32228C241.687 8.03983 241.352 7.69698 240.767 7.46775C242.917 7.30019 244.242 7.19544 244.493 7.15063C244.551 7.14063 244.606 7.1249 244.66 7.10804C244.606 7.14222 244.555 7.18171 244.508 7.23384Z" fill="#E75A9E"/>
<path d="M187.766 9.06637C187.77 9.06878 187.779 9.08255 187.781 9.08523C187.783 9.091 187.795 9.10164 187.796 9.10409C187.787 9.09164 187.779 9.08101 187.766 9.06637ZM251.564 6.37709C251.937 6.48671 252.496 5.93304 252.538 5.59796C252.581 5.25934 252.542 5.2114 252.061 4.96067C251.661 4.75253 251.437 4.85946 251.314 5.23185C251.305 5.26711 251.296 5.30306 251.287 5.33878C251.225 5.58687 251.248 6.28434 251.564 6.37709ZM176.753 16.964C177.41 17.3909 178.651 17.6301 181.937 15.7699C181.989 15.8859 182.046 15.9969 182.117 16.0981C182.527 16.6635 183.405 17.1978 185.252 16.5707C185.389 16.5375 187.457 15.9765 189.41 13.5686C189.494 13.4654 189.542 13.3458 189.557 13.2224C189.587 12.9934 189.496 12.7547 189.3 12.602C188.999 12.3623 188.557 12.4071 188.316 12.7067C186.65 14.7602 184.911 15.2342 184.888 15.2384C184.873 15.2442 184.85 15.25 184.834 15.2548C184.027 15.5371 183.44 15.5535 183.255 15.3006C183.211 15.2364 183.189 15.1394 183.168 15.0398C183.86 14.6031 184.628 14.092 185.477 13.4896C187.075 12.3623 187.947 11.2834 188.069 10.2837V10.2795C188.156 9.59205 187.861 9.18217 187.781 9.08523C187.702 8.98671 187.28 8.4883 186.479 8.47053C185.592 8.44835 184.655 9.04947 183.679 10.2447C182.696 11.4609 181.92 12.9807 181.761 14.2745C178.444 16.251 177.621 15.8775 177.52 15.8163C177.402 15.7399 177.401 15.4861 177.416 15.3591C177.416 15.3432 177.419 15.329 177.424 15.3201C177.787 13.8919 179.082 12.4256 179.855 11.7028C180.049 11.8528 180.316 11.8976 180.558 11.7922C180.728 11.7163 181.302 11.4314 181.47 10.9137C181.555 10.6488 181.52 10.3658 181.373 10.123C181.375 10.1293 180.785 9.6948 180.785 9.6948C180.341 9.60137 179.975 9.85277 179.654 10.0771L179.549 10.145C178.85 10.6197 176.637 12.7389 176.058 15.0072C175.95 15.5107 175.976 16.4611 176.753 16.964ZM184.773 11.1085C185.683 9.98661 186.235 9.85591 186.43 9.84746C186.566 9.84368 186.639 9.89581 186.666 9.92335C186.684 9.96398 186.696 10.0219 186.686 10.1044C186.639 10.4748 186.235 11.2561 184.66 12.3681C184.264 12.6499 183.894 12.9011 183.541 13.1414C183.81 12.5108 184.202 11.8113 184.773 11.1085ZM175.305 11.1349C174.961 10.9621 174.541 11.0964 174.363 11.4356C173.617 12.8858 171.912 16.381 172.229 17.5658C172.326 17.9293 172.7 18.1414 173.07 18.0513C173.442 17.9625 173.667 17.5866 173.579 17.2201L173.582 17.228C173.49 16.6733 174.556 14.1096 175.612 12.0641C175.788 11.7248 175.651 11.3109 175.305 11.1349ZM177.383 3.47412C177.072 3.25066 176.632 3.31924 176.407 3.62678C176.319 3.73839 168.099 14.8696 166.733 16.5934C166.669 15.6219 166.418 11.8528 166.418 11.8528C166.397 11.4751 166.067 11.1855 165.677 11.2082C165.292 11.2317 165.001 11.559 165.024 11.9393L165.378 17.2817C165.367 17.734 165.525 18.2568 166.017 18.4445C166.788 18.7401 167.459 17.9124 167.78 17.5187C169.007 15.9865 177.191 4.90786 177.534 4.43849C177.762 4.12982 177.692 3.69958 177.383 3.47412ZM215.684 16.9089C216.375 14.2756 216.688 13.3014 216.979 11.8197C217.526 8.99402 217.677 8.00011 216.877 7.62664C216.028 7.23407 215.321 8.07955 212.974 10.8919C212.639 11.2941 212.368 11.599 212.147 11.8408C212.321 11.2055 212.565 10.4249 212.781 9.7363L213.059 8.84864C213.106 8.69176 213.137 8.54951 213.152 8.41772C213.238 7.7398 212.965 7.29797 212.693 7.03193C211.993 6.33914 210.524 6.22639 208.914 6.36819C209.294 5.12864 209.728 3.81651 210.199 2.48799C210.215 2.44381 210.226 2.39564 210.23 2.34306C210.269 2.03707 210.093 1.73571 209.789 1.61833C209.437 1.48117 209.041 1.64718 208.895 1.99067L208.518 2.86255C207.783 4.57765 207.384 5.51052 206.673 6.69417C205.166 6.98335 203.786 7.36787 203.047 7.58646C202.677 7.69721 202.469 8.08373 202.583 8.44567C202.695 8.80915 203.088 9.01775 203.457 8.90613C204.154 8.69867 204.877 8.50893 205.602 8.34514C205.008 9.20639 204.237 10.2773 203.181 11.729C202.611 12.5181 202.202 13.0118 201.911 13.3309C201.977 12.9927 202.074 12.564 202.21 12.0341L202.237 11.9329C202.28 11.7681 202.325 11.5783 202.351 11.3888C202.395 11.03 202.347 10.6614 202.008 10.4195C201.395 9.99079 200.917 10.3021 198.256 12.0219L196.653 13.056C195.195 13.9889 194.636 14.0115 194.505 13.9995C194.48 13.9374 194.472 13.8424 194.487 13.7166C194.561 13.0981 195.084 11.8486 195.851 11.0691C197.901 8.99248 199.544 9.00888 199.614 9.01152C199.975 9.01997 200.284 8.75702 200.327 8.40418C200.329 8.38663 200.329 8.36514 200.331 8.34873C200.346 7.97057 200.055 7.65127 199.673 7.63195C199.579 7.62664 197.371 7.54651 194.846 10.1062C193.851 11.1165 192.445 13.7282 193.425 14.8998C194.442 16.1187 196.684 14.6832 197.415 14.2117L199.026 13.174C199.708 12.7327 200.306 12.347 200.762 12.0694C200.627 12.602 200.515 13.1004 200.464 13.5164C200.362 14.3424 200.476 14.9271 201.016 15.1752C201.794 15.5349 202.624 14.8676 204.318 12.535C205.303 11.1829 206.042 10.1508 206.631 9.30333C206.293 10.6177 206.09 11.62 205.999 12.3659C205.781 14.1633 206.154 14.5905 206.585 14.8259C207.519 15.3327 208.572 14.2445 209.57 12.9901C209.812 12.6921 209.759 12.2611 209.454 12.0235C209.15 11.7887 208.708 11.8366 208.471 12.1331C207.911 12.8379 207.55 13.1929 207.322 13.3804C207.317 13.1929 207.331 12.9528 207.369 12.663C207.501 11.589 207.903 9.86009 208.483 7.81878C210.078 7.61777 211.336 7.64241 211.707 8.00429C211.738 8.03538 211.821 8.11859 211.72 8.43949L211.444 9.32378C210.505 12.3312 210.15 13.457 210.999 13.9099C211.685 14.2756 212.344 13.8171 214.052 11.7703C214.685 11.0131 215.415 10.1408 215.956 9.55342C215.859 10.2362 215.697 11.0859 215.604 11.5575C215.319 13.0176 214.87 14.9393 214.352 16.9915C214.204 17.0017 214.06 17.0083 213.907 17.0199C191.346 18.4476 169.426 21.193 169.21 21.2201C168.875 21.2631 168.642 21.5619 168.687 21.8898C168.728 22.2178 169.031 22.449 169.366 22.4077C169.581 22.3789 191.47 19.6362 213.994 18.2133C214.012 18.2133 214.025 18.2097 214.041 18.2097C213.221 21.3741 212.29 24.6982 211.58 27.0438C211.204 27.0074 210.862 27.2746 210.818 27.6452C210.818 27.6514 210.815 27.6572 210.815 27.6612C210.718 28.6815 210.633 29.5646 211.432 29.6801C212.208 29.791 212.465 29.8283 214.905 19.9641C215.073 19.2842 215.229 18.6766 215.368 18.1268C251.59 15.8937 258.743 17.9119 260.785 20.7417C261.313 21.4753 261.329 22.3145 260.824 23.3087C260.678 23.6025 260.796 23.9633 261.096 24.1107C261.394 24.2589 261.76 24.1395 261.907 23.8439C262.618 22.4384 262.578 21.162 261.772 20.0507C258.429 15.4175 246.417 15.005 215.684 16.9089ZM264.105 11.2561L263.696 11.5231C262.411 12.5287 260.8 13.7661 261.027 13.2752C261.721 11.7681 262.5 8.71285 261.65 8.42772C260.884 8.17076 260.153 9.21057 259.524 9.73852C259.019 10.1657 256.862 12.1315 254.009 12.8796C252.176 13.362 252.303 13.0586 252.238 12.6484C253.416 12.1599 254.611 11.6691 255.751 11.097C256.508 10.7167 257.486 10.1104 257.281 9.08523C257.221 8.79297 256.768 8.362 256.524 8.20403C256.222 8.0132 255.876 7.97748 255.534 8.03115C254.89 8.12859 254.252 8.45258 253.711 8.79719C252.767 9.40277 252.029 10.2999 251.411 11.2171C251.308 11.3724 251.137 11.7949 250.97 11.8877C250.551 12.1085 248.951 12.7784 248.908 12.4134C248.827 11.6775 250.116 10.0303 250.419 9.28338C250.97 7.93794 249.589 8.00629 248.986 8.71285C248.431 9.36014 244.328 12.7642 244.092 12.2258C243.963 11.9371 245.757 9.61091 246.034 9.2148C246.715 8.25929 245.217 7.5776 244.992 7.81724C244.178 8.68335 241.302 9.93912 241.355 9.6948C241.415 9.39877 241.371 8.36891 239.901 8.10173C239.505 8.03115 237.863 7.79261 236.626 9.59205C236.59 9.64995 233.507 12.2196 232.799 11.7002C232.539 11.5104 233.235 9.52238 234.52 7.24207C234.544 7.18949 243.703 6.54415 244.28 6.44299C245.257 6.27234 245.314 5.06183 244.487 5.12441C243.796 5.18077 243.823 5.18077 235.122 5.84142C236.217 4.19108 236.35 4.0018 236.697 3.25975C237.041 2.51857 235.742 2.05702 235.263 2.91245C234.945 3.48099 235.061 3.51825 233.509 5.90618C233.509 5.90618 230.468 6.27657 230.121 6.34601C229.025 6.5646 229.297 7.70185 230.319 7.54851C230.982 7.44953 232.495 7.24739 232.477 7.28356C232.469 7.29465 231.726 8.07024 230.4 8.9898C230.314 9.05147 230.907 8.19494 229.208 7.76198C228.291 7.52502 224.455 7.01393 223.979 6.94872C223.496 6.88391 223.242 6.4339 223.435 5.96789C223.672 5.39736 224.173 4.44117 227.465 3.30393C229.033 2.76512 229.839 2.56165 229.347 3.92168C229.192 4.35751 228.285 5.43308 229.277 5.90731C229.824 6.16695 230.299 5.06183 230.753 3.58419C231.256 1.95649 230.917 0.415592 226.343 2.0617C226.343 2.0617 221.266 3.98871 221.439 6.68045C221.495 7.50702 222.481 8.22335 223.738 8.43526C226.236 8.85023 230.427 8.83491 228.214 10.3816C226.478 11.599 226.095 11.6391 222.784 11.6811C220.455 11.7086 218.423 13.8941 222.415 14.3956C223.541 14.5352 225.474 14.0801 227.058 13.2304C230.213 11.5353 232.157 9.1085 232.24 9.01152C232.309 8.93408 229.769 12.8463 232.068 13.4428C233.314 13.7661 236.108 11.393 236.108 11.393C235.91 11.8646 235.707 12.3075 235.942 12.9359C236.191 13.597 236.648 13.8404 237.35 13.9163C239.078 14.1 240.625 12.2422 241.21 11.1496C241.321 10.9494 242.622 10.4284 244.091 9.75893C244.091 9.75893 244.353 9.49507 242.406 12.181C241.678 13.1909 242.648 14.6937 244.737 13.449C246.426 12.4424 247.555 11.6833 248.094 11.2876C248.521 10.9743 246.893 12.6013 247.596 13.597C248.208 14.4667 250.644 13.1818 250.932 13.0724C250.932 13.0724 251.113 14.5336 253.402 14.0621C258.725 12.9639 260.844 9.67617 260.894 10.1082C260.987 10.9743 259.776 13.2047 259.494 13.5375C259.209 13.8673 258.044 12.8791 257.52 13.9432C257.04 14.9271 258.733 15.2089 259.886 14.8998C262.718 14.1391 263.49 13.2488 263.77 13.0365C264.454 12.5123 264.743 10.8298 264.105 11.2561ZM253.729 10.1315C254.163 9.75893 254.695 9.31601 255.259 9.1649C255.476 9.10409 255.774 9.08741 255.923 9.28492L255.95 9.4334C255.984 9.86477 255.267 10.1534 254.968 10.313C254.38 10.6319 253.76 10.8942 253.139 11.1454C252.995 11.2055 252.845 11.2608 252.7 11.3187C252.958 10.8567 253.329 10.4748 253.729 10.1315ZM237.493 12.6142C236.02 12.0046 237.924 9.42562 239.074 9.32796C241.239 9.14204 238.91 13.028 237.493 12.6142Z" fill="white"/>
<path d="M265.605 7.97852V8.21484H265.253V9.32791H265.007V8.21484H264.654V7.97852H265.605Z" fill="black"/>
<path d="M266.571 7.97852H266.924V9.32791H266.698V8.19488L266.474 9.32791H266.233L266.011 8.19488C266.011 8.22083 266.012 8.2581 266.012 8.30496C266.016 8.35131 266.016 8.38726 266.016 8.4168V9.32791H265.786V7.97852H266.144L266.36 9.03832L266.571 7.97852Z" fill="black"/>
</svg>
