<svg width="240" height="32" viewBox="0 0 240 32" fill="none" xmlns="http://www.w3.org/2000/svg">
<path d="M59.3377 2.58545H52.4659V6.18134H51.1846C50.1582 6.18134 49.218 6.47934 48.3876 7.06528C48.3439 7.09432 48.3078 7.12708 48.2677 7.15709C48.2183 7.12097 48.1747 7.08227 48.1241 7.04712C47.3166 6.47934 46.3773 6.18134 45.351 6.18134C44.9013 6.18134 44.4795 6.21273 44.0706 6.25932V6.18134H34.9967V6.35789C34.5786 6.24334 34.1408 6.18134 33.6863 6.18134H27.8537C26.8276 6.18134 25.8873 6.47934 25.0555 7.06528C25.0144 7.09432 24.9771 7.12708 24.9359 7.15709C24.8865 7.12097 24.8442 7.08089 24.7921 7.04712C23.9883 6.47934 23.0465 6.18134 22.0203 6.18134H4.52189C3.49834 6.18134 2.55668 6.47934 1.72488 7.06528C0.6227 7.8191 0 8.93904 0 10.196V20.955C0 21.1233 0.040122 21.2805 0.061639 21.4432H0V29.4146H10.3557C11.3068 29.4146 12.1896 29.1397 13.0571 28.5757L13.0984 28.5461C14.6481 27.4875 14.8789 26.1387 14.8789 25.4281V24.9395H26.545V24.7495C26.9727 24.8756 27.409 24.9395 27.8537 24.9395H49.8744V24.7507C50.3022 24.8756 50.7396 24.9395 51.1846 24.9395H61.5403V2.58545H59.3377Z" fill="black"/>
<path d="M120.6 7.08898V6.18134H103.62C102.594 6.18134 101.652 6.47935 100.821 7.06431C100.778 7.09432 100.744 7.12708 100.701 7.15709C100.654 7.12097 100.612 7.08227 100.561 7.04809C99.7522 6.47934 98.8131 6.18134 97.7882 6.18134H91.9544C90.9306 6.18134 89.9901 6.47935 89.1573 7.06431C89.115 7.09432 89.0776 7.12708 89.0365 7.15709C88.9893 7.12097 88.9447 7.08227 88.8937 7.04712C88.0889 6.47935 87.1471 6.18134 86.1231 6.18134H84.8408V2.58545H75.7679V7.08898H73.176V6.18134H64.1004V7.08898H62.9402V15.0562H64.1004V20.955C64.1004 21.6652 64.3327 23.014 65.8798 24.0737L65.9258 24.1041C66.794 24.6666 67.6773 24.9395 68.6249 24.9395H74.4573C74.902 24.9395 75.3385 24.8756 75.7679 24.7507V24.9395H90.6456V24.7507C91.0733 24.8756 91.5094 24.9395 91.9544 24.9395H97.7882C98.2315 24.9395 98.6703 24.8756 99.0959 24.7507V24.9395H108.172V18.6523H111.525V20.955C111.525 21.664 111.756 23.0124 113.305 24.0737L113.349 24.101C114.201 24.6579 115.11 24.9395 116.047 24.9395H121.881C122.85 24.9395 123.784 24.6445 124.659 24.0619L124.666 24.0583C125.788 23.3051 126.404 22.2024 126.404 20.955V7.08898H120.6Z" fill="black"/>
<path d="M177.09 7.04693C176.283 6.47916 175.343 6.18115 174.319 6.18115H168.484C167.462 6.18115 166.52 6.47916 165.689 7.06412C165.679 7.07083 165.668 7.0807 165.658 7.08879H161.371V6.18115H139.866V6.3577C139.449 6.24316 139.011 6.18115 138.558 6.18115H132.726C131.699 6.18115 130.758 6.47916 129.929 7.06509C128.825 7.81891 128.203 8.93748 128.203 10.1959V15.056H128.244C128.217 15.2379 128.203 15.4068 128.203 15.5458V20.9548C128.203 22.2045 128.82 23.3073 129.944 24.0589C130.823 24.6443 131.759 24.9394 132.726 24.9394H143.082V24.7506C143.509 24.8754 143.946 24.9394 144.391 24.9394H150.223C151.191 24.9394 152.125 24.6443 152.999 24.0617L153.003 24.0589C153.195 23.931 153.367 23.7888 153.53 23.6395C153.691 23.7888 153.872 23.9334 154.078 24.0735L154.119 24.1008C154.974 24.6577 155.881 24.9394 156.819 24.9394H162.653C163.621 24.9394 164.556 24.6443 165.432 24.0617L165.433 24.0589C165.482 24.0273 165.523 23.9914 165.568 23.9578C165.613 23.9914 165.654 24.0265 165.7 24.0581C166.589 24.6443 167.521 24.9394 168.484 24.9394H174.319C175.284 24.9394 176.22 24.6443 177.095 24.0629C178.224 23.3073 178.841 22.2045 178.841 20.9548V10.1959C178.841 8.93748 178.22 7.81891 177.09 7.04693Z" fill="black"/>
<path d="M8.08979 19.027H6.95816V11.8371H8.08979V19.027ZM12.7627 25.2862V8.24023H4.60945C4.07051 8.24023 3.56037 8.38398 3.08048 8.72251C2.54135 9.08983 2.28638 9.54444 2.28638 10.0547V20.8123C2.28638 21.3226 2.54135 21.7472 3.05145 22.0865C3.56037 22.4266 4.07051 22.5968 4.60945 22.5968H8.08979V23.5029H2.28638V27.0691H10.4397C10.9786 27.0691 11.4583 26.8997 11.942 26.5892C12.4787 26.2203 12.7627 25.7949 12.7627 25.2862Z" fill="white"/>
<path d="M19.7557 13.6216H18.6229V11.8371H19.7557V13.6216ZM24.4275 22.5968V16.3104C24.4275 16.056 24.3139 15.8285 24.0575 15.6596C23.8048 15.5192 23.5486 15.4332 23.267 15.4045C23.5486 15.4045 23.8048 15.3184 24.0575 15.1493C24.3139 15.0095 24.4275 14.782 24.4275 14.5255V10.0547C24.4275 9.54444 24.1725 9.08983 23.6342 8.72251C23.1533 8.38398 22.6445 8.24023 22.1054 8.24023H13.9509V22.5968H18.6229V17.2151H19.7557V22.5968H24.4275Z" fill="white"/>
<path d="M31.4218 19.027H30.2902V17.2151H31.4218V19.027ZM36.0924 22.5968V10.0547C36.0924 9.54444 35.8386 9.08983 35.3005 8.72251C34.8184 8.38398 34.3095 8.24023 33.7717 8.24023H27.9391C27.4013 8.24023 26.8899 8.38398 26.409 8.72251C25.8724 9.08983 25.6184 9.54444 25.6184 10.0547V12.7149H30.2902V11.8371H31.4218V13.6216H27.9391C27.4013 13.6216 26.9189 13.791 26.4366 14.1289C25.8998 14.4982 25.6184 14.9218 25.6184 15.4045V20.8123C25.6184 21.3226 25.8724 21.7472 26.3811 22.0865C26.8899 22.4266 27.4013 22.5968 27.9391 22.5968H36.0924Z" fill="white"/>
<path d="M43.0884 22.5968V11.8371H41.9532V22.5968H37.2812V8.24023H41.9532V9.14787C42.7185 8.55304 43.8801 8.24023 45.4369 8.24023C45.9749 8.24023 46.4848 8.38398 46.9661 8.72251C47.5038 9.08983 47.759 9.54444 47.759 10.0547V22.5968H43.0884Z" fill="white"/>
<path d="M54.7504 19.0272H53.619V11.8372H54.7504V19.0272ZM59.425 22.597V4.64551H54.7504V8.24039H51.2691C50.7325 8.24039 50.2211 8.38413 49.7402 8.72266C49.2012 9.08999 48.9473 9.5446 48.9473 10.0549V20.8125C48.9473 21.3228 49.2012 21.7474 49.7123 22.0866C50.2211 22.4267 50.7325 22.597 51.2691 22.597H59.425Z" fill="white"/>
<path d="M76.0992 22.0865C75.5891 22.4266 75.079 22.5968 74.541 22.5968H68.7098C68.1706 22.5968 67.6884 22.4266 67.2085 22.1157C66.6693 21.7472 66.3879 21.3226 66.3879 20.8123V12.7149H65.2251V9.14787H66.3879V8.24023H71.0609V9.14787H76.8629V12.7149H71.0609V19.027H72.2213V13.6216H76.8629V20.8123C76.8629 21.3226 76.6077 21.7472 76.0992 22.0865Z" fill="white"/>
<path d="M83.8565 22.597V11.8372H82.7226V22.597H78.0508V4.64551H82.7226V8.24039H86.2065C86.7446 8.24039 87.2531 8.38413 87.7344 8.72266C88.2712 9.08999 88.5299 9.5446 88.5299 10.0549V22.597H83.8565Z" fill="white"/>
<path d="M95.5214 13.6216H94.39V11.8371H95.5214V13.6216ZM100.193 20.8123V18.1233H95.5214V19.027H94.39V17.2151H100.193V10.0547C100.193 9.54444 99.9384 9.08983 99.4014 8.72251C98.919 8.38398 98.4104 8.24023 97.8725 8.24023H92.0399C91.5021 8.24023 90.9932 8.38398 90.5085 8.72251C89.9718 9.08983 89.7168 9.54444 89.7168 10.0547V20.8123C89.7168 21.3226 89.9718 21.7472 90.4807 22.0865C90.9932 22.4266 91.5021 22.5968 92.0399 22.5968H97.8725C98.4104 22.5968 98.919 22.4266 99.4293 22.0865C99.9384 21.7472 100.193 21.3226 100.193 20.8123Z" fill="white"/>
<path d="M106.053 16.3104V22.5968H101.383V10.0547C101.383 9.54444 101.635 9.08983 102.176 8.72251C102.656 8.38398 103.164 8.24023 103.705 8.24023H111.859V11.8371H106.053V12.7149H111.859V16.3104H106.053Z" fill="white"/>
<path d="M123.524 22.0865C123.014 22.4266 122.503 22.5968 121.966 22.5968H116.131C115.597 22.5968 115.114 22.4266 114.632 22.1157C114.097 21.7472 113.81 21.3226 113.81 20.8123V12.7149H112.652V9.14787H113.81V8.24023H118.482V9.14787H124.287V12.7149H118.482V19.027H119.643V13.6216H124.287V20.8123C124.287 21.3226 124.031 21.7472 123.524 22.0865Z" fill="white"/>
<path d="M136.293 19.027H135.161V17.2151H136.293V19.027ZM140.964 22.5968V10.0547C140.964 9.54444 140.707 9.08983 140.171 8.72251C139.69 8.38398 139.181 8.24023 138.641 8.24023H132.811C132.271 8.24023 131.76 8.38398 131.28 8.72251C130.744 9.08983 130.488 9.54444 130.488 10.0547V12.7149H135.161V11.8371H136.293V13.6216H132.811C132.271 13.6216 131.792 13.791 131.31 14.1289C130.771 14.4982 130.488 14.9218 130.488 15.4045V20.8123C130.488 21.3226 130.744 21.7472 131.252 22.0865C131.76 22.4266 132.271 22.5968 132.811 22.5968H140.964Z" fill="white"/>
<path d="M151.867 22.0865C151.355 22.4266 150.845 22.5968 150.308 22.5968H144.477C143.936 22.5968 143.428 22.4266 142.918 22.0865C142.409 21.7472 142.154 21.3226 142.154 20.8123V8.24023H146.825V19.027H147.957V8.24023H152.631V20.8123C152.631 21.3226 152.375 21.7472 151.867 22.0865Z" fill="white"/>
<path d="M164.295 22.0865C163.786 22.4266 163.274 22.5968 162.738 22.5968H156.907C156.366 22.5968 155.886 22.4266 155.404 22.1157C154.868 21.7472 154.584 21.3226 154.584 20.8123V12.7149H153.422V9.14787H154.584V8.24023H159.255V9.14787H165.06V12.7149H159.255V19.027H160.417V13.6216H165.06V20.8123C165.06 21.3226 164.804 21.7472 164.295 22.0865Z" fill="white"/>
<path d="M172.053 19.027H170.922V11.8371H172.053V19.027ZM176.725 20.8123V10.0547C176.725 9.54444 176.469 9.08983 175.931 8.72251C175.452 8.38398 174.941 8.24023 174.404 8.24023H168.571C168.033 8.24023 167.521 8.38398 167.042 8.72251C166.503 9.08983 166.247 9.54444 166.247 10.0547V20.8123C166.247 21.3226 166.503 21.7472 167.014 22.0865C167.521 22.4266 168.033 22.5968 168.571 22.5968H174.404C174.941 22.5968 175.452 22.4266 175.96 22.0865C176.469 21.7472 176.725 21.3226 176.725 20.8123Z" fill="white"/>
<path d="M216.726 13.7678C215.903 15.2333 214.88 16.6327 213.414 16.1758C212.802 15.9861 212.452 15.5837 212.256 15.0734C212.313 15.0977 212.372 15.1196 212.435 15.1399C214.048 15.6418 215.127 13.7678 215.992 12.1381C216.105 12.9135 216.344 13.4293 216.726 13.7678ZM221.152 12.7403C220.867 12.633 220.652 12.477 220.489 12.2908C219.825 13.3303 218.742 14.665 217.312 14.1175C217.262 14.0982 217.213 14.0776 217.166 14.0543C217.378 14.5259 217.721 14.9344 218.285 15.151C219.733 15.7069 220.824 14.4304 221.507 13.3823C221.667 13.543 221.871 13.6793 222.128 13.7779C222.885 14.0615 223.518 13.8262 224.084 13.328C224.168 12.3512 224.242 11.4522 224.301 10.6854C223.425 12.0538 222.481 13.2395 221.152 12.7403ZM211.163 13.4779C210.863 13.7388 209.949 14.5327 209.949 14.5327C209.267 15.1243 207.307 16.8152 205.72 15.9473C205.84 16.2062 206.006 16.4416 206.226 16.6469C207.924 18.2174 210.246 16.2123 211.008 15.5531C211.008 15.5531 211.468 15.1543 211.843 14.8291C211.444 14.508 211.246 14.0267 211.163 13.4779ZM227.443 9.32707C227.392 10.2361 227.26 11.9244 227.078 13.9858C227.49 13.9349 227.881 13.89 228.263 13.8515C228.393 12.2931 228.49 11.031 228.532 10.289C228.589 9.24707 228.623 8.43266 228.6 7.83289C228.585 7.35931 228.534 5.91666 227.251 5.5116C227.244 5.50921 227.238 5.50921 227.23 5.50586C227.48 6.01519 227.504 6.58494 227.514 6.87761C227.535 7.4764 227.501 8.28984 227.443 9.32707ZM212.137 8.24422C212.137 8.53118 212.052 8.80965 211.904 9.0429C212.191 8.91906 212.518 8.84342 212.867 8.88965C212.703 8.74923 212.565 8.57365 212.469 8.36471C212.379 8.16839 212.334 7.96341 212.331 7.76021C212.229 7.71062 212.125 7.67115 212.016 7.64409C212.076 7.78686 212.114 7.93675 212.131 8.0991C212.135 8.14707 212.137 8.19565 212.137 8.24422ZM212.006 20.0208C200.695 22.7336 189.71 26.1465 189.601 26.1809C189.265 26.2871 188.921 26.2682 188.617 26.1529C188.618 26.1568 188.618 26.1616 188.619 26.1651C188.884 27.0111 189.783 27.4843 190.63 27.2189C190.737 27.1865 201.612 23.8067 212.853 21.1015C217.144 20.0706 220.666 19.3344 223.562 18.8181C223.604 18.4022 223.645 17.9891 223.686 17.5759C220.363 18.1352 216.456 18.954 212.006 20.0208ZM220.23 1.82491C220.066 2.63738 219.914 3.44507 219.776 4.2285C220.244 4.17046 220.666 4.15663 221.046 4.18608C221.132 3.72532 221.222 3.26319 221.317 2.79968C221.339 2.69068 221.348 2.58306 221.348 2.47701C221.348 1.75538 220.861 1.10465 220.137 0.922363C220.217 1.10999 220.26 1.31024 220.26 1.52076C220.26 1.62207 220.249 1.72399 220.23 1.82491ZM223.731 5.93146C223.768 5.87674 223.814 5.81397 223.863 5.7478C223.821 5.71108 223.782 5.67629 223.738 5.64252C223.58 5.52406 223.408 5.42274 223.222 5.33938C223.383 5.5916 223.496 5.87674 223.556 6.18425C223.614 6.09951 223.676 6.00532 223.731 5.93146ZM238.943 15.9439C238.745 15.7579 238.508 15.5787 238.217 15.4117C238.804 16.1562 238.995 17.102 238.754 18.123C238.561 18.9406 237.742 19.4458 236.922 19.2538C236.861 19.2376 236.801 19.2183 236.743 19.1977C236.904 19.725 237.331 20.1552 237.908 20.2914C238.772 20.496 239.635 19.962 239.839 19.1002C240.129 17.873 239.811 16.752 238.943 15.9439ZM235.792 17.4223C235.809 17.3484 235.813 17.3034 235.813 17.2793C235.689 17.1561 234.521 16.2147 228.098 16.9412C227.678 16.9882 227.24 17.0435 226.791 17.1028C226.672 18.3442 226.542 19.6373 226.407 20.9214C226.142 23.4354 225.89 25.5474 225.68 27.0305C225.555 27.9046 225.446 28.5622 225.346 29.0374C225.224 29.6164 224.941 30.97 223.594 30.9578C223.508 30.9578 223.291 30.9443 223.043 30.8483C223.428 31.9274 224.388 31.9973 224.598 31.9997C226.014 32.0119 226.319 30.5588 226.433 30.0129C226.534 29.5366 226.642 28.877 226.767 27.9978C226.976 26.5155 227.228 24.4039 227.494 21.8879C227.625 20.6279 227.754 19.36 227.871 18.14C232.406 17.5416 234.657 17.6747 235.756 17.901C235.752 17.8587 235.751 17.8165 235.751 17.771C235.751 17.6565 235.766 17.5392 235.792 17.4223ZM213.684 9.23999C213.779 9.31837 213.865 9.40173 213.935 9.4912C213.977 9.40545 214.019 9.32076 214.06 9.23761C213.935 9.25459 213.807 9.25459 213.684 9.23999ZM220.483 7.20429C220.172 7.22285 219.759 7.29371 219.276 7.40748C219.173 8.17846 219.092 8.88965 219.037 9.50463C219.381 9.38689 219.764 9.38454 220.115 9.52889C220.192 8.95242 220.304 8.27977 220.428 7.53307C220.428 7.53307 220.456 7.36125 220.483 7.20429ZM210.762 9.75976L210.812 9.75482C210.764 9.76214 209.605 9.96 208.302 11.7297C208.209 11.8553 208.125 12.0005 208.048 12.1529C208.201 12.02 209.262 11.0991 209.262 11.0991C209.959 10.4917 210.456 10.0595 210.846 9.74022C210.818 9.74536 210.792 9.75482 210.762 9.75976ZM182.637 17.2607C182.837 16.8986 183.053 16.5036 183.28 16.089C183.097 15.5774 182.671 15.2043 182.164 15.0734C182.206 15.1676 182.237 15.2681 182.258 15.3718C182.258 15.3718 182.455 16.3594 182.637 17.2607ZM189.564 21.9981C190.182 21.7449 190.557 21.1453 190.557 20.5154C190.557 20.3791 190.532 20.2409 190.497 20.1054C190.497 20.0935 190.496 20.0813 190.496 20.0659C190.496 19.945 190.517 19.7633 190.556 19.539C190.028 19.1811 189.71 18.6392 189.567 18.0811C189.467 18.5405 189.407 18.9015 189.407 19.1072C189.407 19.1262 189.409 19.1424 189.41 19.1594C189.446 19.2909 189.47 19.426 189.47 19.5572C189.47 20.1552 189.118 20.7211 188.529 20.9641C188.157 21.1201 187.759 21.1126 187.411 20.9806C187.43 21.0387 187.45 21.0873 187.468 21.1295C187.806 21.9487 188.745 22.3386 189.564 21.9981ZM194.666 14.3747C194.594 14.4264 194.527 14.4726 194.476 14.5056C194.248 14.6454 193.996 14.7112 193.744 14.7221C193.387 15.2333 192.979 15.922 192.73 16.6059C193.131 16.3957 193.708 16.0306 194.506 15.4056C194.53 15.0686 194.585 14.723 194.666 14.3747ZM187.122 15.3971C185.737 17.9444 184.442 20.3107 184.049 20.9696C183.787 21.4135 182.986 22.7612 181.622 22.4413C181.515 22.4156 181.411 22.3793 181.314 22.3342C181.552 22.9211 182.009 23.339 182.603 23.4804C184.028 23.817 184.855 22.4286 185.127 21.9736C185.337 21.6193 185.807 20.774 186.412 19.6733C186.323 19.0899 186.358 17.9164 187.122 15.3971ZM191.194 7.86921C191.085 8.07184 189.914 10.2456 188.545 12.7744C188.876 12.6393 189.258 12.6168 189.623 12.7454C189.781 12.8011 189.926 12.883 190.051 12.9824C191.229 10.8039 192.175 9.04998 192.272 8.86733C192.693 8.08903 192.4 7.11482 191.621 6.69435C191.502 6.63154 191.378 6.58397 191.254 6.55356C191.427 6.96392 191.421 7.44599 191.194 7.86921ZM202.898 14.7221C201.384 17.2446 199.534 18.1463 199.159 18.3094C197.383 19.1977 196.258 18.8387 195.623 18.3707C193.522 19.8637 192.018 20.2685 190.852 19.7108C190.8 19.6875 190.754 19.6579 190.706 19.6294C190.934 20.0888 191.297 20.4936 191.82 20.744C193.024 21.3191 194.521 20.9384 196.636 19.4347C197.299 19.8964 198.438 20.225 200.199 19.3419C200.591 19.1712 202.454 18.2561 203.972 15.7225C204.429 14.9624 204.183 13.9757 203.424 13.5211C203.284 13.4366 203.141 13.3813 202.992 13.3475C203.176 13.7779 203.157 14.2876 202.898 14.7221ZM190.794 13.6821C190.747 13.6617 190.702 13.6402 190.653 13.623C190.608 13.6084 190.563 13.5936 190.519 13.5841C190.57 13.705 190.607 13.8306 190.627 13.9615C190.68 13.8667 190.736 13.7725 190.794 13.6821ZM201.427 11.4736C201.427 11.7955 201.37 12.1237 201.262 12.4574C201.629 12.3779 202.026 12.4237 202.377 12.633C202.419 12.6597 202.459 12.6873 202.499 12.7164C202.508 12.6222 202.514 12.5256 202.514 12.4312V12.3923C202.502 11.4736 202.066 10.9153 201.849 10.6901C201.832 10.6726 201.812 10.6554 201.794 10.6398C201.789 10.6335 201.782 10.625 201.774 10.6178C201.595 10.4535 201.36 10.2938 201.08 10.1757C201.255 10.4646 201.42 10.8839 201.427 11.4374V11.4736ZM195.596 11.94C195.539 11.9157 195.48 11.8944 195.421 11.8749C195.457 11.9464 195.491 12.02 195.517 12.0939C195.543 12.0419 195.57 11.991 195.596 11.94Z" fill="black"/>
<path d="M238.215 15.4119C238.114 15.2845 238.005 15.1631 237.881 15.0483C236.802 14.0412 234.614 13.1902 228.261 13.8518C227.879 13.8903 227.488 13.9351 227.076 13.986C227.259 11.9247 227.391 10.2364 227.441 9.32732C227.499 8.29009 227.533 7.47665 227.513 6.87786C227.502 6.58519 227.479 6.01544 227.228 5.5061C227.045 5.13506 226.739 4.79891 226.218 4.63479C225.082 4.27676 224.279 5.18679 223.861 5.74805C223.812 5.81422 223.767 5.87699 223.729 5.93171C223.675 6.00557 223.612 6.09976 223.554 6.1845C223.495 5.87699 223.381 5.59185 223.221 5.33963C223.078 5.11787 222.899 4.91839 222.68 4.75269C222.252 4.42665 221.715 4.23826 221.045 4.18633C220.664 4.15688 220.242 4.17071 219.774 4.22875C219.912 3.44532 220.065 2.63763 220.228 1.82516C220.248 1.72424 220.259 1.62232 220.259 1.521C220.259 1.31049 220.216 1.11024 220.136 0.922613C219.951 0.495669 219.576 0.157342 219.09 0.0412232C218.294 -0.147374 217.488 0.328184 217.269 1.1197C217.264 1.14599 216.791 2.83451 215.814 5.28968C214.388 5.80848 213.27 6.32193 213.213 6.34782C212.646 6.60711 212.316 7.17448 212.329 7.76046C212.332 7.96366 212.377 8.16864 212.467 8.36496C212.563 8.5739 212.702 8.74947 212.866 8.8899C212.517 8.84367 212.189 8.9193 211.903 9.04315C212.05 8.8099 212.135 8.53143 212.135 8.24447C212.135 8.1959 212.134 8.14732 212.129 8.09935C212.113 7.937 212.074 7.78711 212.014 7.64434C211.767 7.05836 211.173 6.67049 210.502 6.72796C210.253 6.74754 207.994 7.01986 205.849 9.92551C204.897 11.2179 203.752 14.2177 205.277 15.6272C205.42 15.7599 205.566 15.8642 205.718 15.9475C207.306 16.8155 209.265 15.1246 209.948 14.5329C209.948 14.5329 210.862 13.739 211.162 13.4781C211.244 14.0269 211.442 14.5082 211.841 14.8293C211.96 14.9261 212.097 15.0085 212.255 15.0736C212.311 15.0979 212.371 15.1199 212.433 15.1402C214.046 15.642 215.125 13.768 215.99 12.1384C216.103 12.9137 216.343 13.4296 216.724 13.768C216.854 13.8842 217.001 13.9784 217.164 14.0546C217.211 14.0779 217.26 14.0984 217.311 14.1178C218.74 14.6652 219.823 13.3306 220.487 12.291C220.651 12.4773 220.865 12.6333 221.151 12.7405C222.479 13.2397 223.424 12.054 224.299 10.6856C224.241 11.4525 224.167 12.3514 224.082 13.3282C224.049 13.6861 224.018 14.0546 223.983 14.432C220.516 14.9913 216.183 15.879 210.737 17.195C199.528 19.9074 188.799 23.2441 188.694 23.2777C187.89 23.5257 187.444 24.3801 187.693 25.1827C187.84 25.6495 188.191 25.9951 188.615 26.1531C188.919 26.2684 189.263 26.2874 189.6 26.1811C189.708 26.1468 200.694 22.7338 212.004 20.0211C216.455 18.9543 220.361 18.1355 223.684 17.5762C223.643 17.9893 223.603 18.4025 223.56 18.8184C223.237 21.9881 222.884 25.1127 222.606 27.0165C222.189 27.2898 221.913 27.7571 221.913 28.288V28.3488C221.933 28.8058 221.958 29.138 221.998 29.3931C222.138 30.3118 222.631 30.6926 223.041 30.8486C223.289 30.9445 223.507 30.958 223.592 30.958C224.94 30.9702 225.222 29.6166 225.344 29.0376C225.444 28.5625 225.553 27.9048 225.678 27.0307C225.888 25.5476 226.14 23.4357 226.405 20.9216C226.54 19.6376 226.67 18.3444 226.79 17.103C227.238 17.0438 227.677 16.9885 228.097 16.9415C234.52 16.2149 235.688 17.1563 235.811 17.2796C235.811 17.3037 235.807 17.3487 235.79 17.4225C235.764 17.5395 235.75 17.6568 235.75 17.7713C235.75 17.8167 235.751 17.859 235.754 17.9013C235.804 18.4799 236.184 18.989 236.742 19.198C236.8 19.2185 236.859 19.2379 236.92 19.2541C237.74 19.446 238.56 18.9408 238.752 18.1233C238.994 17.1022 238.802 16.1565 238.215 15.4119ZM208.046 12.1532C208.124 12.0007 208.207 11.8556 208.3 11.7299C209.603 9.96025 210.762 9.76239 210.811 9.75507L210.76 9.76001C210.79 9.75507 210.817 9.74561 210.845 9.74047C210.454 10.0598 209.957 10.4919 209.26 11.0994C209.26 11.0994 208.199 12.0203 208.046 12.1532ZM213.933 9.49145C213.863 9.40198 213.778 9.31862 213.682 9.24024C213.805 9.25484 213.933 9.25484 214.059 9.23785C214.018 9.32101 213.975 9.4057 213.933 9.49145ZM219.036 9.50488C219.09 8.8899 219.171 8.17871 219.275 7.40773C219.757 7.29396 220.171 7.2231 220.482 7.20454C220.454 7.3615 220.427 7.53332 220.427 7.53332C220.302 8.28002 220.19 8.95267 220.114 9.52914C219.762 9.38479 219.379 9.38714 219.036 9.50488Z" fill="#F07DB0"/>
<path d="M200.714 9.72363L200.717 9.72699L200.718 9.72836L200.714 9.72363Z" fill="#F07DB0"/>
<path d="M188.527 20.9642C189.116 20.7213 189.468 20.1553 189.468 19.5573C189.468 19.4262 189.444 19.2911 189.408 19.1596C189.407 19.1426 189.405 19.1264 189.405 19.1074C189.405 18.9017 189.465 18.5406 189.565 18.0813C189.708 18.6394 190.026 19.1813 190.554 19.5391C190.602 19.5715 190.652 19.6019 190.704 19.6296C190.752 19.658 190.798 19.6876 190.851 19.7109C192.016 20.2686 193.52 19.8638 195.621 18.3708C196.256 18.8388 197.381 19.1979 199.157 18.3096C199.532 18.1465 201.382 17.2447 202.896 14.7222C203.156 14.2877 203.174 13.778 202.99 13.3477C202.889 13.103 202.723 12.8832 202.497 12.7165C202.457 12.6875 202.417 12.6598 202.375 12.6332C202.024 12.4238 201.627 12.378 201.26 12.4576C201.368 12.1238 201.426 11.7956 201.426 11.4737V11.4376C201.419 10.884 201.253 10.4648 201.078 10.1758C200.971 10.001 200.865 9.87368 200.784 9.7921C200.772 9.77791 200.755 9.76504 200.74 9.74984C200.734 9.74037 200.725 9.73463 200.717 9.72694C200.321 9.35764 199.629 9.02012 198.79 9.11432C197.691 9.24192 196.725 10.023 195.842 11.5014C195.756 11.6455 195.674 11.7927 195.595 11.9402C195.568 11.9911 195.541 12.0421 195.515 12.094C195.489 12.0202 195.456 11.9465 195.42 11.875C195.365 11.7713 195.302 11.6708 195.227 11.5752C194.92 11.1925 194.492 10.9626 194.017 10.9265C193.223 10.8668 192.696 11.3552 192.381 11.6475L192.304 11.7188C191.981 12.0144 191.366 12.7384 190.792 13.6822C190.734 13.7727 190.678 13.8669 190.625 13.9617C190.605 13.8308 190.569 13.7051 190.517 13.5843C190.417 13.3477 190.256 13.1421 190.049 12.9825C189.924 12.8832 189.779 12.8012 189.621 12.7456C189.256 12.617 188.874 12.6395 188.543 12.7746C189.912 10.2457 191.083 8.07199 191.192 7.86936C191.419 7.44614 191.426 6.96407 191.253 6.55371C191.122 6.2458 190.89 5.97958 190.574 5.80838C189.835 5.41084 188.913 5.68595 188.512 6.42808C188.469 6.50809 185.392 12.2196 183.278 16.0892C183.051 16.5037 182.835 16.8987 182.635 17.2609C182.453 16.3596 182.256 15.3719 182.256 15.3719C182.235 15.2683 182.204 15.1677 182.163 15.0735C181.886 14.4242 181.183 14.0363 180.464 14.1815C179.64 14.3458 179.106 15.1482 179.271 15.9721L180.227 20.7245C180.319 21.484 180.718 22.0701 181.312 22.3344C181.409 22.3794 181.513 22.4157 181.62 22.4414C182.984 22.7613 183.785 21.4137 184.047 20.9697C184.44 20.3109 185.736 17.9446 187.12 15.3972C186.356 17.9166 186.321 19.09 186.411 19.6734C186.445 19.9104 186.502 20.0486 186.541 20.1411C186.708 20.5432 187.03 20.837 187.409 20.9808C187.757 21.1127 188.156 21.1202 188.527 20.9642ZM194.474 14.5057C194.525 14.4728 194.592 14.4266 194.664 14.3748C194.583 14.7232 194.529 15.0688 194.504 15.4057C193.707 16.0307 193.129 16.3959 192.729 16.606C192.977 15.9222 193.385 15.2335 193.743 14.7222C193.994 14.7113 194.246 14.6456 194.474 14.5057Z" fill="#F07DB0"/>
<path d="M200.787 9.79448C200.782 9.78873 200.779 9.78635 200.775 9.78125C200.778 9.7836 200.781 9.78873 200.784 9.79209C200.785 9.79367 200.786 9.79448 200.787 9.79448Z" fill="#F07DB0"/>
<path d="M200.776 9.78146C200.752 9.7601 200.734 9.74332 200.719 9.72852C200.726 9.73584 200.734 9.74332 200.74 9.75003C200.751 9.7601 200.762 9.77098 200.776 9.78146Z" fill="#F07DB0"/>
<path d="M237.274 15.6973C235.94 14.4528 232.732 14.1942 227.177 14.8805C226.824 14.9239 226.461 14.9709 226.088 15.0229C226.323 12.4727 226.494 10.3379 226.552 9.2756C226.698 6.64486 226.712 5.72395 225.952 5.48597C225.146 5.23084 224.618 6.08813 222.863 8.92821C222.611 9.33465 222.408 9.6439 222.24 9.89098C222.317 9.28903 222.441 8.54487 222.552 7.88625L222.689 7.05858C222.71 6.92668 222.72 6.80106 222.72 6.68494C222.72 6.04707 222.42 5.67202 222.143 5.46171C221.709 5.13268 220.891 4.80681 218.682 5.33374C218.871 4.17327 219.096 2.92812 219.357 1.64543C219.365 1.603 219.369 1.55972 219.369 1.51887C219.369 1.23329 219.172 0.974757 218.884 0.905636C218.551 0.827657 218.218 1.02572 218.13 1.35179L217.903 2.18618C217.452 3.84663 217.209 4.74105 216.711 5.91712C215.05 6.48546 213.65 7.12713 213.588 7.15613C213.27 7.30129 213.131 7.67634 213.277 7.9923C213.423 8.30988 213.797 8.44732 214.113 8.30216C214.71 8.02668 215.337 7.76581 215.962 7.52544C215.536 8.38313 214.98 9.44782 214.215 10.8938C213.801 11.6773 213.494 12.1798 213.272 12.5079C213.289 12.1923 213.326 11.7886 213.384 11.2955L213.394 11.1972C213.412 11.05 213.43 10.8829 213.43 10.7172C213.43 10.3766 213.351 10.0357 213.001 9.85207C212.406 9.53785 212.016 9.8801 209.846 11.7691L208.542 12.9028C207.351 13.9329 206.858 14.0197 206.736 14.0248C206.706 13.9677 206.689 13.8749 206.689 13.7493C206.689 13.1728 206.999 11.9942 207.583 11.2009C209.159 9.06387 210.632 8.87766 210.694 8.87054C211.016 8.83539 211.259 8.56206 211.259 8.24468C211.259 8.2222 211.258 8.20323 211.255 8.18369C211.222 7.83966 210.922 7.58647 210.578 7.61551C210.497 7.62299 208.513 7.81912 206.568 10.4516C205.782 11.5222 204.85 14.0197 205.882 14.9723C206.942 15.9529 208.767 14.3751 209.366 13.8581L210.675 12.7222C211.23 12.2379 211.718 11.8135 212.09 11.5044C212.039 11.9772 212.003 12.407 212.003 12.7796C212.003 13.5788 212.167 14.1224 212.699 14.288C213.434 14.5169 214.099 13.8097 215.329 11.4841C216.041 10.138 216.578 9.11087 216.998 8.27077C216.867 9.417 216.81 10.298 216.81 10.9728C216.81 12.7625 217.204 13.1195 217.631 13.2832C218.528 13.6282 219.335 12.5089 220.076 11.2495C220.254 10.9495 220.153 10.5626 219.854 10.3861C219.551 10.2109 219.166 10.3089 218.988 10.6102C218.573 11.317 218.293 11.6845 218.115 11.8805C218.08 11.6792 218.062 11.416 218.062 11.08C218.062 10.089 218.207 8.54487 218.474 6.69481C219.874 6.31507 221.002 6.17699 221.378 6.46496C221.409 6.48922 221.493 6.55204 221.443 6.85615L221.308 7.67832C220.831 10.5336 220.653 11.6022 221.466 11.9067C222.119 12.1534 222.671 11.6326 223.936 9.59079C224.409 8.82435 224.955 7.94332 225.367 7.34513C225.362 7.97374 225.317 8.76688 225.294 9.20409C225.22 10.5154 225.039 12.7263 224.809 15.2089C220.998 15.7968 216.351 16.7525 210.948 18.0607C199.766 20.7651 189.064 24.0915 188.96 24.1251C188.627 24.2298 188.441 24.5833 188.545 24.9159C188.647 25.248 189.003 25.4333 189.334 25.3306C189.442 25.2974 200.108 21.9796 211.249 19.2855C216.876 17.922 221.264 17.0428 224.686 16.5021C224.286 20.6991 223.775 25.34 223.411 27.659C223.071 27.6708 222.806 27.9513 222.806 28.2882V28.3123C222.84 29.2491 222.872 30.06 223.602 30.0667C224.276 30.0711 224.433 29.4731 224.797 26.9038C225.006 25.4333 225.254 23.3308 225.519 20.8266C225.681 19.2985 225.834 17.7589 225.97 16.3093C233.314 15.2613 235.682 15.9382 236.414 16.6202C236.598 16.7916 236.791 17.0602 236.659 17.6246C236.578 17.9643 236.789 18.3024 237.127 18.3837C237.467 18.4635 237.805 18.2534 237.887 17.9169C238.15 16.8003 237.697 16.0929 237.274 15.6973Z" fill="white"/>
<path d="M190.153 6.59323C189.845 6.42849 189.463 6.54364 189.299 6.84974C189.239 6.96351 183.252 18.0682 182.238 19.8026C182.063 18.9289 181.383 15.5455 181.383 15.5455C181.314 15.2049 180.982 14.9845 180.639 15.052C180.341 15.1124 180.133 15.3761 180.133 15.6703C180.133 15.7126 180.137 15.7535 180.146 15.794C180.146 15.794 181.106 20.5704 181.11 20.5969C181.159 21.0092 181.366 21.4638 181.825 21.5721C182.553 21.7455 183.046 20.9137 183.282 20.5135C184.197 18.9775 190.156 7.91778 190.408 7.44894C190.574 7.14204 190.459 6.75869 190.153 6.59323Z" fill="white"/>
<path d="M188.53 19.317L188.532 19.3225C188.398 18.8849 188.949 16.5802 189.716 14.3897C189.83 14.0608 189.657 13.702 189.328 13.5873C188.999 13.4725 188.639 13.6449 188.525 13.9738C188.032 15.3807 186.936 18.7644 187.365 19.7993C187.498 20.1164 187.856 20.2602 188.175 20.1338C188.497 20.0082 188.651 19.6377 188.53 19.317Z" fill="white"/>
<path d="M200.115 10.3828L200.12 10.3862L200.115 10.3828Z" fill="white"/>
<path d="M190.376 17.2373C190.34 17.6856 190.481 18.5439 191.235 18.9057C191.875 19.2118 193.014 19.2746 195.727 17.1832C195.786 17.2796 195.85 17.3748 195.927 17.4561C196.36 17.9194 197.207 18.2955 198.777 17.5048C198.862 17.4684 200.664 16.71 202.132 14.264C202.195 14.1621 202.223 14.0499 202.223 13.9395C202.223 13.7248 202.114 13.5167 201.917 13.3982C201.618 13.2193 201.23 13.3164 201.051 13.6135C199.811 15.6843 198.312 16.3297 198.298 16.3384C198.282 16.3431 198.262 16.3514 198.248 16.3597C197.564 16.7128 197.04 16.8001 196.845 16.5919C196.797 16.5422 196.759 16.4616 196.726 16.3743C197.297 15.8922 197.921 15.3302 198.612 14.6757C199.888 13.4657 200.536 12.3878 200.536 11.4691V11.4448C200.527 10.7943 200.194 10.4562 200.121 10.3859C200.005 10.2773 199.568 9.92219 198.895 10.0004C198.099 10.0913 197.328 10.7508 196.606 11.9575C195.889 13.1626 195.385 14.6129 195.385 15.7937C195.385 15.8109 195.387 15.8271 195.387 15.8447C192.662 18.0475 191.878 17.8128 191.781 17.7682C191.663 17.7137 191.632 17.4708 191.632 17.3582V17.3448C191.794 15.9928 192.762 14.5083 193.364 13.7538C193.557 13.8647 193.801 13.87 194.006 13.7451C194.149 13.6567 194.627 13.3273 194.713 12.8375C194.757 12.5833 194.692 12.3321 194.529 12.1279C194.385 11.9433 194.179 11.8319 193.952 11.8147C193.545 11.7833 193.247 12.0588 192.986 12.3031L192.904 12.3782C192.34 12.8956 190.622 15.0908 190.378 17.2144C190.376 17.2239 190.376 17.2302 190.376 17.2373ZM197.69 12.6029C198.366 11.4738 198.843 11.2841 199.017 11.2564C199.141 11.2359 199.211 11.276 199.24 11.2977C199.261 11.3335 199.277 11.3858 199.277 11.4653C199.277 11.81 199.005 12.5668 197.745 13.7619C197.42 14.0702 197.117 14.3459 196.825 14.6096C196.99 14.0033 197.266 13.3135 197.69 12.6029Z" fill="white"/>
<path d="M200.12 10.3862C200.129 10.3961 200.138 10.4048 200.149 10.4129C200.141 10.4089 200.132 10.3981 200.12 10.3862Z" fill="white"/>
<path d="M220.063 3.67855V3.63135H220.306V3.67855H220.214V3.91887H220.155V3.67855H220.063ZM220.438 3.63135L220.511 3.83831L220.586 3.63135H220.667V3.91887H220.615V3.68567L220.537 3.91887H220.49L220.41 3.68567V3.91887H220.356V3.63135H220.438Z" fill="white"/>
</svg>
